<svg id="Layer_3" xmlns="http://www.w3.org/2000/svg" width="18.5" height="15.121" viewBox="0 0 18.5 15.121">
  <g id="Group_701" data-name="Group 701">
    <circle id="Ellipse_31" data-name="Ellipse 31" cx="0.824" cy="0.824" r="0.824" transform="translate(0 3.782)" fill="#b2bbbf"/>
    <circle id="Ellipse_32" data-name="Ellipse 32" cx="1.325" cy="1.325" r="1.325" transform="translate(2.392 1.648)" fill="#b2bbbf"/>
    <circle id="Ellipse_33" data-name="Ellipse 33" cx="0.614" cy="0.614" r="0.614" transform="translate(2.683)" fill="#b2bbbf"/>
    <path id="Path_404" data-name="Path 404" d="M18.512,26.084H.012a9.734,9.734,0,0,0,3.731,5.027l-1.73,1.73H3.387l1.2-1.2a9.673,9.673,0,0,0,9.329.009l1.195,1.195h1.374l-1.72-1.72A9.729,9.729,0,0,0,18.512,26.084Z" transform="translate(-0.012 -17.72)" fill="#b2bbbf"/>
    <path id="Path_405" data-name="Path 405" d="M15.614,5.68a1.943,1.943,0,0,1,1.942,1.942v3.367H.076v1.436H18.527v-4.8c0-.079-.006-.157-.012-.235,0-.024,0-.04,0-.04h0a2.913,2.913,0,0,0-5.813.276h.971A1.942,1.942,0,0,1,15.614,5.68Z" transform="translate(-0.051 -4.587)" fill="#b2bbbf"/>
  </g>
</svg>
