<svg xmlns="http://www.w3.org/2000/svg" width="20" height="13.206" viewBox="0 0 20 13.206">
  <path id="Path_539" data-name="Path 539" d="M228.6,231.638a1.923,1.923,0,0,0,.191-.821v-.076a1.854,1.854,0,0,0-.4-1.145v-3H213.047v2.92a1.657,1.657,0,0,0-.4,1.088v.21a1.991,1.991,0,0,0,.191.821H210.7v8.168h.763v-1.794h18.473v1.794h.763v-8.168Zm-5.763,0a1.083,1.083,0,0,1-.382-.821v-.21a.916.916,0,0,1,.916-.916h3.588a1.047,1.047,0,0,1,1.05,1.05v.076a1.115,1.115,0,0,1-.382.821Zm-3.092-1.107h1.947v.286a1.991,1.991,0,0,0,.191.821h-2.328a1.922,1.922,0,0,0,.191-.821v-.286Zm-6.336.286v-.21a.916.916,0,0,1,.916-.916h3.588a1.047,1.047,0,0,1,1.05,1.05v.076a1.115,1.115,0,0,1-.382.821h-4.809A1.1,1.1,0,0,1,213.41,230.818Z" transform="translate(-210.7 -226.6)" fill="#b2bbbf"/>
</svg>
