<?xml version="1.0" encoding="UTF-8"?>
<svg width="14px" height="14px" viewBox="0 0 14 14" version="1.1" xmlns="http://www.w3.org/2000/svg" xmlns:xlink="http://www.w3.org/1999/xlink">
    <!-- Generator: Sketch 52.6 (67491) - http://www.bohemiancoding.com/sketch -->
    <title>clock-circle</title>
    <desc>Created with Sketch.</desc>
    <g id="Page-1" stroke="none" stroke-width="1" fill="none" fill-rule="evenodd">
        <g id="Community-forum" transform="translate(-542.000000, -231.000000)" fill="#0093E0">
            <g id="main-content" transform="translate(435.000000, 105.000000)">
                <g id="thread" transform="translate(0.000000, 88.000000)">
                    <g id="clock-circle" transform="translate(107.000000, 38.000000)">
                        <path d="M7,0.318181818 C3.31008364,0.318181818 0.318181818,3.31008364 0.318181818,7 C0.318181818,10.6898909 3.31008364,13.6818182 7,13.6818182 C10.6898909,13.6818182 13.6818182,10.6898909 13.6818182,7 C13.6818182,3.31008364 10.6898909,0.318181818 7,0.318181818 Z M7,12.5483273 C3.93650727,12.5483273 1.45170455,10.0635182 1.45170455,7 C1.45170455,3.93650727 3.93650727,1.45170455 7,1.45170455 C10.0635182,1.45170455 12.5483273,3.93650727 12.5483273,7 C12.5483273,10.0635182 10.0635182,12.5483273 7,12.5483273 Z" id="Shape" fill-rule="nonzero"></path>
                        <path d="M9.60559091,8.88821818 L7.47873636,7.35050909 L7.47873636,3.65909091 C7.47873636,3.59346273 7.42509091,3.53977273 7.35941818,3.53977273 L6.64204545,3.53977273 C6.57643636,3.53977273 6.52272727,3.59346273 6.52272727,3.65909091 L6.52272727,7.76662727 C6.52272727,7.80538182 6.54060909,7.84120909 6.57191818,7.86354545 L9.03884545,9.66229091 C9.09255455,9.70104545 9.16713636,9.68914545 9.20589091,9.6369 L9.63244545,9.05526364 C9.6712,9.00002727 9.6593,8.92550909 9.60559091,8.88821818 Z" id="Path"></path>
                    </g>
                </g>
            </g>
        </g>
    </g>
</svg>