<?xml version="1.0" encoding="UTF-8"?>
<svg width="50px" height="50px" viewBox="0 0 50 50" version="1.1" xmlns="http://www.w3.org/2000/svg" xmlns:xlink="http://www.w3.org/1999/xlink">
    <!-- Generator: Sketch 52.6 (67491) - http://www.bohemiancoding.com/sketch -->
    <title>clock</title>
    <desc>Created with Sketch.</desc>
    <g id="Visual-Design-(desktop)" stroke="none" stroke-width="1" fill="none" fill-rule="evenodd">
        <g id="Assign-Tasks" transform="translate(-641.000000, -1674.000000)" fill="#323232" fill-rule="nonzero">
            <g id="line1" transform="translate(135.000000, 1645.000000)">
                <g id="Group-2" transform="translate(506.000000, 29.000000)">
                    <g id="clock">
                        <path d="M25,0 C11.2155914,0 0,11.2155914 0,25 C0,38.7844086 11.2155914,50 25,50 C38.7844086,50 50,38.7844086 50,25 C50,11.2155914 38.7844086,0 25,0 Z M25,47.9167938 C12.3634338,47.9167938 2.08320615,37.6365662 2.08320615,25 C2.08320615,12.3634338 12.3634338,2.08320615 25,2.08320615 C37.6365662,2.08320615 47.9167938,12.3634338 47.9167938,25 C47.9167938,37.6365662 37.6365662,47.9167938 25,47.9167938 Z" id="Shape"></path>
                        <path d="M44.7906494,31.5269471 C45.482254,29.4269562 45.8332062,27.2312164 45.8332062,25 C45.8332062,13.5124207 36.4875793,4.16679385 25,4.16679385 C13.5124207,4.16679385 4.16679385,13.5124207 4.16679385,25 C4.16679385,36.4875793 13.5124207,45.8332062 25,45.8332062 C33.0509186,45.8332062 40.4613495,41.1197662 43.8770294,33.8249207 L41.9895172,32.9418183 C41.2021637,34.6240997 40.1760102,36.1499786 38.9678955,37.4946594 L37.5209809,36.0488892 L36.0477447,37.5217438 L37.4874115,38.9602661 C34.8686219,41.2937164 31.6261291,42.8771973 28.125,43.4749604 L28.125,41.6667938 L26.0417938,41.6667938 L26.0417938,43.712616 C25.6958008,43.731308 25.3490448,43.75 25,43.75 C24.6479034,43.75 24.3053437,43.7168121 23.9582062,43.6969757 L23.9582062,41.6667938 L21.875,41.6667938 L21.875,43.4677124 C18.3147431,42.8665161 15.1000977,41.2635803 12.5198364,38.9530182 L13.9522553,37.5209809 L12.4790191,36.0477447 L11.0469818,37.4801636 C8.29277041,34.4039917 6.54602051,30.424881 6.30302432,26.0417938 L8.33320615,26.0417938 L8.33320615,23.9582062 L6.30302432,23.9582062 C6.54602051,19.575119 8.29277041,15.5960083 11.0469818,12.5198364 L12.4790191,13.9522553 L13.9522553,12.4790191 L12.5198364,11.0469818 C15.1000977,8.73641973 18.3147431,7.13348389 21.875,6.5322876 L21.875,8.33320615 L23.9582062,8.33320615 L23.9582062,6.30302432 C24.3053437,6.28318789 24.6479034,6.25 25,6.25 C25.3520966,6.25 25.6946563,6.28318789 26.0417938,6.30302432 L26.0417938,8.33320615 L28.125,8.33320615 L28.125,6.5322876 C31.6852569,7.13348389 34.8999023,8.73641973 37.4801636,11.0469818 L36.0477447,12.4790191 L37.5209809,13.9522553 L38.9530182,12.5198364 C41.7072296,15.5960083 43.4539795,19.575119 43.6969757,23.9582062 L41.6667938,23.9582062 L41.6667938,26.0417938 L43.7095643,26.0417938 C43.6187744,27.6916504 43.3261871,29.3136597 42.8115845,30.8738709 L44.7906494,31.5269471 Z" id="Path"></path>
                        <polygon id="Path" points="34.6801758 13.8469696 25 23.5271454 17.4030304 15.9301758 15.9301758 17.4030304 23.5271454 25 22.1801758 26.3469696 23.6530304 27.8198242 25 26.4728546 26.3469696 27.8198242 27.8198242 26.3469696 26.4728546 25 36.1530304 15.3198242"></polygon>
                    </g>
                </g>
            </g>
        </g>
    </g>
</svg>