<svg xmlns="http://www.w3.org/2000/svg" width="17.165" height="17.165" viewBox="0 0 17.165 17.165">
  <g id="Icon_feather-instagram" data-name="Icon feather-instagram" transform="translate(-2 -2)">
    <path id="Path_158783" data-name="Path 158783" d="M6.791,3h7.582a3.791,3.791,0,0,1,3.791,3.791v7.582a3.791,3.791,0,0,1-3.791,3.791H6.791A3.791,3.791,0,0,1,3,14.373V6.791A3.791,3.791,0,0,1,6.791,3Z" fill="none" stroke="#122c3a" stroke-linecap="round" stroke-linejoin="round" stroke-width="2"/>
    <path id="Path_158784" data-name="Path 158784" d="M18.1,14.523a3.033,3.033,0,1,1-2.555-2.555A3.033,3.033,0,0,1,18.1,14.523Z" transform="translate(-4.483 -4.418)" fill="none" stroke="#122c3a" stroke-linecap="round" stroke-linejoin="round" stroke-width="2"/>
    <path id="Path_158785" data-name="Path 158785" d="M26.25,9.75h0" transform="translate(-11.497 -3.338)" fill="none" stroke="#122c3a" stroke-linecap="round" stroke-linejoin="round" stroke-width="2"/>
  </g>
</svg>
