<svg xmlns="http://www.w3.org/2000/svg" width="12.786" height="18" viewBox="0 0 12.786 18">
  <g id="ic_location" transform="translate(-15.2 -8.4)">
    <g id="Icon-Location" transform="translate(15.2 8.4)">
      <path id="Fill-55" d="M-210.407-349.6l-.342-.419c-.228-.3-6.051-7.116-6.051-11.188a6.407,6.407,0,0,1,6.393-6.393,6.432,6.432,0,0,1,6.393,6.393c0,4.072-5.822,10.922-6.051,11.188l-.342.419Zm0-17.125a5.481,5.481,0,0,0-5.48,5.48c0,3.2,4.224,8.638,5.48,10.2,1.256-1.56,5.48-6.964,5.48-10.2a5.481,5.481,0,0,0-5.48-5.48Z" transform="translate(216.8 367.6)" fill="#9b9b9b"/>
      <path id="Fill-56" d="M-203.964-352.329a2.453,2.453,0,0,1-2.436-2.436,2.453,2.453,0,0,1,2.436-2.436,2.453,2.453,0,0,1,2.436,2.436,2.453,2.453,0,0,1-2.436,2.436Zm0-3.958a1.527,1.527,0,0,0-1.522,1.522,1.527,1.527,0,0,0,1.522,1.522,1.527,1.527,0,0,0,1.522-1.522,1.527,1.527,0,0,0-1.522-1.522Z" transform="translate(210.358 361.158)" fill="#9b9b9b"/>
    </g>
  </g>
</svg>
