<svg xmlns="http://www.w3.org/2000/svg" width="31.832" height="26.909" viewBox="0 0 31.832 26.909">
  <g id="Group_977" data-name="Group 977" transform="translate(-737.5 -1134)">
    <path id="Path_335" data-name="Path 335" d="M753.3,511.7h0a2.493,2.493,0,0,0,1.419.842l.443.133h0a.516.516,0,0,1,.443.488v.443a9.95,9.95,0,0,1-.177,2.084,17.078,17.078,0,0,1-.488,2.083,11.994,11.994,0,0,1-6.029,6.915l-.266.133a.91.91,0,0,1-.488,0l-.222-.133h-.044a12.284,12.284,0,0,1-3.635-2.881,12.119,12.119,0,0,1-2.349-4.034,10.289,10.289,0,0,1-.532-2.083h0a9.941,9.941,0,0,1-.177-2.084v-.443a.491.491,0,0,1,.488-.488l.4-.133a2.382,2.382,0,0,0,1.951-2.35v-.443a.529.529,0,0,1,.488-.532l.443-.089a4.77,4.77,0,0,1,1.241-.266,12.6,12.6,0,0,1,2.261-.266,13.1,13.1,0,0,1,2.261.266c.621.089,1.153.222,1.241.222l.044.044.4.089a.529.529,0,0,1,.488.532v.443c-.177.044-.133.842.4,1.507Z" transform="translate(13.726 635.862)" fill="#b2bbbf"/>
    <path id="Path_336" data-name="Path 336" d="M723.887,511.907H701.9c0-8.866,3.325-6.605,9.885-10.373v-1.507c-1.2-.8-1.419-2.305-1.818-3.812h0c-.222,0-.355-.31-.355-.576v-.133a3.73,3.73,0,0,1-.31-.8c-.133-.443-.532-1.419-.177-1.817a.32.32,0,0,1,.532.044c-.488-2.482-1.153-5.807,2.35-6.782,0-2.172,8.157-1.2,9.132,2.261.443,1.33-.133,4.477-.133,4.477.133-.266.266-.31.488-.177.443.355-.044,1.6-.177,1.995v.044l-.443.089v.532a2.653,2.653,0,0,1-.133.8c-.044.044-.044.044-.089.044-.089.266-.133.532-.222.8a3.745,3.745,0,0,1-2.615,1.995l-.488.133-.044.488a14.8,14.8,0,0,0,.842,4.965,14.647,14.647,0,0,0,5.763,7.314Z" transform="translate(35.6 649.001)" fill="#b2bbbf"/>
  </g>
</svg>
