<?xml version="1.0" encoding="UTF-8"?>
<svg width="22px" height="19px" viewBox="0 0 22 19" version="1.1" xmlns="http://www.w3.org/2000/svg" xmlns:xlink="http://www.w3.org/1999/xlink">
    <!-- Generator: Sketch 63.1 (92452) - https://sketch.com -->
    <title>Shape</title>
    <desc>Created with Sketch.</desc>
    <g id="Visual-Design-(desktop)" stroke="none" stroke-width="1" fill="none" fill-rule="evenodd">
        <g id="Property-(2)" transform="translate(-422.000000, -325.000000)" fill="#FD6260" fill-rule="nonzero">
            <g id="property-item" transform="translate(24.000000, 159.000000)">
                <g id="heart" transform="translate(398.000000, 166.000000)">
                    <path d="M14.9305,0.929933452 C15.7541,0.92805 16.5699,1.08978 17.3305,1.40573 C18.064,1.70922 18.7323,2.15082 19.2992,2.70651 C19.8657,3.26055 20.3187,3.91972 20.6328,4.64714 C20.9586,5.40417 21.125,6.20807 21.1227235,7.03542 C21.1227235,7.81589 20.9633,8.6292 20.6469,9.4565 C20.3844,10.1479 20.0023,10.8651 19.5172,11.5893 C18.7484,12.7354 17.6914,13.9307 16.3789,15.1424 C14.2016,17.151 12.05,18.5362 11.9586,18.5948 L11.9586,18.5948 L11.4031,18.951 C11.157,19.1081 10.8406,19.1081 10.5945,18.951 L10.5945,18.951 L10.0391,18.5948 C9.9477,18.5385 7.79375,17.151 5.61875,15.1424 C4.30625,13.9307 3.24922,12.7354 2.48047,11.5893 C1.99531,10.8651 1.61563,10.1479 1.35078,9.4565 C1.03438,8.6292 0.875,7.81589 0.875,7.03542 C0.875,6.20807 1.04141,5.40417 1.36719,4.64714 C1.6805,3.91925 2.13359,3.25992 2.70078,2.70651 C3.27031,2.1487 3.93359,1.71042 4.66953,1.40573 C5.43125,1.08932 6.2375,0.929933452 7.06953,0.929933452 C8.225,0.929933452 9.3523,1.24635 10.332,1.84401 C10.5664,1.98698 10.7891,2.14401 11,2.3151 C11.2109,2.14401 11.4336,1.98698 11.668,1.84401 C12.6477,1.24635 13.775,0.929933452 14.9305,0.929933452 Z" id="Shape"></path>
                </g>
            </g>
        </g>
    </g>
</svg>