<?xml version="1.0" encoding="UTF-8"?>
<svg width="22px" height="19px" viewBox="0 0 22 19" version="1.1" xmlns="http://www.w3.org/2000/svg" xmlns:xlink="http://www.w3.org/1999/xlink">
    <!-- Generator: Sketch 52.6 (67491) - http://www.bohemiancoding.com/sketch -->
    <title>heart</title>
    <desc>Created with Sketch.</desc>
    <g id="Page-1" stroke="none" stroke-width="1" fill="none" fill-rule="evenodd">
        <g id="Property-(2)" transform="translate(-422.000000, -325.000000)" fill="#0093E0" fill-rule="nonzero">
            <g id="property-item" transform="translate(24.000000, 159.000000)">
                <g id="heart" transform="translate(398.000000, 166.000000)">
                    <path d="M20.6328,4.64714 C20.3187,3.91972 19.8657,3.26055 19.2992,2.70651 C18.7323,2.15082 18.064,1.70922 17.3305,1.40573 C16.5699,1.08978 15.7541,0.92805 14.9305,0.92995 C13.775,0.92995 12.6477,1.24635 11.668,1.84401 C11.4336,1.98698 11.2109,2.14401 11,2.3151 C10.7891,2.14401 10.5664,1.98698 10.332,1.84401 C9.3523,1.24635 8.225,0.92995 7.06953,0.92995 C6.2375,0.92995 5.43125,1.08932 4.66953,1.40573 C3.93359,1.71042 3.27031,2.1487 2.70078,2.70651 C2.13359,3.25992 1.6805,3.91925 1.36719,4.64714 C1.04141,5.40417 0.875,6.20807 0.875,7.03542 C0.875,7.81589 1.03438,8.6292 1.35078,9.4565 C1.61563,10.1479 1.99531,10.8651 2.48047,11.5893 C3.24922,12.7354 4.30625,13.9307 5.61875,15.1424 C7.79375,17.151 9.9477,18.5385 10.0391,18.5948 L10.5945,18.951 C10.8406,19.1081 11.157,19.1081 11.4031,18.951 L11.9586,18.5948 C12.05,18.5362 14.2016,17.151 16.3789,15.1424 C17.6914,13.9307 18.7484,12.7354 19.5172,11.5893 C20.0023,10.8651 20.3844,10.1479 20.6469,9.4565 C20.9633,8.6292 21.1227,7.81589 21.1227,7.03542 C21.125,6.20807 20.9586,5.40417 20.6328,4.64714 Z M11,17.0971 C11,17.0971 2.65625,11.751 2.65625,7.03542 C2.65625,4.64714 4.63203,2.7112 7.06953,2.7112 C8.78281,2.7112 10.2688,3.66745 11,5.06432 C11.7312,3.66745 13.2172,2.7112 14.9305,2.7112 C17.368,2.7112 19.3438,4.64714 19.3438,7.03542 C19.3438,11.751 11,17.0971 11,17.0971 Z" id="Shape"></path>
                </g>
            </g>
        </g>
    </g>
</svg>