<?xml version="1.0" encoding="UTF-8"?>
<svg width="118px" height="33px" viewBox="0 0 118 33" version="1.1" xmlns="http://www.w3.org/2000/svg" xmlns:xlink="http://www.w3.org/1999/xlink">
    <!-- Generator: Sketch 63.1 (92452) - https://sketch.com -->
    <title>logo</title>
    <desc>Created with Sketch.</desc>
    <g id="Symbols" stroke="none" stroke-width="1" fill="none" fill-rule="evenodd">
        <g id="top-menu-desktop" transform="translate(-135.000000, -17.000000)">
            <g id="logo">
                <g transform="translate(135.000000, 17.000000)">
                    <rect id="Rectangle" fill="#FD6260" x="50" y="0" width="68" height="33" rx="5"></rect>
                    <path d="M10.528,8.368 L12.856,8.368 L12.856,25 L10.528,25 L10.528,17.32 L2.392,17.32 L2.392,25 L0.064,25 L0.064,8.368 L2.392,8.368 L2.392,15.304 L10.528,15.304 L10.528,8.368 Z M21.064,23.392 C21.5920026,23.392 22.059998,23.3800001 22.468,23.356 C22.876002,23.3319999 23.2159986,23.2880003 23.488,23.224 L23.488,19.504 C23.3279992,19.4239996 23.0680018,19.3560003 22.708,19.3 C22.3479982,19.2439997 21.9120026,19.216 21.4,19.216 C21.0639983,19.216 20.708,19.2399998 20.332,19.288 C19.9559981,19.3360002 19.6120016,19.4359992 19.3,19.588 C18.9879984,19.7400008 18.728001,19.9479987 18.52,20.212 C18.311999,20.4760013 18.208,20.8239978 18.208,21.256 C18.208,22.056004 18.4639974,22.6119984 18.976,22.924 C19.4880026,23.2360016 20.1839956,23.392 21.064,23.392 Z M20.872,12.208 C21.7680045,12.208 22.5239969,12.3239988 23.14,12.556 C23.7560031,12.7880012 24.2519981,13.1159979 24.628,13.54 C25.0040019,13.9640021 25.2719992,14.4679971 25.432,15.052 C25.5920008,15.6360029 25.672,16.2799965 25.672,16.984 L25.672,24.784 C25.479999,24.8160002 25.2120017,24.8599997 24.868,24.916 C24.5239983,24.9720003 24.1360022,25.0239998 23.704,25.072 C23.2719978,25.1200002 22.8040025,25.1639998 22.3,25.204 C21.7959975,25.2440002 21.2960025,25.264 20.8,25.264 C20.0959965,25.264 19.448003,25.1920007 18.856,25.048 C18.263997,24.9039993 17.7520022,24.6760016 17.32,24.364 C16.8879978,24.0519984 16.5520012,23.6400026 16.312,23.128 C16.0719988,22.6159974 15.952,22.0000036 15.952,21.28 C15.952,20.5919966 16.0919986,20.0000025 16.372,19.504 C16.6520014,19.0079975 17.0319976,18.6080015 17.512,18.304 C17.9920024,17.9999985 18.5519968,17.7760007 19.192,17.632 C19.8320032,17.4879993 20.5039965,17.416 21.208,17.416 C21.4320011,17.416 21.6639988,17.4279999 21.904,17.452 C22.1440012,17.4760001 22.3719989,17.5079998 22.588,17.548 C22.8040011,17.5880002 22.9919992,17.6239998 23.152,17.656 C23.3120008,17.6880002 23.4239997,17.7119999 23.488,17.728 L23.488,17.104 C23.488,16.7359982 23.4480004,16.3720018 23.368,16.012 C23.2879996,15.6519982 23.144001,15.3320014 22.936,15.052 C22.727999,14.7719986 22.4440018,14.5480008 22.084,14.38 C21.7239982,14.2119992 21.2560029,14.128 20.68,14.128 C19.9439963,14.128 19.3000028,14.1799995 18.748,14.284 C18.1959972,14.3880005 17.7840014,14.4959994 17.512,14.608 L17.248,12.76 C17.5360014,12.6319994 18.0159966,12.5080006 18.688,12.388 C19.3600034,12.2679994 20.0879961,12.208 20.872,12.208 Z M39.304,24.64 C38.7919974,24.7680006 38.1160042,24.9039993 37.276,25.048 C36.4359958,25.1920007 35.4640055,25.264 34.36,25.264 C33.3999952,25.264 32.5920033,25.1240014 31.936,24.844 C31.2799967,24.5639986 30.752002,24.1680026 30.352,23.656 C29.951998,23.1439974 29.6640009,22.5400035 29.488,21.844 C29.3119991,21.1479965 29.224,20.3760042 29.224,19.528 L29.224,12.52 L31.456,12.52 L31.456,19.048 C31.456,20.5680076 31.6959976,21.6559967 32.176,22.312 C32.6560024,22.9680033 33.4639943,23.296 34.6,23.296 C34.8400012,23.296 35.0879987,23.2880001 35.344,23.272 C35.6000013,23.2559999 35.8399989,23.2360001 36.064,23.212 C36.2880011,23.1879999 36.4919991,23.1640001 36.676,23.14 C36.8600009,23.1159999 36.9919996,23.0880002 37.072,23.056 L37.072,12.52 L39.304,12.52 L39.304,24.64 Z M46.888,25.24 C45.5119931,25.2079998 44.5360029,24.9120028 43.96,24.352 C43.3839971,23.7919972 43.096,22.9200059 43.096,21.736 L43.096,6.76 L45.328,6.376 L45.328,21.376 C45.328,21.7440018 45.3599997,22.0479988 45.424,22.288 C45.4880003,22.5280012 45.5919993,22.7199993 45.736,22.864 C45.8800007,23.0080007 46.0719988,23.1159996 46.312,23.188 C46.5520012,23.2600004 46.8479982,23.3199998 47.2,23.368 L46.888,25.24 Z" id="HaulMate" fill="#323232"></path>
                    <path d="M107.144,11.672 C108.936009,11.672 110.351995,12.2199945 111.392,13.316 C112.432005,14.4120055 112.952,16.0239894 112.952,18.152 C112.952,18.360001 112.944,18.5879988 112.928,18.836 C112.912,19.0840012 112.896,19.303999 112.88,19.496 L104.768,19.496 C104.848,20.2320037 105.191997,20.8159978 105.8,21.248 C106.408003,21.6800022 107.223995,21.896 108.248,21.896 C108.904003,21.896 109.547997,21.8360006 110.18,21.716 C110.812003,21.5959994 111.327998,21.4480009 111.728,21.272 L112.208,24.176 C112.015999,24.2720005 111.760002,24.3679995 111.44,24.464 C111.119998,24.5600005 110.764002,24.6439996 110.372,24.716 C109.979998,24.7880004 109.560002,24.8479998 109.112,24.896 C108.663998,24.9440002 108.216002,24.968 107.768,24.968 C106.631994,24.968 105.644004,24.8000017 104.804,24.464 C103.963996,24.1279983 103.268003,23.6680029 102.716,23.084 C102.163997,22.4999971 101.756001,21.808004 101.492,21.008 C101.227999,20.207996 101.096,19.3440046 101.096,18.416 C101.096,17.2959944 101.267998,16.3160042 101.612,15.476 C101.956002,14.6359958 102.407997,13.9360028 102.968,13.376 C103.528003,12.8159972 104.171996,12.3920014 104.9,12.104 C105.628004,11.8159986 106.375996,11.672 107.144,11.672 Z M94.496,8.288 L94.496,12.008 L98.792,12.008 L98.792,14.984 L94.496,14.984 L94.496,19.424 C94.496,20.1760038 94.6279987,20.7759978 94.892,21.224 C95.1560013,21.6720022 95.687996,21.896 96.488,21.896 C96.8720019,21.896 97.267998,21.8600004 97.676,21.788 C98.084002,21.7159996 98.4559983,21.6160006 98.792,21.488 L99.296,24.272 C98.8639978,24.4480009 98.3840026,24.5999994 97.856,24.728 C97.3279974,24.8560006 96.6800038,24.92 95.912,24.92 C94.9359951,24.92 94.1280032,24.788 93.488,24.524 C92.8479968,24.2599987 92.3360019,23.8920024 91.952,23.42 C91.5679981,22.9479976 91.3000008,22.3760034 91.148,21.704 C90.9959992,21.0319966 90.92,20.288 90.92,19.472 L90.92,8.864 L94.496,8.288 Z M82.304,11.672 C83.3600053,11.672 84.2399965,11.7919988 84.944,12.032 C85.6480035,12.2720012 86.2119979,12.6159978 86.636,13.064 C87.0600021,13.5120022 87.3599991,14.0559968 87.536,14.696 C87.7120009,15.3360032 87.8,16.0479961 87.8,16.832 L87.8,24.272 C87.2879974,24.3840006 86.5760046,24.5159992 85.664,24.668 C84.7519954,24.8200008 83.6480065,24.896 82.352,24.896 C81.5359959,24.896 80.7960033,24.8240007 80.132,24.68 C79.4679967,24.5359993 78.8960024,24.3000016 78.416,23.972 C77.9359976,23.6439984 77.5680013,23.2160026 77.312,22.688 C77.0559987,22.1599974 76.928,21.5120038 76.928,20.744 C76.928,20.0079963 77.0759985,19.3840026 77.372,18.872 C77.6680015,18.3599974 78.0639975,17.9520015 78.56,17.648 C79.0560025,17.3439985 79.6239968,17.1240007 80.264,16.988 C80.9040032,16.8519993 81.5679966,16.784 82.256,16.784 C82.7200023,16.784 83.1319982,16.8039998 83.492,16.844 C83.8520018,16.8840002 84.1439989,16.9359997 84.368,17 L84.368,16.664 C84.368,16.055997 84.1840018,15.5680018 83.816,15.2 C83.4479982,14.8319982 82.8080046,14.648 81.896,14.648 C81.287997,14.648 80.688003,14.6919996 80.096,14.78 C79.503997,14.8680004 78.9920022,14.9919992 78.56,15.152 L78.104,12.272 C78.312001,12.2079997 78.5719984,12.1400004 78.884,12.068 C79.1960016,11.9959996 79.5359982,11.9320003 79.904,11.876 C80.2720018,11.8199997 80.659998,11.7720002 81.068,11.732 C81.476002,11.6919998 81.8879979,11.672 82.304,11.672 Z M60.896,8 C61.1840014,8.52800264 61.5159981,9.17999612 61.892,9.956 C62.2680019,10.7320039 62.659998,11.5719955 63.068,12.476 C63.476002,13.3800045 63.879998,14.3039953 64.28,15.248 C64.680002,16.1920047 65.0559982,17.0799958 65.408,17.912 C65.7600018,17.0799958 66.135998,16.1920047 66.536,15.248 C66.936002,14.3039953 67.339998,13.3800045 67.748,12.476 C68.156002,11.5719955 68.5479981,10.7320039 68.924,9.956 C69.3000019,9.17999612 69.6319986,8.52800264 69.92,8 L73.328,8 C73.4880008,9.10400552 73.6359993,10.3399932 73.772,11.708 C73.9080007,13.0760068 74.0279995,14.5 74.132,15.98 C74.2360005,17.4600074 74.3319996,18.9439926 74.42,20.432 C74.5080004,21.9200074 74.5839997,23.3199934 74.648,24.632 L71,24.632 C70.9519998,23.0159919 70.8880004,21.2560095 70.808,19.352 C70.7279996,17.4479905 70.6080008,15.5280097 70.448,13.592 C70.1599986,14.2640034 69.8400018,15.0079959 69.488,15.824 C69.1359982,16.6400041 68.7880017,17.4559959 68.444,18.272 C68.0999983,19.0880041 67.7680016,19.8679963 67.448,20.612 C67.1279984,21.3560037 66.8560011,21.9919974 66.632,22.52 L64.016,22.52 C63.7919989,21.9919974 63.5200016,21.3560037 63.2,20.612 C62.8799984,19.8679963 62.5480017,19.0880041 62.204,18.272 C61.8599983,17.4559959 61.5120018,16.6400041 61.16,15.824 C60.8079982,15.0079959 60.4880014,14.2640034 60.2,13.592 C60.0399992,15.5280097 59.9200004,17.4479905 59.84,19.352 C59.7599996,21.2560095 59.6960002,23.0159919 59.648,24.632 L56,24.632 C56.0640003,23.3199934 56.1399996,21.9200074 56.228,20.432 C56.3160004,18.9439926 56.4119995,17.4600074 56.516,15.98 C56.6200005,14.5 56.7399993,13.0760068 56.876,11.708 C57.0120007,10.3399932 57.1599992,9.10400552 57.32,8 L60.896,8 Z M82.928,19.184 C82.5919983,19.184 82.2760015,19.2039998 81.98,19.244 C81.6839985,19.2840002 81.4240011,19.3599994 81.2,19.472 C80.9759989,19.5840006 80.8000006,19.735999 80.672,19.928 C80.5439994,20.120001 80.48,20.3599986 80.48,20.648 C80.48,21.2080028 80.6679981,21.5959989 81.044,21.812 C81.4200019,22.0280011 81.9359967,22.136 82.592,22.136 C82.9440018,22.136 83.2799984,22.1280001 83.6,22.112 C83.9200016,22.0959999 84.175999,22.0720002 84.368,22.04 L84.368,19.328 C84.2239993,19.2959998 84.0080014,19.2640002 83.72,19.232 C83.4319986,19.1999998 83.1680012,19.184 82.928,19.184 Z M107.192,14.624 C106.791998,14.624 106.448001,14.6919993 106.16,14.828 C105.871999,14.9640007 105.632001,15.1439989 105.44,15.368 C105.247999,15.5920011 105.100001,15.8519985 104.996,16.148 C104.891999,16.4440015 104.816,16.7439985 104.768,17.048 L109.496,17.048 C109.48,16.7439985 109.428,16.4480014 109.34,16.16 C109.252,15.8719986 109.116001,15.6160011 108.932,15.392 C108.747999,15.1679989 108.516001,14.9840007 108.236,14.84 C107.955999,14.6959993 107.608002,14.624 107.192,14.624 Z" id="Path-6" fill="#FFFFFF"></path>
                </g>
            </g>
        </g>
    </g>
</svg>