<svg xmlns="http://www.w3.org/2000/svg" width="20" height="30" viewBox="0 0 20 30">
  <g id="Group_777" data-name="Group 777" transform="translate(-155 -720)">
    <ellipse id="Ellipse_38" data-name="Ellipse 38" cx="4.5" cy="1.5" rx="4.5" ry="1.5" transform="translate(160.5 744)" fill="#437db3" opacity="0.5"/>
    <path id="XMLID_395_" d="M197.571,84.329A10,10,0,0,0,181.046,94.67c1.309,3.786,8.8,12,9.119,12.344l.335.365.335-.365c.32-.347,7.816-8.561,9.122-12.35a10.023,10.023,0,0,0-2.386-10.335ZM187.676,91.4a2.824,2.824,0,1,1,2.824,2.824A2.827,2.827,0,0,1,187.676,91.4Z" transform="translate(-25.5 638.6)" fill="#437db3"/>
  </g>
</svg>
