<svg xmlns="http://www.w3.org/2000/svg" width="32" height="27" viewBox="0 0 32 27">
  <g id="Group_715" data-name="Group 715" transform="translate(-223 -1126)">
    <rect id="Rectangle_929" data-name="Rectangle 929" width="32" height="27" rx="2" transform="translate(223 1126)" fill="#b2bbbf"/>
    <g id="ic_persons" transform="translate(198.5 1068.102)">
      <path id="Path_492" data-name="Path 492" d="M301.268,126.234c-1.494-.567-1.4-.339-1.4-1.389,0-.678.336-.429.549-1.721.083-.509.152-.17.328-.985.094-.426-.065-.458-.043-.66s.036-.386.072-.8a2.081,2.081,0,0,0-4.143,0c.032.419.054.6.072.8s-.137.235-.043.66c.177.816.245.473.328.985.213,1.292.545,1.047.545,1.721,0,.484.112.686-.538.992.195.069.422.152.7.256,1.963.747,1.916,1.472,1.967,1.815.036.235.054,2.1.061,2.771h3.526s0-2.9-.054-3.244C303.148,127.168,302.791,126.815,301.268,126.234Z" transform="translate(-255.075 -52.919)" fill="#fff"/>
      <path id="Path_493" data-name="Path 493" d="M43.728,77.761s0-.509-.007-1.1c-.007-.671-.025-1.443-.061-1.674-.054-.343-.516-.8-2.476-1.548-.271-.1-.5-.184-.7-.256-1.2-.426-1.115-.567-1.115-1.732,0-.877.433-.307.707-1.97.108-.657.195-.22.422-1.27.123-.549-.083-.592-.058-.855s.051-.5.094-1.036A2.481,2.481,0,0,0,37.864,63.9a2.482,2.482,0,0,0-2.674,2.421c.043.538.069.772.1,1.036s-.18.3-.058.855c.231,1.05.318.613.426,1.27.274,1.664.7,1.093.7,1.97,0,1.357.119,1.256-1.812,1.988-1.959.747-2.421,1.205-2.476,1.548C32,75.426,32,77.761,32,77.761H43.728Z" fill="#fff"/>
    </g>
  </g>
</svg>
