<svg xmlns="http://www.w3.org/2000/svg" width="40" height="40" viewBox="0 0 40 40">
  <g id="Group_978" data-name="Group 978" transform="translate(-802 -434)">
    <circle id="Ellipse_26" data-name="Ellipse 26" cx="20" cy="20" r="20" transform="translate(802 434)" fill="#ebf1f6"/>
    <g id="Group_693" data-name="Group 693" transform="translate(814 446)">
      <path id="Path_375" data-name="Path 375" d="M5,7.18V1A1,1,0,0,0,3,1V7.18a2.988,2.988,0,0,0,.03,5.65A1.01,1.01,0,0,0,3,13v2a1,1,0,0,0,2,0V13a1.01,1.01,0,0,0-.03-.17A2.988,2.988,0,0,0,5,7.18ZM4,11a1,1,0,1,1,1-1A1,1,0,0,1,4,11Z" fill="#437db3"/>
      <path id="Path_376" data-name="Path 376" d="M15,6a3.01,3.01,0,0,0-2-2.82V1a1,1,0,0,0-2,0V3.18a2.988,2.988,0,0,0,0,5.64V15a1,1,0,0,0,2,0V8.82A3.01,3.01,0,0,0,15,6ZM12,7a1,1,0,1,1,1-1A1,1,0,0,1,12,7Z" fill="#437db3"/>
    </g>
  </g>
</svg>
