<?xml version="1.0" encoding="UTF-8"?>
<svg width="12px" height="15px" viewBox="0 0 12 15" version="1.1" xmlns="http://www.w3.org/2000/svg" xmlns:xlink="http://www.w3.org/1999/xlink">
    <!-- Generator: Sketch 63.1 (92452) - https://sketch.com -->
    <title>environment</title>
    <desc>Created with Sketch.</desc>
    <g id="Visual-Design-(desktop)" stroke="none" stroke-width="1" fill="none" fill-rule="evenodd" opacity="0.5">
        <g id="Property-(2)" transform="translate(-496.000000, -552.000000)" fill="#323232" fill-rule="nonzero">
            <g id="property-item-copy" transform="translate(24.000000, 383.000000)">
                <g id="environment" transform="translate(472.000000, 169.000000)">
                    <path d="M11.3531333,3.85052 C11.0589333,3.17220667 10.6348667,2.55805333 10.1046667,2.04270667 C9.5728,1.52270667 8.94573333,1.10998667 8.2578,0.82708 C7.5422,0.530206667 6.7828,0.380206667 6,0.380206667 C5.2172,0.380206667 4.45781333,0.530206667 3.74218667,0.82552 C3.05,1.11146 2.42968667,1.52083333 1.89531333,2.04114667 C1.36550667,2.55678 0.941433333,3.17086667 0.646873333,3.84896 C0.342186667,4.55208 0.1875,5.29896 0.1875,6.06773333 C0.1875,7.17086667 0.45156,8.26926667 0.970313333,9.32866667 C1.3875,10.1802 1.97031333,11.0098667 2.70468667,11.7989333 C3.95937333,13.1458667 5.275,13.9692667 5.64846667,14.1896 C5.75446667,14.2522 5.87533333,14.2851333 5.99846667,14.2848683 C6.12033333,14.2848683 6.2406,14.2536667 6.34846667,14.1896 C6.72186667,13.9692667 8.03753333,13.1458667 9.2922,11.7989333 C10.0265333,11.0114667 10.6094,10.1802 11.0265333,9.32866667 C11.5484667,8.2708 11.8125333,7.17393333 11.8125333,6.06926667 C11.8125333,5.30052 11.6578,4.55364667 11.3531333,3.85052 Z M6,13.0864667 C4.97033333,12.4318 1.3125,9.8396 1.3125,6.06926667 C1.3125,4.85208667 1.79844,3.70833333 2.68125333,2.84583333 C3.56718667,1.98177333 4.74533333,1.50520667 6,1.50520667 C7.25466667,1.50520667 8.4328,1.98177333 9.31873333,2.84739333 C10.2015333,3.70833333 10.6874667,4.85208667 10.6874667,6.06926667 C10.6874667,9.8396 7.02966667,12.4318 6,13.0864667 Z M6,3.44270667 C4.48125333,3.44270667 3.25,4.67396 3.25,6.19273333 C3.25,7.71146667 4.48125333,8.94273333 6,8.94273333 C7.51873333,8.94273333 8.75,7.71146667 8.75,6.19273333 C8.75,4.67396 7.51873333,3.44270667 6,3.44270667 Z M7.23753333,7.4302 C7.0752,7.593 6.88226667,7.72206667 6.66993333,7.81 C6.45753333,7.898 6.22986667,7.94306667 6,7.94273517 C5.5328,7.94273517 5.09373333,7.75986667 4.76246667,7.4302 C4.59972667,7.26786667 4.47064667,7.075 4.38269333,6.8626 C4.29474,6.65026667 4.24964,6.4226 4.24999786,6.19273333 C4.24999786,5.72552 4.43281333,5.28646 4.76246667,4.95520667 C5.09373333,4.62396 5.5328,4.44270667 6,4.44270667 C6.4672,4.44270667 6.90626667,4.62396 7.23753333,4.95520667 C7.56873333,5.28646 7.74999786,5.72552 7.74999786,6.19273333 C7.74999786,6.65986667 7.56873333,7.09893333 7.23753333,7.4302 Z" id="Shape"></path>
                </g>
            </g>
        </g>
    </g>
</svg>