<svg xmlns="http://www.w3.org/2000/svg" width="15.996" height="16" viewBox="0 0 15.996 16">
  <g id="ic_time" transform="translate(-0.003)">
    <g id="Group_810" data-name="Group 810" transform="translate(0.003)">
      <path id="Path_561" data-name="Path 561" d="M8,0a8,8,0,1,0,8,8A8,8,0,0,0,8,0Zm2.941,11.139-.233.233a.535.535,0,0,1-.725.019L6.97,8.755a1.191,1.191,0,0,1-.347-.833L6.9,3.166a.534.534,0,0,1,.527-.5h.329a.531.531,0,0,1,.525.5l.229,3.956a1.664,1.664,0,0,0,.357.873l2.1,2.419A.538.538,0,0,1,10.942,11.139Z" transform="translate(-0.003)" fill="#b2bbbf" fill-rule="evenodd"/>
    </g>
  </g>
</svg>
