<?xml version="1.0" encoding="UTF-8"?>
<svg width="55px" height="46px" viewBox="0 0 55 46" version="1.1" xmlns="http://www.w3.org/2000/svg" xmlns:xlink="http://www.w3.org/1999/xlink">
    <!-- Generator: Sketch 52.6 (67491) - http://www.bohemiancoding.com/sketch -->
    <title>money (1)</title>
    <desc>Created with Sketch.</desc>
    <g id="Visual-Design-(desktop)" stroke="none" stroke-width="1" fill="none" fill-rule="evenodd">
        <g id="Assign-Tasks" transform="translate(-920.000000, -1675.000000)" fill="#000000" fill-rule="nonzero">
            <g id="line1" transform="translate(135.000000, 1645.000000)">
                <g id="Group" transform="translate(785.000000, 30.000000)">
                    <g id="money-(1)" transform="translate(0.000000, -0.000000)">
                        <path d="M10.0833333,34.8333333 C9.57707231,34.8333333 9.16666667,34.4229277 9.16666667,33.9166667 C9.16666667,33.4104056 9.57707231,33 10.0833333,33 C10.5895944,33 11,33.4104056 11,33.9166667 C11,34.4229277 11.4104056,34.8333333 11.9166667,34.8333333 C12.4229277,34.8333333 12.8333333,34.4229277 12.8333333,33.9166667 C12.8285196,32.7554467 12.0948216,31.7224 11,31.3353333 L11,30.25 C11,29.743739 10.5895944,29.3333333 10.0833333,29.3333333 C9.57707231,29.3333333 9.16666667,29.743739 9.16666667,30.25 L9.16666667,31.3353333 C7.90483147,31.7797813 7.14753078,33.0695238 7.37422829,34.3879965 C7.6009258,35.7064692 8.74551585,36.6692016 10.0833333,36.6666667 C10.5895944,36.6666667 11,37.0770723 11,37.5833333 C11,38.0895944 10.5895944,38.5 10.0833333,38.5 C9.57707231,38.5 9.16666667,38.0895944 9.16666667,37.5833333 C9.16666667,37.0770723 8.75626102,36.6666667 8.25,36.6666667 C7.74373898,36.6666667 7.33333333,37.0770723 7.33333333,37.5833333 C7.33814711,38.7445533 8.07184504,39.7776 9.16666667,40.1646667 L9.16666667,41.25 C9.16666667,41.756261 9.57707231,42.1666667 10.0833333,42.1666667 C10.5895944,42.1666667 11,41.756261 11,41.25 L11,40.1646667 C12.2618352,39.7202187 13.0191359,38.4304762 12.7924384,37.1120035 C12.5657409,35.7935308 11.4211508,34.8307984 10.0833333,34.8333333 Z" id="Path"></path>
                        <path d="M33,26.5833333 L33,24.75 C33,23.2312169 31.7687831,22 30.25,22 L30.0813333,22 C30.1899013,21.7064311 30.2469618,21.3963197 30.25,21.0833333 L30.25,19.25 C30.2489941,18.8992236 30.1805282,18.5519148 30.0483333,18.227 C31.2447783,17.9048571 32.078033,16.8223767 32.0833333,15.5833333 L32.0833333,13.75 C32.0833333,12.2312169 30.8521164,11 29.3333333,11 L14.6666667,11 C13.1478836,11 11.9166667,12.2312169 11.9166667,13.75 L11.9166667,15.5833333 C11.9176725,15.9341097 11.9861384,16.2814186 12.1183333,16.6063333 C10.9218884,16.9284762 10.0886337,18.0109566 10.0833333,19.25 L10.0833333,21.0833333 C10.0833333,22.6021164 11.3145503,23.8333333 12.8333333,23.8333333 L13.002,23.8333333 C12.8934321,24.1269022 12.8363716,24.4370136 12.8333333,24.75 L12.8333333,25.6666667 L10.0833333,25.6666667 C4.51446211,25.6666667 4.07081776e-16,30.1811288 0,35.75 C-8.14163551e-16,41.3188712 4.51446211,45.8333333 10.0833333,45.8333333 L29.3333333,45.8333333 C30.8521164,45.8333333 32.0833333,44.6021164 32.0833333,43.0833333 L32.0833333,41.25 C32.0806349,40.7762647 31.9542408,40.3114504 31.7166667,39.9015833 C32.5138562,39.4001972 32.9982994,38.5250851 33,37.5833333 L33,35.75 C32.9982994,34.8082483 32.5138562,33.9331361 31.7166667,33.43175 C31.9542408,33.0218829 32.0806349,32.5570687 32.0833333,32.0833333 L32.0833333,30.25 C32.0806349,29.7762647 31.9542408,29.3114504 31.7166667,28.9015833 C32.5138562,28.4001972 32.9982994,27.5250851 33,26.5833333 Z M13.75,13.75 C13.75,13.243739 14.1604056,12.8333333 14.6666667,12.8333333 L29.3333333,12.8333333 C29.8395944,12.8333333 30.25,13.243739 30.25,13.75 L30.25,15.5833333 C30.25,16.0895944 29.8395944,16.5 29.3333333,16.5 L14.6666667,16.5 C14.1604056,16.5 13.75,16.0895944 13.75,15.5833333 L13.75,13.75 Z M12.8333333,22 C12.3270723,22 11.9166667,21.5895944 11.9166667,21.0833333 L11.9166667,19.25 C11.9166667,18.743739 12.3270723,18.3333333 12.8333333,18.3333333 L27.5,18.3333333 C28.006261,18.3333333 28.4166667,18.743739 28.4166667,19.25 L28.4166667,21.0833333 C28.4166667,21.5895944 28.006261,22 27.5,22 L12.8333333,22 Z M10.0833333,44 C5.52698415,44 1.83333333,40.3063492 1.83333333,35.75 C1.83333333,31.1936508 5.52698415,27.5 10.0833333,27.5 C14.6396825,27.5 18.3333333,31.1936508 18.3333333,35.75 C18.3282815,40.304255 14.6375883,43.9949481 10.0833333,44 Z M21.5224167,29.3333333 L29.3333333,29.3333333 C29.8395944,29.3333333 30.25,29.743739 30.25,30.25 L30.25,32.0833333 C30.25,32.5895944 29.8395944,33 29.3333333,33 L23.4428333,33 C23.0631377,31.6581283 22.4092238,30.4096054 21.5224167,29.3333333 Z M22,35.75 C21.9938973,39.2394675 19.7947236,42.3483279 16.5064167,43.516 C18.8243323,41.6032938 20.1667066,38.7551918 20.1667066,35.75 C20.1667066,32.7448082 18.8243323,29.8967062 16.5064167,27.984 C19.7947236,29.1516721 21.9938973,32.2605325 22,35.75 Z M30.25,43.0833333 C30.25,43.5895944 29.8395944,44 29.3333333,44 L19.5295833,44 C20.8747363,43.0545241 21.9698296,41.7961577 22.7205,40.3333333 L29.3333333,40.3333333 C29.8395944,40.3333333 30.25,40.743739 30.25,41.25 L30.25,43.0833333 Z M31.1666667,37.5833333 C31.1666667,38.0895944 30.756261,38.5 30.25,38.5 L23.4428333,38.5 C23.6996284,37.6058202 23.8310494,36.6803204 23.8333333,35.75 C23.8333333,35.4401667 23.8140833,35.1358333 23.7865833,34.8333333 L30.25,34.8333333 C30.756261,34.8333333 31.1666667,35.243739 31.1666667,35.75 L31.1666667,37.5833333 Z M31.1666667,26.5833333 C31.1666667,27.0895944 30.756261,27.5 30.25,27.5 L19.5295833,27.5 C18.0932946,26.4883984 16.4162464,25.8722689 14.6666667,25.7134167 L14.6666667,24.75 C14.6666667,24.243739 15.0770723,23.8333333 15.5833333,23.8333333 L30.25,23.8333333 C30.756261,23.8333333 31.1666667,24.243739 31.1666667,24.75 L31.1666667,26.5833333 Z" id="Shape"></path>
                        <path d="M55,2.75 C55,1.23121694 53.7687831,0 52.25,0 L37.5833333,0 C36.0645503,0 34.8333333,1.23121694 34.8333333,2.75 L34.8333333,4.58333333 C34.83572,5.26203237 35.0905939,5.91555519 35.5483333,6.41666667 C35.0905939,6.91777814 34.83572,7.57130096 34.8333333,8.25 L34.8333333,10.0833333 C34.8360318,10.5570687 34.9624259,11.0218829 35.2,11.43175 C34.4028105,11.9331361 33.9183672,12.8082483 33.9166667,13.75 L33.9166667,15.5833333 C33.9190534,16.2620324 34.1739273,16.9155552 34.6316667,17.4166667 C34.1739273,17.9177781 33.9190534,18.571301 33.9166667,19.25 L33.9166667,21.0833333 C33.9183672,22.0250851 34.4028105,22.9001972 35.2,23.4015833 C34.9624259,23.8114504 34.8360318,24.2762647 34.8333333,24.75 L34.8333333,26.5833333 C34.8360318,27.0570687 34.9624259,27.5218829 35.2,27.93175 C34.4028105,28.4331361 33.9183672,29.3082483 33.9166667,30.25 L33.9166667,32.0833333 C33.9183672,33.0250851 34.4028105,33.9001972 35.2,34.4015833 C34.9624259,34.8114504 34.8360318,35.2762647 34.8333333,35.75 L34.8333333,37.5833333 C34.8343392,37.9341097 34.9028051,38.2814186 35.035,38.6063333 C33.838555,38.9284762 33.0053004,40.0109566 33,41.25 L33,43.0833333 C33,44.6021164 34.2312169,45.8333333 35.75,45.8333333 L50.4166667,45.8333333 C51.9354497,45.8333333 53.1666667,44.6021164 53.1666667,43.0833333 L53.1666667,41.25 C53.1656608,40.8992236 53.0971949,40.5519148 52.965,40.227 C54.161445,39.9048571 54.9946996,38.8223767 55,37.5833333 L55,35.75 C54.9982994,34.8082483 54.5138562,33.9331361 53.7166667,33.43175 C53.9542408,33.0218829 54.0806349,32.5570687 54.0833333,32.0833333 L54.0833333,30.25 C54.0806349,29.7762647 53.9542408,29.3114504 53.7166667,28.9015833 C54.5138562,28.4001972 54.9982994,27.5250851 55,26.5833333 L55,24.75 C54.9982994,23.8082483 54.5138562,22.9331361 53.7166667,22.43175 C53.9542408,22.0218829 54.0806349,21.5570687 54.0833333,21.0833333 L54.0833333,19.25 C54.0809466,18.571301 53.8260727,17.9177781 53.3683333,17.4166667 C53.8260727,16.9155552 54.0809466,16.2620324 54.0833333,15.5833333 L54.0833333,13.75 C54.0806349,13.2762647 53.9542408,12.8114504 53.7166667,12.4015833 C54.5138562,11.9001972 54.9982994,11.0250851 55,10.0833333 L55,8.25 C54.9976133,7.57130096 54.7427394,6.91777814 54.285,6.41666667 C54.7427394,5.91555519 54.9976133,5.26203237 55,4.58333333 L55,2.75 Z M36.6666667,2.75 C36.6666667,2.24373898 37.0770723,1.83333333 37.5833333,1.83333333 L52.25,1.83333333 C52.756261,1.83333333 53.1666667,2.24373898 53.1666667,2.75 L53.1666667,4.58333333 C53.1666667,5.08959435 52.756261,5.5 52.25,5.5 L37.5833333,5.5 C37.0770723,5.5 36.6666667,5.08959435 36.6666667,4.58333333 L36.6666667,2.75 Z M53.1666667,8.25 L53.1666667,10.0833333 C53.1666667,10.5895944 52.756261,11 52.25,11 L37.5833333,11 C37.0770723,11 36.6666667,10.5895944 36.6666667,10.0833333 L36.6666667,8.25 C36.6666667,7.74373898 37.0770723,7.33333333 37.5833333,7.33333333 L52.25,7.33333333 C52.756261,7.33333333 53.1666667,7.74373898 53.1666667,8.25 Z M52.25,13.75 L52.25,15.5833333 C52.25,16.0895944 51.8395944,16.5 51.3333333,16.5 L36.6666667,16.5 C36.1604056,16.5 35.75,16.0895944 35.75,15.5833333 L35.75,13.75 C35.75,13.243739 36.1604056,12.8333333 36.6666667,12.8333333 L51.3333333,12.8333333 C51.8395944,12.8333333 52.25,13.243739 52.25,13.75 Z M52.25,19.25 L52.25,21.0833333 C52.25,21.5895944 51.8395944,22 51.3333333,22 L36.6666667,22 C36.1604056,22 35.75,21.5895944 35.75,21.0833333 L35.75,19.25 C35.75,18.743739 36.1604056,18.3333333 36.6666667,18.3333333 L51.3333333,18.3333333 C51.8395944,18.3333333 52.25,18.743739 52.25,19.25 Z M52.25,23.8333333 C52.756261,23.8333333 53.1666667,24.243739 53.1666667,24.75 L53.1666667,26.5833333 C53.1666667,27.0895944 52.756261,27.5 52.25,27.5 L37.5833333,27.5 C37.0770723,27.5 36.6666667,27.0895944 36.6666667,26.5833333 L36.6666667,24.75 C36.6666667,24.243739 37.0770723,23.8333333 37.5833333,23.8333333 L52.25,23.8333333 Z M52.25,30.25 L52.25,32.0833333 C52.25,32.5895944 51.8395944,33 51.3333333,33 L36.6666667,33 C36.1604056,33 35.75,32.5895944 35.75,32.0833333 L35.75,30.25 C35.75,29.743739 36.1604056,29.3333333 36.6666667,29.3333333 L51.3333333,29.3333333 C51.8395944,29.3333333 52.25,29.743739 52.25,30.25 Z M51.3333333,43.0833333 C51.3333333,43.5895944 50.9229277,44 50.4166667,44 L35.75,44 C35.243739,44 34.8333333,43.5895944 34.8333333,43.0833333 L34.8333333,41.25 C34.8333333,40.743739 35.243739,40.3333333 35.75,40.3333333 L50.4166667,40.3333333 C50.9229277,40.3333333 51.3333333,40.743739 51.3333333,41.25 L51.3333333,43.0833333 Z M53.1666667,37.5833333 C53.1666667,38.0895944 52.756261,38.5 52.25,38.5 L37.5833333,38.5 C37.0770723,38.5 36.6666667,38.0895944 36.6666667,37.5833333 L36.6666667,35.75 C36.6666667,35.243739 37.0770723,34.8333333 37.5833333,34.8333333 L52.25,34.8333333 C52.756261,34.8333333 53.1666667,35.243739 53.1666667,35.75 L53.1666667,37.5833333 Z" id="Shape"></path>
                    </g>
                </g>
            </g>
        </g>
    </g>
</svg>