<?xml version="1.0" encoding="UTF-8"?>
<svg width="24px" height="22px" viewBox="0 0 24 22" version="1.1" xmlns="http://www.w3.org/2000/svg" xmlns:xlink="http://www.w3.org/1999/xlink">
    <!-- Generator: Sketch 52.6 (67491) - http://www.bohemiancoding.com/sketch -->
    <title>house-3</title>
    <desc>Created with Sketch.</desc>
    <g id="Page-1" stroke="none" stroke-width="1" fill="none" fill-rule="evenodd" stroke-linecap="round" stroke-linejoin="round">
        <g id="Account-Dashboard-(new)" transform="translate(-151.000000, -1130.000000)" stroke="#0093E0" stroke-width="1.5">
            <g id="community-copy" transform="translate(135.000000, 1012.000000)">
                <g id="house-3" transform="translate(16.000000, 119.000000)">
                    <path d="M2.25,7.4 L2.25,19.75 L6.75,19.75 L6.75,13.75 C6.75,12.9215729 7.42157288,12.25 8.25,12.25 L9.75,12.25 C10.5784271,12.25 11.25,12.9215729 11.25,13.75 L11.25,19.75 L21.75,19.75 L21.75,7.4" id="Path"></path>
                    <path d="M23.25,8.5 L12.887,0.9 C12.3590326,0.512854474 11.6409674,0.512854474 11.113,0.9 L0.75,8.5" id="Path"></path>
                    <polyline id="Path" points="15.75 3 15.75 0.25 20.25 0.25 20.25 6.3"></polyline>
                    <rect id="Rectangle" x="14.25" y="12.25" width="4.5" height="4.5"></rect>
                    <path d="M0.75,19.75 L23.25,19.75" id="Path"></path>
                </g>
            </g>
        </g>
    </g>
</svg>