<svg xmlns="http://www.w3.org/2000/svg" width="43" height="35" viewBox="0 0 43 35">
  <g id="Group_977" data-name="Group 977" transform="translate(-332 -100)">
    <path id="Rectangle_1245" data-name="Rectangle 1245" d="M2,0H43a0,0,0,0,1,0,0V35a0,0,0,0,1,0,0H2a2,2,0,0,1-2-2V2A2,2,0,0,1,2,0Z" transform="translate(332 100)" fill="#ebf1f6"/>
    <g id="Layer_2" transform="translate(343 109)">
      <g id="Group_900" data-name="Group 900">
        <path id="Path_158810" data-name="Path 158810" d="M5,7.18V1A1,1,0,0,0,3,1V7.18a2.988,2.988,0,0,0,.03,5.65A1.01,1.01,0,0,0,3,13v2a1,1,0,0,0,2,0V13a1.01,1.01,0,0,0-.03-.17A2.988,2.988,0,0,0,5,7.18ZM4,11a1,1,0,1,1,1-1A1,1,0,0,1,4,11Z" fill="#415661"/>
        <path id="Path_158811" data-name="Path 158811" d="M15,6a3.01,3.01,0,0,0-2-2.82V1a1,1,0,0,0-2,0V3.18a2.988,2.988,0,0,0,0,5.64V15a1,1,0,0,0,2,0V8.82A3.01,3.01,0,0,0,15,6ZM12,7a1,1,0,1,1,1-1A1,1,0,0,1,12,7Z" fill="#415661"/>
      </g>
    </g>
  </g>
</svg>
