<?xml version="1.0" encoding="UTF-8"?>
<svg width="58px" height="49px" viewBox="0 0 58 49" version="1.1" xmlns="http://www.w3.org/2000/svg" xmlns:xlink="http://www.w3.org/1999/xlink">
    <!-- Generator: Sketch 52.6 (67491) - http://www.bohemiancoding.com/sketch -->
    <title>quote-left</title>
    <desc>Created with Sketch.</desc>
    <g id="Page-1" stroke="none" stroke-width="1" fill="none" fill-rule="evenodd">
        <g id="Assign-Tasks" transform="translate(-185.000000, -1252.000000)" fill="#0093E0" fill-rule="nonzero">
            <g id="quote-left" transform="translate(185.000000, 1252.000000)">
                <path d="M20.2495075,22.2729489 L12.3745485,22.2729489 C11.4370006,22.2729489 10.6399495,21.9482252 9.98364132,21.298534 C9.32770258,20.6488429 8.99930224,19.8600715 8.99930224,18.9317323 L8.99930224,17.8186029 C8.99930224,15.3591623 9.87836112,13.2596725 11.6363558,11.5194022 C13.3942273,9.77974134 15.5154694,8.90954524 17.9997127,8.90954524 L20.2495075,8.90954524 C20.8587781,8.90954524 21.3859179,8.6890403 21.8314194,8.24839611 C22.2766746,7.80750813 22.4993022,7.28568301 22.4993022,6.68243319 L22.4993022,2.22747773 C22.4993022,1.6243498 22.2765515,1.10203711 21.8314194,0.66114913 C21.3860411,0.220870617 20.8589013,0 20.2495075,0 L17.9997127,0 C15.5620143,0 13.2363685,0.47026426 11.0212977,1.40945195 C8.80647324,2.34924911 6.890743,3.61962084 5.27336824,5.22068902 C3.6561166,6.82102584 2.37317578,8.71756333 1.4239301,10.9103015 C0.47468441,13.1027958 0,15.4056036 0,17.818481 L0,42.3179325 C0,44.1749766 0.655938743,45.751788 1.9684319,47.051536 C3.2810482,48.3505526 4.8751505,49 6.75,49 L20.2503694,49 C22.1250958,49 23.7187055,48.3505526 25.031445,47.051536 C26.3436919,45.751788 27,44.1749766 27,42.3179325 L27,28.9548945 C27,27.0982161 26.3436919,25.5214047 25.030583,24.2215348 C23.7184593,22.9226401 22.1242338,22.2729489 20.2495075,22.2729489 Z" id="Path"></path>
                <path d="M56.0324545,24.2215348 C54.7202649,22.9226401 53.126452,22.2729489 51.2511391,22.2729489 L43.3759082,22.2729489 C42.4388058,22.2729489 41.6409758,21.9482252 40.985743,21.298534 C40.3291557,20.6488429 40.0013546,19.8600715 40.0013546,18.9317323 L40.0013546,17.8186029 C40.0013546,15.3591623 40.8804575,13.2596725 42.6376784,11.5194022 C44.3950224,9.77974134 46.5162478,8.90954524 49.0018471,8.90954524 L51.2512622,8.90954524 C51.8606866,8.90954524 52.3882223,8.6890403 52.8333767,8.24839611 C53.2782848,7.80750813 53.5017855,7.28568301 53.5017855,6.68243319 L53.5017855,2.22747773 C53.5017855,1.6243498 53.2784079,1.10203711 52.8333767,0.66114913 C52.3883454,0.220870617 51.8608097,0 51.2512622,0 L49.0018471,0 C46.5626719,0 44.237402,0.47026426 42.0216044,1.40945195 C39.8070382,2.34924911 37.8918275,3.61962084 36.2743716,5.22068902 C34.6569157,6.82102584 33.3732948,8.71756333 32.424371,10.9103015 C31.4753239,13.1027958 31,15.4056036 31,17.818481 L31,42.3179325 C31,44.1749766 31.6565874,45.751788 32.9687769,47.051536 C34.2810897,48.3505526 35.8749025,49 37.7500924,49 L51.2504002,49 C53.1257132,49 54.7194029,48.3505526 56.0315925,47.051536 C57.3447672,45.751788 58,44.1749766 58,42.3179325 L58,28.9548945 C58.0001231,27.0980942 57.3447672,25.5214047 56.0324545,24.2215348 Z" id="Path"></path>
            </g>
        </g>
    </g>
</svg>