<svg xmlns="http://www.w3.org/2000/svg" width="32" height="27" viewBox="0 0 32 27">
  <g id="Group_864" data-name="Group 864" transform="translate(-223 -506)">
    <rect id="Rectangle_928" data-name="Rectangle 928" width="32" height="27" rx="2" transform="translate(223 506)" fill="#b2bbbf"/>
    <path id="Icon_awesome-star" data-name="Icon awesome-star" d="M7.69.465,5.982,3.93l-3.823.557A.838.838,0,0,0,1.7,5.916l2.766,2.7-.654,3.807a.837.837,0,0,0,1.214.882l3.42-1.8,3.42,1.8a.838.838,0,0,0,1.214-.882l-.654-3.807,2.766-2.7a.838.838,0,0,0-.463-1.429L10.9,3.93,9.192.465A.838.838,0,0,0,7.69.465Z" transform="translate(230.559 512.001)" fill="#fff"/>
  </g>
</svg>
