<?xml version="1.0" encoding="UTF-8"?>
<svg width="123px" height="112px" viewBox="0 0 123 112" version="1.1" xmlns="http://www.w3.org/2000/svg" xmlns:xlink="http://www.w3.org/1999/xlink">
    <!-- Generator: Sketch 63.1 (92452) - https://sketch.com -->
    <title>Group-Copy-9</title>
    <desc>Created with Sketch.</desc>
    <defs>
        <circle id="path-1" cx="30" cy="30" r="30"></circle>
        <path d="M21.835,15.07 C22.265,13.877 22.5,12.591 22.5,11.25 C22.5,5.0368 17.463,0 11.25,0 C5.0368,0 0,5.0368 0,11.25 C0,12.591 0.23467,13.877 0.66519,15.07 C3.82009,14.228 7.42349,13.75 11.25019,13.75 C15.07719,13.75 18.68019,14.228 21.83519,15.07 L21.835,15.07 Z" id="path-3"></path>
    </defs>
    <g id="Visual-Design-(desktop)" stroke="none" stroke-width="1" fill="none" fill-rule="evenodd">
        <g id="Finance" transform="translate(-335.000000, -1663.000000)">
            <g id="Group-Copy-9" transform="translate(335.000000, 1663.000000)">
                <path d="M17,48.356 C20.586,27.148 38.973,11 61.119,11 C84.442,11 103.6,28.914 105.68,51.785" id="Stroke-2-Copy" stroke="#2D404F" stroke-width="2" stroke-dasharray="1.009,5.043"></path>
                <path d="M16,64.428 C19.586,85.637 37.973,101.78 60.119,101.78 C83.442,101.78 102.6,83.87 104.68,61" id="Stroke-4-Copy" stroke="#2D404F" stroke-width="2" stroke-dasharray="1.009,5.043"></path>
                <g id="Group-Copy" transform="translate(44.000000, 0.000000)">
                    <path d="M34.6192,23.845 C34.6192,24.951 33.725,25.85 32.622,25.85 L1.997,25.85 C0.8939,25.85 -2.22044605e-16,24.951 -2.22044605e-16,23.845 L-2.22044605e-16,9.154 C-2.22044605e-16,8.0467 0.89391,7.15 1.9972,7.15 L32.6222,7.15 C33.7252,7.15 34.6192,8.0467 34.6192,9.1541 L34.6192,23.8451" id="Fill-34-Copy" fill="#4A914F"></path>
                    <path d="M24.019,15.945 C24.019,19.725 20.964,22.789 17.195,22.789 C13.425,22.789 10.37,19.725 10.37,15.945 C10.37,12.164 13.425,9.1 17.195,9.1 C20.964,9.1 24.019,12.164 24.019,15.945" id="Fill-35-Copy" fill="#51A75D"></path>
                    <path d="M16.529,21.455 L16.529,20.347 C15.639,20.311 14.76,20.059 14.259,19.762 L14.651,18.318 C15.211,18.616 16.007,18.904 16.886,18.904 C17.588,18.904 18.111,18.665 18.111,18.175 C18.111,17.734 17.706,17.472 16.733,17.21 C15.342,16.827 14.343,16.22 14.343,14.992 C14.343,13.883 15.152,13.036 16.555,12.81 L16.555,11.7 L17.778,11.7 L17.778,12.737 C18.67,12.774 19.241,12.965 19.68,13.154 L19.301,14.562 C18.979,14.419 18.336,14.11 17.363,14.11 C16.529,14.11 16.293,14.454 16.293,14.766 C16.293,15.146 16.792,15.41 17.873,15.742 C19.419,16.209 20.061,16.853 20.061,18.008 C20.061,19.07 19.276,20.024 17.754,20.263 L17.754,21.455 L16.529,21.455" id="Fill-36-Copy" fill="#69B96D"></path>
                    <path d="M5.4772,10.547 C5.4772,11.348 4.8324,11.994 4.0345,11.994 C3.2388,11.994 2.5926,11.348 2.5926,10.547 C2.5926,9.7482 3.2388,9.1 4.0345,9.1 C4.8324,9.1 5.4772,9.7482 5.4772,10.547" id="Fill-37-Copy" fill="#51A75D"></path>
                    <path d="M32.052,22.247 C32.052,23.047 31.406,23.694 30.61,23.694 C29.813,23.694 29.167,23.047 29.167,22.247 C29.167,21.448 29.813,20.8 30.61,20.8 C31.406,20.8 32.052,21.448 32.052,22.247" id="Fill-38-Copy" fill="#51A75D"></path>
                    <path d="M29.167,10.547 C29.167,11.348 29.813,11.994 30.61,11.994 C31.406,11.994 32.052,11.348 32.052,10.547 C32.052,9.7482 31.406,9.1 30.61,9.1 C29.813,9.1 29.167,9.7482 29.167,10.547" id="Fill-39-Copy" fill="#51A75D"></path>
                    <path d="M2.5926,22.247 C2.5926,23.047 3.2381,23.694 4.0345,23.694 C4.8324,23.694 5.4772,23.047 5.4772,22.247 C5.4772,21.448 4.8324,20.8 4.0345,20.8 C3.2381,20.8 2.5926,21.448 2.5926,22.247" id="Fill-40-Copy" fill="#51A75D"></path>
                    <path d="M34.62,20.593 C34.62,21.7 33.726,22.598 32.623,22.598 L1.998,22.598 C0.8946,22.598 -2.44249065e-15,21.7 -2.44249065e-15,20.593 L-2.44249065e-15,5.903 C-2.44249065e-15,4.7967 0.89463,3.9 1.9979,3.9 L32.6229,3.9 C33.7259,3.9 34.62,4.7967 34.62,5.9026 L34.62,20.5926" id="Fill-41-Copy" fill="#51A75D"></path>
                    <path d="M23.371,12.694 C23.371,16.475 20.316,19.54 16.546,19.54 C12.777,19.54 9.7222,16.475 9.7222,12.694 C9.7222,8.9145 12.777,5.85 16.546,5.85 C20.316,5.85 23.371,8.9145 23.371,12.694" id="Fill-42-Copy" fill="#51A75D"></path>
                    <path d="M15.881,17.553 L15.881,16.446 C14.99,16.41 14.111,16.159 13.611,15.861 L14.003,14.419 C14.562,14.717 15.358,15.003 16.239,15.003 C16.94,15.003 17.463,14.764 17.463,14.276 C17.463,13.833 17.058,13.571 16.085,13.31 C14.693,12.928 13.695,12.32 13.695,11.092 C13.695,9.9823 14.504,9.1349 15.907,8.9089 L15.907,7.8 L17.129,7.8 L17.129,8.8379 C18.021,8.8734 18.593,9.0646 19.032,9.2536 L18.652,10.662 C18.331,10.519 17.689,10.209 16.715,10.209 C15.881,10.209 15.644,10.554 15.644,10.865 C15.644,11.247 16.143,11.509 17.225,11.843 C18.771,12.307 19.412,12.952 19.412,14.108 C19.412,15.17 18.627,16.123 17.106,16.363 L17.106,17.553 L15.881,17.553" id="Fill-43-Copy" fill="#69B96D"></path>
                    <path d="M4.8291,7.2971 C4.8291,8.0967 4.1836,8.7435 3.3864,8.7435 C2.5907,8.7435 1.9444,8.0967 1.9444,7.2971 C1.9444,6.4968 2.5907,5.85 3.3864,5.85 C4.1836,5.85 4.8291,6.4968 4.8291,7.2971" id="Fill-44-Copy" fill="#51A75D"></path>
                    <path d="M31.403,18.347 C31.403,19.147 30.757,19.794 29.961,19.794 C29.164,19.794 28.519,19.147 28.519,18.347 C28.519,17.548 29.164,16.9 29.961,16.9 C30.757,16.9 31.403,17.548 31.403,18.347" id="Fill-45-Copy" fill="#51A75D"></path>
                    <path d="M28.519,7.2971 C28.519,8.0967 29.164,8.7435 29.961,8.7435 C30.757,8.7435 31.403,8.0967 31.403,7.2971 C31.403,6.4968 30.757,5.85 29.961,5.85 C29.164,5.85 28.519,6.4968 28.519,7.2971" id="Fill-46-Copy" fill="#51A75D"></path>
                    <path d="M1.9444,18.347 C1.9444,19.147 2.59,19.794 3.3864,19.794 C4.1836,19.794 4.8291,19.147 4.8291,18.347 C4.8291,17.548 4.1836,16.9 3.3864,16.9 C2.59,16.9 1.9444,17.548 1.9444,18.347" id="Fill-47-Copy" fill="#51A75D"></path>
                    <path d="M34.62,16.696 C34.62,17.801 33.726,18.698 32.623,18.698 L1.998,18.698 C0.8946,18.698 -2.44249065e-15,17.801 -2.44249065e-15,16.696 L-2.44249065e-15,2.004 C-2.44249065e-15,0.8967 0.89463,1.33226763e-15 1.9979,1.33226763e-15 L32.6229,1.33226763e-15 C33.7259,1.33226763e-15 34.62,0.89667 34.62,2.0041 L34.62,16.6961" id="Fill-48-Copy" fill="#69B96D"></path>
                    <path d="M23.371,9.4445 C23.371,13.224 20.316,16.29 16.546,16.29 C12.777,16.29 9.7222,13.224 9.7222,9.4445 C9.7222,5.6645 12.777,2.6 16.546,2.6 C20.316,2.6 23.371,5.6645 23.371,9.4445" id="Fill-49-Copy" fill="#51A75D"></path>
                    <path d="M15.881,14.304 L15.881,13.194 C14.99,13.16 14.111,12.909 13.611,12.611 L14.003,11.168 C14.562,11.468 15.358,11.752 16.239,11.752 C16.94,11.752 17.463,11.514 17.463,11.024 C17.463,10.583 17.058,10.32 16.085,10.06 C14.693,9.6765 13.695,9.0695 13.695,7.8419 C13.695,6.7315 14.504,5.8856 15.907,5.6589 L15.907,4.55 L17.129,4.55 L17.129,5.5865 C18.021,5.6219 18.593,5.8132 19.032,6.0044 L18.652,7.4117 C18.331,7.269 17.689,6.959 16.715,6.959 C15.881,6.959 15.644,7.3045 15.644,7.6137 C15.644,7.9962 16.143,8.2591 17.225,8.5915 C18.771,9.0565 19.412,9.7018 19.412,10.858 C19.412,11.92 18.627,12.872 17.106,13.111 L17.106,14.304 L15.881,14.304" id="Fill-50-Copy" fill="#69B96D"></path>
                    <path d="M4.8291,4.0471 C4.8291,4.846 4.1836,5.4928 3.3864,5.4928 C2.5907,5.4928 1.9444,4.846 1.9444,4.0471 C1.9444,3.2475 2.5907,2.6 3.3864,2.6 C4.1836,2.6 4.8291,3.2475 4.8291,4.0471" id="Fill-51-Copy" fill="#51A75D"></path>
                    <path d="M32.051,15.098 C32.051,15.897 31.405,16.545 30.609,16.545 C29.812,16.545 29.167,15.897 29.167,15.098 C29.167,14.298 29.812,13.65 30.609,13.65 C31.405,13.65 32.051,14.298 32.051,15.098" id="Fill-52-Copy" fill="#51A75D"></path>
                    <path d="M29.167,4.0471 C29.167,4.846 29.812,5.4928 30.609,5.4928 C31.405,5.4928 32.051,4.846 32.051,4.0471 C32.051,3.2475 31.405,2.6 30.609,2.6 C29.812,2.6 29.167,3.2475 29.167,4.0471" id="Fill-53-Copy" fill="#51A75D"></path>
                    <path d="M1.9444,15.098 C1.9444,15.897 2.59,16.545 3.3864,16.545 C4.1836,16.545 4.8291,15.897 4.8291,15.098 C4.8291,14.298 4.1836,13.65 3.3864,13.65 C2.59,13.65 1.9444,14.298 1.9444,15.098" id="Fill-54-Copy" fill="#51A75D"></path>
                </g>
                <g id="Group-Copy-2" transform="translate(0.500000, 30.000000)">
                    <path d="M34.6192,23.845 C34.6192,24.951 33.725,25.85 32.622,25.85 L1.997,25.85 C0.8939,25.85 -2.22044605e-16,24.951 -2.22044605e-16,23.845 L-2.22044605e-16,9.154 C-2.22044605e-16,8.0467 0.89391,7.15 1.9972,7.15 L32.6222,7.15 C33.7252,7.15 34.6192,8.0467 34.6192,9.1541 L34.6192,23.8451" id="Fill-34-Copy" fill="#4A914F"></path>
                    <path d="M24.019,15.945 C24.019,19.725 20.964,22.789 17.195,22.789 C13.425,22.789 10.37,19.725 10.37,15.945 C10.37,12.164 13.425,9.1 17.195,9.1 C20.964,9.1 24.019,12.164 24.019,15.945" id="Fill-35-Copy" fill="#51A75D"></path>
                    <path d="M16.529,21.455 L16.529,20.347 C15.639,20.311 14.76,20.059 14.259,19.762 L14.651,18.318 C15.211,18.616 16.007,18.904 16.886,18.904 C17.588,18.904 18.111,18.665 18.111,18.175 C18.111,17.734 17.706,17.472 16.733,17.21 C15.342,16.827 14.343,16.22 14.343,14.992 C14.343,13.883 15.152,13.036 16.555,12.81 L16.555,11.7 L17.778,11.7 L17.778,12.737 C18.67,12.774 19.241,12.965 19.68,13.154 L19.301,14.562 C18.979,14.419 18.336,14.11 17.363,14.11 C16.529,14.11 16.293,14.454 16.293,14.766 C16.293,15.146 16.792,15.41 17.873,15.742 C19.419,16.209 20.061,16.853 20.061,18.008 C20.061,19.07 19.276,20.024 17.754,20.263 L17.754,21.455 L16.529,21.455" id="Fill-36-Copy" fill="#69B96D"></path>
                    <path d="M5.4772,10.547 C5.4772,11.348 4.8324,11.994 4.0345,11.994 C3.2388,11.994 2.5926,11.348 2.5926,10.547 C2.5926,9.7482 3.2388,9.1 4.0345,9.1 C4.8324,9.1 5.4772,9.7482 5.4772,10.547" id="Fill-37-Copy" fill="#51A75D"></path>
                    <path d="M32.052,22.247 C32.052,23.047 31.406,23.694 30.61,23.694 C29.813,23.694 29.167,23.047 29.167,22.247 C29.167,21.448 29.813,20.8 30.61,20.8 C31.406,20.8 32.052,21.448 32.052,22.247" id="Fill-38-Copy" fill="#51A75D"></path>
                    <path d="M29.167,10.547 C29.167,11.348 29.813,11.994 30.61,11.994 C31.406,11.994 32.052,11.348 32.052,10.547 C32.052,9.7482 31.406,9.1 30.61,9.1 C29.813,9.1 29.167,9.7482 29.167,10.547" id="Fill-39-Copy" fill="#51A75D"></path>
                    <path d="M2.5926,22.247 C2.5926,23.047 3.2381,23.694 4.0345,23.694 C4.8324,23.694 5.4772,23.047 5.4772,22.247 C5.4772,21.448 4.8324,20.8 4.0345,20.8 C3.2381,20.8 2.5926,21.448 2.5926,22.247" id="Fill-40-Copy" fill="#51A75D"></path>
                    <path d="M34.62,20.593 C34.62,21.7 33.726,22.598 32.623,22.598 L1.998,22.598 C0.8946,22.598 -2.44249065e-15,21.7 -2.44249065e-15,20.593 L-2.44249065e-15,5.903 C-2.44249065e-15,4.7967 0.89463,3.9 1.9979,3.9 L32.6229,3.9 C33.7259,3.9 34.62,4.7967 34.62,5.9026 L34.62,20.5926" id="Fill-41-Copy" fill="#51A75D"></path>
                    <path d="M23.371,12.694 C23.371,16.475 20.316,19.54 16.546,19.54 C12.777,19.54 9.7222,16.475 9.7222,12.694 C9.7222,8.9145 12.777,5.85 16.546,5.85 C20.316,5.85 23.371,8.9145 23.371,12.694" id="Fill-42-Copy" fill="#51A75D"></path>
                    <path d="M15.881,17.553 L15.881,16.446 C14.99,16.41 14.111,16.159 13.611,15.861 L14.003,14.419 C14.562,14.717 15.358,15.003 16.239,15.003 C16.94,15.003 17.463,14.764 17.463,14.276 C17.463,13.833 17.058,13.571 16.085,13.31 C14.693,12.928 13.695,12.32 13.695,11.092 C13.695,9.9823 14.504,9.1349 15.907,8.9089 L15.907,7.8 L17.129,7.8 L17.129,8.8379 C18.021,8.8734 18.593,9.0646 19.032,9.2536 L18.652,10.662 C18.331,10.519 17.689,10.209 16.715,10.209 C15.881,10.209 15.644,10.554 15.644,10.865 C15.644,11.247 16.143,11.509 17.225,11.843 C18.771,12.307 19.412,12.952 19.412,14.108 C19.412,15.17 18.627,16.123 17.106,16.363 L17.106,17.553 L15.881,17.553" id="Fill-43-Copy" fill="#69B96D"></path>
                    <path d="M4.8291,7.2971 C4.8291,8.0967 4.1836,8.7435 3.3864,8.7435 C2.5907,8.7435 1.9444,8.0967 1.9444,7.2971 C1.9444,6.4968 2.5907,5.85 3.3864,5.85 C4.1836,5.85 4.8291,6.4968 4.8291,7.2971" id="Fill-44-Copy" fill="#51A75D"></path>
                    <path d="M31.403,18.347 C31.403,19.147 30.757,19.794 29.961,19.794 C29.164,19.794 28.519,19.147 28.519,18.347 C28.519,17.548 29.164,16.9 29.961,16.9 C30.757,16.9 31.403,17.548 31.403,18.347" id="Fill-45-Copy" fill="#51A75D"></path>
                    <path d="M28.519,7.2971 C28.519,8.0967 29.164,8.7435 29.961,8.7435 C30.757,8.7435 31.403,8.0967 31.403,7.2971 C31.403,6.4968 30.757,5.85 29.961,5.85 C29.164,5.85 28.519,6.4968 28.519,7.2971" id="Fill-46-Copy" fill="#51A75D"></path>
                    <path d="M1.9444,18.347 C1.9444,19.147 2.59,19.794 3.3864,19.794 C4.1836,19.794 4.8291,19.147 4.8291,18.347 C4.8291,17.548 4.1836,16.9 3.3864,16.9 C2.59,16.9 1.9444,17.548 1.9444,18.347" id="Fill-47-Copy" fill="#51A75D"></path>
                    <path d="M34.62,16.696 C34.62,17.801 33.726,18.698 32.623,18.698 L1.998,18.698 C0.8946,18.698 -2.44249065e-15,17.801 -2.44249065e-15,16.696 L-2.44249065e-15,2.004 C-2.44249065e-15,0.8967 0.89463,1.33226763e-15 1.9979,1.33226763e-15 L32.6229,1.33226763e-15 C33.7259,1.33226763e-15 34.62,0.89667 34.62,2.0041 L34.62,16.6961" id="Fill-48-Copy" fill="#69B96D"></path>
                    <path d="M23.371,9.4445 C23.371,13.224 20.316,16.29 16.546,16.29 C12.777,16.29 9.7222,13.224 9.7222,9.4445 C9.7222,5.6645 12.777,2.6 16.546,2.6 C20.316,2.6 23.371,5.6645 23.371,9.4445" id="Fill-49-Copy" fill="#51A75D"></path>
                    <path d="M15.881,14.304 L15.881,13.194 C14.99,13.16 14.111,12.909 13.611,12.611 L14.003,11.168 C14.562,11.468 15.358,11.752 16.239,11.752 C16.94,11.752 17.463,11.514 17.463,11.024 C17.463,10.583 17.058,10.32 16.085,10.06 C14.693,9.6765 13.695,9.0695 13.695,7.8419 C13.695,6.7315 14.504,5.8856 15.907,5.6589 L15.907,4.55 L17.129,4.55 L17.129,5.5865 C18.021,5.6219 18.593,5.8132 19.032,6.0044 L18.652,7.4117 C18.331,7.269 17.689,6.959 16.715,6.959 C15.881,6.959 15.644,7.3045 15.644,7.6137 C15.644,7.9962 16.143,8.2591 17.225,8.5915 C18.771,9.0565 19.412,9.7018 19.412,10.858 C19.412,11.92 18.627,12.872 17.106,13.111 L17.106,14.304 L15.881,14.304" id="Fill-50-Copy" fill="#69B96D"></path>
                    <path d="M4.8291,4.0471 C4.8291,4.846 4.1836,5.4928 3.3864,5.4928 C2.5907,5.4928 1.9444,4.846 1.9444,4.0471 C1.9444,3.2475 2.5907,2.6 3.3864,2.6 C4.1836,2.6 4.8291,3.2475 4.8291,4.0471" id="Fill-51-Copy" fill="#51A75D"></path>
                    <path d="M32.051,15.098 C32.051,15.897 31.405,16.545 30.609,16.545 C29.812,16.545 29.167,15.897 29.167,15.098 C29.167,14.298 29.812,13.65 30.609,13.65 C31.405,13.65 32.051,14.298 32.051,15.098" id="Fill-52-Copy" fill="#51A75D"></path>
                    <path d="M29.167,4.0471 C29.167,4.846 29.812,5.4928 30.609,5.4928 C31.405,5.4928 32.051,4.846 32.051,4.0471 C32.051,3.2475 31.405,2.6 30.609,2.6 C29.812,2.6 29.167,3.2475 29.167,4.0471" id="Fill-53-Copy" fill="#51A75D"></path>
                    <path d="M1.9444,15.098 C1.9444,15.897 2.59,16.545 3.3864,16.545 C4.1836,16.545 4.8291,15.897 4.8291,15.098 C4.8291,14.298 4.1836,13.65 3.3864,13.65 C2.59,13.65 1.9444,14.298 1.9444,15.098" id="Fill-54-Copy" fill="#51A75D"></path>
                </g>
                <g id="Group-Copy-3" transform="translate(88.000000, 30.000000)">
                    <path d="M34.6192,23.845 C34.6192,24.951 33.725,25.85 32.622,25.85 L1.997,25.85 C0.8939,25.85 -2.22044605e-16,24.951 -2.22044605e-16,23.845 L-2.22044605e-16,9.154 C-2.22044605e-16,8.0467 0.89391,7.15 1.9972,7.15 L32.6222,7.15 C33.7252,7.15 34.6192,8.0467 34.6192,9.1541 L34.6192,23.8451" id="Fill-34-Copy" fill="#4A914F"></path>
                    <path d="M24.019,15.945 C24.019,19.725 20.964,22.789 17.195,22.789 C13.425,22.789 10.37,19.725 10.37,15.945 C10.37,12.164 13.425,9.1 17.195,9.1 C20.964,9.1 24.019,12.164 24.019,15.945" id="Fill-35-Copy" fill="#51A75D"></path>
                    <path d="M16.529,21.455 L16.529,20.347 C15.639,20.311 14.76,20.059 14.259,19.762 L14.651,18.318 C15.211,18.616 16.007,18.904 16.886,18.904 C17.588,18.904 18.111,18.665 18.111,18.175 C18.111,17.734 17.706,17.472 16.733,17.21 C15.342,16.827 14.343,16.22 14.343,14.992 C14.343,13.883 15.152,13.036 16.555,12.81 L16.555,11.7 L17.778,11.7 L17.778,12.737 C18.67,12.774 19.241,12.965 19.68,13.154 L19.301,14.562 C18.979,14.419 18.336,14.11 17.363,14.11 C16.529,14.11 16.293,14.454 16.293,14.766 C16.293,15.146 16.792,15.41 17.873,15.742 C19.419,16.209 20.061,16.853 20.061,18.008 C20.061,19.07 19.276,20.024 17.754,20.263 L17.754,21.455 L16.529,21.455" id="Fill-36-Copy" fill="#69B96D"></path>
                    <path d="M5.4772,10.547 C5.4772,11.348 4.8324,11.994 4.0345,11.994 C3.2388,11.994 2.5926,11.348 2.5926,10.547 C2.5926,9.7482 3.2388,9.1 4.0345,9.1 C4.8324,9.1 5.4772,9.7482 5.4772,10.547" id="Fill-37-Copy" fill="#51A75D"></path>
                    <path d="M32.052,22.247 C32.052,23.047 31.406,23.694 30.61,23.694 C29.813,23.694 29.167,23.047 29.167,22.247 C29.167,21.448 29.813,20.8 30.61,20.8 C31.406,20.8 32.052,21.448 32.052,22.247" id="Fill-38-Copy" fill="#51A75D"></path>
                    <path d="M29.167,10.547 C29.167,11.348 29.813,11.994 30.61,11.994 C31.406,11.994 32.052,11.348 32.052,10.547 C32.052,9.7482 31.406,9.1 30.61,9.1 C29.813,9.1 29.167,9.7482 29.167,10.547" id="Fill-39-Copy" fill="#51A75D"></path>
                    <path d="M2.5926,22.247 C2.5926,23.047 3.2381,23.694 4.0345,23.694 C4.8324,23.694 5.4772,23.047 5.4772,22.247 C5.4772,21.448 4.8324,20.8 4.0345,20.8 C3.2381,20.8 2.5926,21.448 2.5926,22.247" id="Fill-40-Copy" fill="#51A75D"></path>
                    <path d="M34.62,20.593 C34.62,21.7 33.726,22.598 32.623,22.598 L1.998,22.598 C0.8946,22.598 -2.44249065e-15,21.7 -2.44249065e-15,20.593 L-2.44249065e-15,5.903 C-2.44249065e-15,4.7967 0.89463,3.9 1.9979,3.9 L32.6229,3.9 C33.7259,3.9 34.62,4.7967 34.62,5.9026 L34.62,20.5926" id="Fill-41-Copy" fill="#51A75D"></path>
                    <path d="M23.371,12.694 C23.371,16.475 20.316,19.54 16.546,19.54 C12.777,19.54 9.7222,16.475 9.7222,12.694 C9.7222,8.9145 12.777,5.85 16.546,5.85 C20.316,5.85 23.371,8.9145 23.371,12.694" id="Fill-42-Copy" fill="#51A75D"></path>
                    <path d="M15.881,17.553 L15.881,16.446 C14.99,16.41 14.111,16.159 13.611,15.861 L14.003,14.419 C14.562,14.717 15.358,15.003 16.239,15.003 C16.94,15.003 17.463,14.764 17.463,14.276 C17.463,13.833 17.058,13.571 16.085,13.31 C14.693,12.928 13.695,12.32 13.695,11.092 C13.695,9.9823 14.504,9.1349 15.907,8.9089 L15.907,7.8 L17.129,7.8 L17.129,8.8379 C18.021,8.8734 18.593,9.0646 19.032,9.2536 L18.652,10.662 C18.331,10.519 17.689,10.209 16.715,10.209 C15.881,10.209 15.644,10.554 15.644,10.865 C15.644,11.247 16.143,11.509 17.225,11.843 C18.771,12.307 19.412,12.952 19.412,14.108 C19.412,15.17 18.627,16.123 17.106,16.363 L17.106,17.553 L15.881,17.553" id="Fill-43-Copy" fill="#69B96D"></path>
                    <path d="M4.8291,7.2971 C4.8291,8.0967 4.1836,8.7435 3.3864,8.7435 C2.5907,8.7435 1.9444,8.0967 1.9444,7.2971 C1.9444,6.4968 2.5907,5.85 3.3864,5.85 C4.1836,5.85 4.8291,6.4968 4.8291,7.2971" id="Fill-44-Copy" fill="#51A75D"></path>
                    <path d="M31.403,18.347 C31.403,19.147 30.757,19.794 29.961,19.794 C29.164,19.794 28.519,19.147 28.519,18.347 C28.519,17.548 29.164,16.9 29.961,16.9 C30.757,16.9 31.403,17.548 31.403,18.347" id="Fill-45-Copy" fill="#51A75D"></path>
                    <path d="M28.519,7.2971 C28.519,8.0967 29.164,8.7435 29.961,8.7435 C30.757,8.7435 31.403,8.0967 31.403,7.2971 C31.403,6.4968 30.757,5.85 29.961,5.85 C29.164,5.85 28.519,6.4968 28.519,7.2971" id="Fill-46-Copy" fill="#51A75D"></path>
                    <path d="M1.9444,18.347 C1.9444,19.147 2.59,19.794 3.3864,19.794 C4.1836,19.794 4.8291,19.147 4.8291,18.347 C4.8291,17.548 4.1836,16.9 3.3864,16.9 C2.59,16.9 1.9444,17.548 1.9444,18.347" id="Fill-47-Copy" fill="#51A75D"></path>
                    <path d="M34.62,16.696 C34.62,17.801 33.726,18.698 32.623,18.698 L1.998,18.698 C0.8946,18.698 -2.44249065e-15,17.801 -2.44249065e-15,16.696 L-2.44249065e-15,2.004 C-2.44249065e-15,0.8967 0.89463,1.33226763e-15 1.9979,1.33226763e-15 L32.6229,1.33226763e-15 C33.7259,1.33226763e-15 34.62,0.89667 34.62,2.0041 L34.62,16.6961" id="Fill-48-Copy" fill="#69B96D"></path>
                    <path d="M23.371,9.4445 C23.371,13.224 20.316,16.29 16.546,16.29 C12.777,16.29 9.7222,13.224 9.7222,9.4445 C9.7222,5.6645 12.777,2.6 16.546,2.6 C20.316,2.6 23.371,5.6645 23.371,9.4445" id="Fill-49-Copy" fill="#51A75D"></path>
                    <path d="M15.881,14.304 L15.881,13.194 C14.99,13.16 14.111,12.909 13.611,12.611 L14.003,11.168 C14.562,11.468 15.358,11.752 16.239,11.752 C16.94,11.752 17.463,11.514 17.463,11.024 C17.463,10.583 17.058,10.32 16.085,10.06 C14.693,9.6765 13.695,9.0695 13.695,7.8419 C13.695,6.7315 14.504,5.8856 15.907,5.6589 L15.907,4.55 L17.129,4.55 L17.129,5.5865 C18.021,5.6219 18.593,5.8132 19.032,6.0044 L18.652,7.4117 C18.331,7.269 17.689,6.959 16.715,6.959 C15.881,6.959 15.644,7.3045 15.644,7.6137 C15.644,7.9962 16.143,8.2591 17.225,8.5915 C18.771,9.0565 19.412,9.7018 19.412,10.858 C19.412,11.92 18.627,12.872 17.106,13.111 L17.106,14.304 L15.881,14.304" id="Fill-50-Copy" fill="#69B96D"></path>
                    <path d="M4.8291,4.0471 C4.8291,4.846 4.1836,5.4928 3.3864,5.4928 C2.5907,5.4928 1.9444,4.846 1.9444,4.0471 C1.9444,3.2475 2.5907,2.6 3.3864,2.6 C4.1836,2.6 4.8291,3.2475 4.8291,4.0471" id="Fill-51-Copy" fill="#51A75D"></path>
                    <path d="M32.051,15.098 C32.051,15.897 31.405,16.545 30.609,16.545 C29.812,16.545 29.167,15.897 29.167,15.098 C29.167,14.298 29.812,13.65 30.609,13.65 C31.405,13.65 32.051,14.298 32.051,15.098" id="Fill-52-Copy" fill="#51A75D"></path>
                    <path d="M29.167,4.0471 C29.167,4.846 29.812,5.4928 30.609,5.4928 C31.405,5.4928 32.051,4.846 32.051,4.0471 C32.051,3.2475 31.405,2.6 30.609,2.6 C29.812,2.6 29.167,3.2475 29.167,4.0471" id="Fill-53-Copy" fill="#51A75D"></path>
                    <path d="M1.9444,15.098 C1.9444,15.897 2.59,16.545 3.3864,16.545 C4.1836,16.545 4.8291,15.897 4.8291,15.098 C4.8291,14.298 4.1836,13.65 3.3864,13.65 C2.59,13.65 1.9444,14.298 1.9444,15.098" id="Fill-54-Copy" fill="#51A75D"></path>
                </g>
                <g id="Imported-Layers-Copy-8" transform="translate(30.000000, 52.000000)">
                    <g id="Oval-17" transform="translate(30.000000, 30.000000) scale(-1, 1) translate(-30.000000, -30.000000) ">
                        <g id="Mask" fill="#AAD9DC">
                            <circle id="path-7" cx="30" cy="30" r="30"></circle>
                        </g>
                        <g id="Group-Clipped">
                            <mask id="mask-2" fill="white">
                                <use xlink:href="#path-1"></use>
                            </mask>
                            <g id="path-7"></g>
                            <g id="Group" mask="url(#mask-2)">
                                <g transform="translate(9.000000, 8.000000)">
                                    <g>
                                        <path d="M5.2234,25.727 C5.2234,25.727 3.1534,22.388 4.2002,16.926 C5.247,11.464 12.22,14.632 15.2012,22.435 C10.2232,24.355 5.2236,25.727 5.2236,25.727 L5.2234,25.727 Z" id="Path-2507-Copy" fill="#F48E88"></path>
                                        <ellipse id="Oval-17" fill="#F48E88" cx="34" cy="33.541" rx="31" ry="24.041"></ellipse>
                                        <g id="$" transform="translate(23.500000, 0.000000)">
                                            <g id="Mask" fill="#E6C83A">
                                                <path d="M21.835,15.07 C22.265,13.877 22.5,12.591 22.5,11.25 C22.5,5.0368 17.463,0 11.25,0 C5.0368,0 0,5.0368 0,11.25 C0,12.591 0.23467,13.877 0.66519,15.07 C3.82009,14.228 7.42349,13.75 11.25019,13.75 C15.07719,13.75 18.68019,14.228 21.83519,15.07 L21.835,15.07 Z" id="path-9"></path>
                                            </g>
                                            <g id="Clipped">
                                                <mask id="mask-4" fill="white">
                                                    <use xlink:href="#path-3"></use>
                                                </mask>
                                                <g id="path-9"></g>
                                                <g id="Group" mask="url(#mask-4)" fill="#CFB031" font-family="Helvetica" font-size="16.25" font-weight="normal">
                                                    <g transform="translate(11.000000, 11.000000) scale(-1, 1) translate(-11.000000, -11.000000) translate(5.500000, 1.000000)" id="$">
                                                        <text>
                                                            <tspan x="0.25" y="16">$</tspan>
                                                        </text>
                                                    </g>
                                                </g>
                                            </g>
                                        </g>
                                        <path d="M21.139,27.727 C21.139,27.727 19.046,24.35 20.104,18.827 C21.163,13.303 28.215,16.507 31.229,24.398 C26.195,26.34 21.139,27.727 21.139,27.727 L21.139,27.727 Z" id="Path-2507" fill="#CE625C"></path>
                                        <path d="M15.569,32.543 C15.569,32.996 15.937,33.363 16.39,33.363 C16.844,33.363 17.211,32.996 17.211,32.543 L17.211,30.459 C17.211,30.004 16.844,29.637 16.39,29.637 C15.937,29.637 15.569,30.004 15.569,30.459 L15.569,32.543" id="Fill-9-Copy" fill="#283541"></path>
                                        <path d="M8.57,31.543 C8.57,31.996 8.938,32.363 9.3911,32.363 C9.845,32.363 10.212,31.996 10.212,31.543 L10.212,29.459 C10.212,29.004 9.845,28.637 9.3911,28.637 C8.938,28.637 8.57,29.004 8.57,29.459 L8.57,31.543" id="Fill-9-Copy-2" fill="#283541"></path>
                                        <g id="Oval-20-+-Oval-20-Copy" transform="translate(0.000000, 34.000000)" fill="#FFB7B3">
                                            <ellipse id="Oval-20-Copy" cx="7.6966" cy="8.2173" rx="7.6532" ry="8.125"></ellipse>
                                        </g>
                                        <path d="M8.4993,46.03 C8.9531,46.03 9.3204,45.413 9.3204,44.653 L9.3204,41.154 C9.3204,40.39 8.9531,39.773 8.4993,39.773 C8.0462,39.773 7.6781,40.39 7.6781,41.154 L7.6781,44.653 C7.6781,45.413 8.0462,46.03 8.4993,46.03 Z" id="Fill-9-Copy-4" fill="#CE625C"></path>
                                        <path d="M2.6796,43.653 C2.6796,44.413 3.0476,45.03 3.5007,45.03 C3.9546,45.03 4.3219,44.413 4.3219,43.653 L4.3219,40.154 C4.3219,39.39 3.9546,38.773 3.5007,38.773 C3.0476,38.773 2.6796,39.39 2.6796,40.154 L2.6796,43.653" id="Fill-9-Copy-3" fill="#CE625C"></path>
                                    </g>
                                </g>
                            </g>
                        </g>
                    </g>
                </g>
            </g>
        </g>
    </g>
</svg>