<?xml version="1.0" encoding="UTF-8"?>
<svg width="133px" height="108px" viewBox="0 0 133 108" version="1.1" xmlns="http://www.w3.org/2000/svg" xmlns:xlink="http://www.w3.org/1999/xlink">
    <!-- Generator: Sketch 63.1 (92452) - https://sketch.com -->
    <title>Imported-Layers-Copy-5</title>
    <desc>Created with Sketch.</desc>
    <g id="Visual-Design-(desktop)" stroke="none" stroke-width="1" fill="none" fill-rule="evenodd">
        <g id="Finance" transform="translate(-972.000000, -1664.000000)">
            <g id="Imported-Layers-Copy-5" transform="translate(972.000000, 1664.000000)">
                <path d="M20.983,92.793 C19.66,92.793 18.582,91.719 18.582,90.402 L18.582,37.008 C18.582,35.689 19.66,34.616 20.983,34.616 L113.51,34.616 C114.83,34.616 115.91,35.689 115.91,37.008 L115.91,90.402 C115.91,91.719 114.83,92.793 113.51,92.793 L20.983,92.793" id="Fill-1" fill="#283541"></path>
                <path d="M21.207,37.23 L113.29,37.23 L113.29,90.178 L21.207,90.178 L21.207,37.23 Z M113.51,32.002 L20.983,32.002 C18.209,32.002 15.957,34.244 15.957,37.008 L15.957,90.402 C15.957,93.165 18.209,95.406 20.983,95.406 L113.51,95.406 C116.29,95.406 118.54,93.165 118.54,90.402 L118.54,37.008 C118.54,34.244 116.29,32.002 113.51,32.002 Z" id="Fill-2" fill="#161F2B" fill-rule="nonzero"></path>
                <path d="M132.570256,103.6 C132.570256,103.6 132.78,107.83 121.17,107.83 L11.86,107.83 C0.252,107.83 0.84,103.6 0.84,103.6 L132.570256,103.6" id="Fill-3" fill="#9D9D9A"></path>
                <polyline id="Fill-4" fill="#B7B7B3" points="132.26 103.81 116.32 95.403 16.774 95.507 0.84 103.92 132.26 103.81"></polyline>
                <polyline id="Fill-5" fill="#7B7D7A" points="120.75 101.45 12.38 101.35 18.342 98.116 115.11 98.116 120.75 101.45"></polyline>
                <polygon id="Fill-6" fill="#ABDADC" points="59.41 50.889 84.828 50.889 84.828 54.387 59.41 54.387"></polygon>
                <polygon id="Fill-7" fill="#FAF9F8" points="42.458 0.38131 91.882 0.38131 91.882 61.833 42.458 61.833"></polygon>
                <polygon id="Fill-8" fill="#ABDADC" points="59.41 18.044 84.828 18.044 84.828 21.542 59.41 21.542"></polygon>
                <polygon id="Fill-9" fill="#ABDADC" points="59.41 27.268 84.828 27.268 84.828 30.767 59.41 30.767"></polygon>
                <polygon id="Fill-10" fill="#ABDADC" points="59.41 36.494 84.828 36.494 84.828 39.991 59.41 39.991"></polygon>
                <path d="M50.47,22.944 L48.378,20.339 C48.163,20.072 48.206,19.682 48.475,19.469 C48.744,19.255 49.135,19.3 49.349,19.566 L50.574,21.089 L54.436,17.245 C54.679,17.002 55.072,17.002 55.315,17.245 C55.558,17.487 55.558,17.878 55.315,18.12 L50.47,22.944" id="Fill-11" fill="#78BE7E"></path>
                <polygon id="Fill-8-Copy" fill="#ABDADC" points="59.41 8.2871 84.828 8.2871 84.828 11.785 59.41 11.785"></polygon>
                <path d="M50.47,13.187 L48.378,10.582 C48.163,10.315 48.206,9.9252 48.475,9.7126 C48.744,9.4982 49.135,9.5427 49.349,9.8093 L50.574,11.332 L54.436,7.4882 C54.679,7.2451 55.072,7.2451 55.315,7.4882 C55.558,7.7304 55.558,8.1216 55.315,8.363 L50.47,13.187" id="Fill-11-Copy" fill="#78BE7E"></path>
                <path d="M50.47,32.28 L48.378,29.676 C48.163,29.408 48.206,29.019 48.475,28.805 C48.744,28.592 49.135,28.636 49.349,28.901 L50.574,30.426 L54.436,26.58 C54.679,26.339 55.072,26.339 55.315,26.58 C55.558,26.822 55.558,27.214 55.315,27.457 L50.47,32.28" id="Fill-12" fill="#78BE7E"></path>
                <path d="M50.47,41.616 L48.378,39.011 C48.163,38.743 48.206,38.354 48.475,38.14 C48.744,37.926 49.135,37.97 49.349,38.238 L50.574,39.761 L54.436,35.917 C54.679,35.674 55.072,35.674 55.315,35.917 C55.558,36.158 55.558,36.549 55.315,36.792 L50.47,41.616" id="Fill-13" fill="#78BE7E"></path>
                <polygon id="Fill-14" fill="#ABDADC" points="59.41 56.052 84.828 56.052 84.828 59.551 59.41 59.551"></polygon>
                <path d="M50.47,61.287 L48.378,58.683 C48.163,58.416 48.206,58.026 48.475,57.811 C48.744,57.599 49.135,57.643 49.349,57.909 L50.574,59.434 L54.436,55.588 C54.679,55.346 55.072,55.346 55.315,55.588 C55.558,55.829 55.558,56.22 55.315,56.464 L50.47,61.287" id="Fill-15" fill="#78BE7E"></path>
                <polyline id="Fill-16" fill="#B7B7B3" points="91.162 95.34 91.162 66.535 66.816 47.147 43.43 65.899 43.43 95.34 91.162 95.34"></polyline>
                <polyline id="Fill-17" fill="#F1EFED" points="96.381 71.338 66.832 48.038 38.392 70.843 35.055 66.35 67.288 39.388 99.803 67.123 96.381 71.338"></polyline>
                <polyline id="Fill-18" fill="#F1EFED" points="47.903 95.363 49.041 95.363 49.041 94.073 47.903 94.073 47.903 68.336 48.911 68.336 48.911 66.483 47.903 66.483 47.903 65.576 41.373 65.576 41.373 66.483 39.847 66.483 39.847 68.336 41.373 68.336 41.373 94.073 39.976 94.073 39.976 95.363 41.373 95.363"></polyline>
                <polyline id="Fill-19" fill="#F1EFED" points="61.888 95.39 61.888 68.151 63.156 68.151 63.156 66.298 61.888 66.298 61.888 64.802 55.359 64.802 55.359 66.298 54.092 66.298 54.092 68.151 55.359 68.151 55.359 93.944 54.092 93.944 54.092 95.39 55.359 95.39"></polyline>
                <polyline id="Fill-20" fill="#F1EFED" points="79.241 95.39 80.638 95.39 80.638 93.944 79.241 93.944 79.241 68.336 80.508 68.336 80.508 66.483 79.241 66.483 79.241 65.576 72.711 65.576 72.711 66.483 71.444 66.483 71.444 68.336 72.711 68.336 72.711 95.44"></polyline>
                <polyline id="Fill-21" fill="#F1EFED" points="93.227 95.363 94.494 95.363 94.494 94.073 93.227 94.073 93.227 68.151 94.235 68.151 94.235 66.298 93.227 66.298 93.227 65.835 86.697 65.835 86.697 66.298 85.171 66.298 85.171 68.151 86.697 68.151 86.697 94.073 85.43 94.073 85.43 95.363 86.697 95.363"></polyline>
                <polygon id="Fill-22" fill="#EBEAE8" points="59.659 93.686 74.939 93.686 74.939 97.039 59.659 97.039"></polygon>
                <polyline id="Fill-23" fill="#9D9D9A" points="90.682 66.608 67.17 45.977 43.259 66.608 90.682 66.608"></polyline>
                <polygon id="Fill-24" fill="#9D9D9A" points="64.062 84.145 70.278 84.145 70.278 93.558 64.062 93.558"></polygon>
                <path d="M74.484,56.598 C74.484,60.274 71.491,63.254 67.798,63.254 C64.106,63.254 61.113,60.274 61.113,56.598 C61.113,52.92 64.106,49.939 67.798,49.939 C71.491,49.939 74.484,52.92 74.484,56.598" id="Fill-25" fill="#283541"></path>
                <path d="M67.084,61.435 L67.084,60.352 C66.266,60.316 65.471,60.097 65.015,59.863 L65.402,58.245 C65.927,58.5 66.651,58.756 67.447,58.756 C68.044,58.756 68.453,58.594 68.453,58.221 C68.453,57.861 68.114,57.639 67.237,57.372 C65.973,56.963 65.074,56.371 65.074,55.196 C65.074,54.134 65.81,53.297 67.143,53.03 L67.143,51.96 L68.476,51.96 L68.476,52.936 C69.282,52.972 69.832,53.135 70.24,53.309 L69.866,54.858 C69.551,54.729 68.989,54.462 68.101,54.462 C67.412,54.462 67.202,54.705 67.202,54.962 C67.202,55.251 67.599,55.473 68.582,55.823 C70.054,56.3 70.591,56.964 70.591,58.024 C70.591,59.106 69.821,60.003 68.417,60.247 L68.417,61.435 L67.084,61.435" id="Fill-26" fill="#EBEAE8"></path>
                <polygon id="Fill-27" fill="#F1EFED" points="41.271 64.745 96.436 64.745 96.436 66.921 41.271 66.921"></polygon>
            </g>
        </g>
    </g>
</svg>