<?xml version="1.0" encoding="UTF-8"?>
<svg width="130px" height="109px" viewBox="0 0 130 109" version="1.1" xmlns="http://www.w3.org/2000/svg" xmlns:xlink="http://www.w3.org/1999/xlink">
    <!-- Generator: Sketch 63.1 (92452) - https://sketch.com -->
    <title>Imported-Layers</title>
    <desc>Created with Sketch.</desc>
    <g id="Visual-Design-(desktop)" stroke="none" stroke-width="1" fill="none" fill-rule="evenodd">
        <g id="Finance" transform="translate(-655.000000, -1662.000000)">
            <g id="Imported-Layers" transform="translate(655.000000, 1662.000000)">
                <path d="M28.882,42.042 C31.805,24.816 46.795,11.7 64.851,11.7 C83.865,11.7 99.483,26.25 101.18,44.828" id="Stroke-2" stroke="#475965" stroke-width="2" stroke-dasharray="1.009,5.043"></path>
                <path d="M75.712,11.421 C75.712,17.729 70.6,22.843 64.292,22.843 C57.986,22.843 52.875,17.729 52.875,11.421 C52.875,5.1135 57.986,0 64.292,0 C70.6,0 75.712,5.1135 75.712,11.421" id="Fill-10" fill="#475965"></path>
                <polyline id="Fill-11" fill="#FFFFFF" points="60.399 14.49 57.808 8.0351 59.625 8.0351 61.308 12.526 63.005 8.0351 64.822 8.0351 62.229 14.49 60.399 14.49"></polyline>
                <path d="M65.025,13.648 L65.761,12.419 C66.242,12.873 67.19,13.313 67.992,13.313 C68.727,13.313 69.074,13.033 69.074,12.633 C69.074,11.577 65.253,12.445 65.253,9.9071 C65.253,8.824 66.188,7.8747 67.899,7.8747 C68.98,7.8747 69.849,8.2491 70.49,8.7561 L69.809,9.9595 C69.421,9.5583 68.686,9.2118 67.899,9.2118 C67.284,9.2118 66.883,9.4792 66.883,9.8391 C66.883,10.789 70.717,9.9862 70.717,12.593 C70.717,13.781 69.702,14.65 67.912,14.65 C66.789,14.65 65.707,14.277 65.025,13.648" id="Fill-12" fill="#FFFFFF"></path>
                <path d="M55.7802,74.815 C55.7802,76.517 54.401,77.899 52.7,77.899 L5.45,77.899 C3.7468,77.899 2.3676,76.517 2.3676,74.815 L2.3676,52.213 C2.3676,50.509 3.7468,49.13 5.4502,49.13 L52.7002,49.13 C54.4012,49.13 55.7802,50.509 55.7802,52.213 L55.7802,74.815" id="Fill-13" fill="#4A914F"></path>
                <path d="M39.346,63.259 C39.346,69.073 34.633,73.788 28.817,73.788 C23.002,73.788 18.288,69.073 18.288,63.259 C18.288,57.441 23.002,52.727 28.817,52.727 C34.633,52.727 39.346,57.441 39.346,63.259" id="Fill-14" fill="#51A75D"></path>
                <path d="M27.77,70.781 L27.77,69.073 C26.395,69.02 25.038,68.632 24.266,68.175 L24.871,65.952 C25.735,66.413 26.963,66.854 28.32,66.854 C29.402,66.854 30.208,66.486 30.208,65.733 C30.208,65.054 29.585,64.652 28.083,64.249 C25.936,63.659 24.395,62.725 24.395,60.837 C24.395,59.13 25.643,57.827 27.808,57.478 L27.808,55.772 L29.695,55.772 L29.695,57.367 C31.072,57.424 31.952,57.718 32.629,58.01 L32.044,60.175 C31.549,59.955 30.557,59.478 29.055,59.478 C27.77,59.478 27.404,60.01 27.404,60.488 C27.404,61.074 28.174,61.478 29.842,61.99 C32.227,62.708 33.217,63.698 33.217,65.477 C33.217,67.111 32.007,68.578 29.658,68.945 L29.658,70.781 L27.77,70.781" id="Fill-15" fill="#69B96D"></path>
                <path d="M10.755,54.523 C10.755,55.754 9.7604,56.749 8.5294,56.749 C7.3028,56.749 6.3046,55.754 6.3046,54.523 C6.3046,53.293 7.3028,52.297 8.5294,52.297 C9.7604,52.297 10.755,53.293 10.755,54.523" id="Fill-16" fill="#51A75D"></path>
                <path d="M51.843,71.991 C51.843,73.22 50.846,74.217 49.618,74.217 C48.39,74.217 47.391,73.22 47.391,71.991 C47.391,70.76 48.39,69.763 49.618,69.763 C50.846,69.763 51.843,70.76 51.843,71.991" id="Fill-17" fill="#51A75D"></path>
                <path d="M47.391,54.523 C47.391,55.754 48.39,56.749 49.618,56.749 C50.846,56.749 51.843,55.754 51.843,54.523 C51.843,53.293 50.846,52.297 49.618,52.297 C48.39,52.297 47.391,53.293 47.391,54.523" id="Fill-18" fill="#51A75D"></path>
                <path d="M6.3046,71.991 C6.3046,73.22 7.3006,74.217 8.5294,74.217 C9.7604,74.217 10.755,73.22 10.755,71.991 C10.755,70.76 9.7604,69.763 8.5294,69.763 C7.3006,69.763 6.3046,70.76 6.3046,71.991" id="Fill-19" fill="#51A75D"></path>
                <path d="M55.52,69.794 C55.52,71.496 54.142,72.878 52.439,72.878 L5.189,72.878 C3.4872,72.878 2.1069,71.496 2.1069,69.794 L2.1069,47.193 C2.1069,45.491 3.4872,44.111 5.1895,44.111 L52.4395,44.111 C54.1415,44.111 55.52,45.491 55.52,47.193 L55.52,69.794" id="Fill-20" fill="#51A75D"></path>
                <path d="M39.086,58.236 C39.086,64.052 34.374,68.767 28.557,68.767 C22.742,68.767 18.03,64.052 18.03,58.236 C18.03,52.42 22.742,47.707 28.557,47.707 C34.374,47.707 39.086,52.42 39.086,58.236" id="Fill-21" fill="#51A75D"></path>
                <path d="M27.509,65.757 L27.509,64.052 C26.134,63.999 24.779,63.611 24.008,63.154 L24.612,60.935 C25.474,61.394 26.704,61.833 28.061,61.833 C29.142,61.833 29.95,61.465 29.95,60.714 C29.95,60.033 29.325,59.631 27.823,59.228 C25.678,58.64 24.136,57.704 24.136,55.816 C24.136,54.11 25.384,52.806 27.548,52.457 L27.548,50.751 L29.435,50.751 L29.435,52.349 C30.811,52.403 31.692,52.697 32.37,52.989 L31.784,55.154 C31.289,54.934 30.298,54.457 28.796,54.457 C27.509,54.457 27.143,54.989 27.143,55.467 C27.143,56.055 27.914,56.458 29.584,56.971 C31.968,57.685 32.957,58.677 32.957,60.456 C32.957,62.09 31.746,63.557 29.4,63.924 L29.4,65.757 L27.509,65.757" id="Fill-22" fill="#69B96D"></path>
                <path d="M10.497,49.504 C10.497,50.733 9.4997,51.728 8.2709,51.728 C7.0421,51.728 6.0462,50.733 6.0462,49.504 C6.0462,48.272 7.0421,47.278 8.2709,47.278 C9.4997,47.278 10.497,48.272 10.497,49.504" id="Fill-23" fill="#51A75D"></path>
                <path d="M51.583,66.97 C51.583,68.199 50.586,69.196 49.359,69.196 C48.129,69.196 47.133,68.199 47.133,66.97 C47.133,65.74 48.129,64.743 49.359,64.743 C50.586,64.743 51.583,65.74 51.583,66.97" id="Fill-24" fill="#51A75D"></path>
                <path d="M47.133,49.504 C47.133,50.733 48.129,51.728 49.359,51.728 C50.586,51.728 51.583,50.733 51.583,49.504 C51.583,48.272 50.586,47.278 49.359,47.278 C48.129,47.278 47.133,48.272 47.133,49.504" id="Fill-25" fill="#51A75D"></path>
                <path d="M6.0462,66.97 C6.0462,68.199 7.041,69.196 8.2709,69.196 C9.4997,69.196 10.497,68.199 10.497,66.97 C10.497,65.74 9.4997,64.743 8.2709,64.743 C7.041,64.743 6.0462,65.74 6.0462,66.97" id="Fill-26" fill="#51A75D"></path>
                <path d="M55.52,64.303 C55.52,66.005 54.142,67.385 52.439,67.385 L5.189,67.385 C3.4872,67.385 2.1069,66.005 2.1069,64.303 L2.1069,41.702 C2.1069,39.998 3.4872,38.618 5.1895,38.618 L52.4395,38.618 C54.1415,38.618 55.52,39.998 55.52,41.702 L55.52,64.303" id="Fill-27" fill="#69B96D"></path>
                <path d="M55.7802,74.815 C55.7802,76.517 54.401,77.899 52.7,77.899 L5.45,77.899 C3.7468,77.899 2.3676,76.517 2.3676,74.815 L2.3676,52.213 C2.3676,50.509 3.7468,49.13 5.4502,49.13 L52.7002,49.13 C54.4012,49.13 55.7802,50.509 55.7802,52.213 L55.7802,74.815" id="Fill-13-Copy" fill="#4A914F"></path>
                <path d="M55.52,69.794 C55.52,71.496 54.142,72.878 52.439,72.878 L5.189,72.878 C3.4872,72.878 2.1069,71.496 2.1069,69.794 L2.1069,47.193 C2.1069,45.491 3.4872,44.111 5.1895,44.111 L52.4395,44.111 C54.1415,44.111 55.52,45.491 55.52,47.193 L55.52,69.794" id="Fill-20-Copy-2" fill="#51A75D"></path>
                <path d="M55.52,64.303 C55.52,66.005 54.142,67.385 52.439,67.385 L5.189,67.385 C3.4872,67.385 2.1069,66.005 2.1069,64.303 L2.1069,41.702 C2.1069,39.998 3.4872,38.618 5.1895,38.618 L52.4395,38.618 C54.1415,38.618 55.52,39.998 55.52,41.702 L55.52,64.303" id="Fill-27-Copy" fill="#69B96D"></path>
                <path d="M39.086,52.745 C39.086,58.56 34.374,63.276 28.557,63.276 C22.742,63.276 18.03,58.56 18.03,52.745 C18.03,46.929 22.742,42.216 28.557,42.216 C34.374,42.216 39.086,46.929 39.086,52.745" id="Fill-28" fill="#51A75D"></path>
                <path d="M27.509,60.266 L27.509,58.56 C26.134,58.506 24.779,58.12 24.008,57.661 L24.612,55.441 C25.474,55.903 26.704,56.341 28.061,56.341 C29.142,56.341 29.95,55.974 29.95,55.222 C29.95,54.542 29.325,54.138 27.823,53.738 C25.678,53.147 24.136,52.213 24.136,50.324 C24.136,48.616 25.384,47.315 27.548,46.966 L27.548,45.26 L29.435,45.26 L29.435,46.856 C30.811,46.91 31.692,47.203 32.37,47.498 L31.784,49.663 C31.289,49.443 30.298,48.966 28.796,48.966 C27.509,48.966 27.143,49.498 27.143,49.975 C27.143,50.562 27.914,50.966 29.584,51.478 C31.968,52.194 32.957,53.187 32.957,54.964 C32.957,56.599 31.746,58.063 29.4,58.431 L29.4,60.266 L27.509,60.266" id="Fill-29" fill="#69B96D"></path>
                <path d="M10.497,44.013 C10.497,45.243 9.4997,46.237 8.2709,46.237 C7.0421,46.237 6.0462,45.243 6.0462,44.013 C6.0462,42.784 7.0421,41.787 8.2709,41.787 C9.4997,41.787 10.497,42.784 10.497,44.013" id="Fill-30" fill="#51A75D"></path>
                <path d="M51.583,61.478 C51.583,62.708 50.586,63.705 49.359,63.705 C48.129,63.705 47.133,62.708 47.133,61.478 C47.133,60.248 48.129,59.252 49.359,59.252 C50.586,59.252 51.583,60.248 51.583,61.478" id="Fill-31" fill="#51A75D"></path>
                <path d="M47.133,44.013 C47.133,45.243 48.129,46.237 49.359,46.237 C50.586,46.237 51.583,45.243 51.583,44.013 C51.583,42.784 50.586,41.787 49.359,41.787 C48.129,41.787 47.133,42.784 47.133,44.013" id="Fill-32" fill="#51A75D"></path>
                <path d="M6.0462,61.478 C6.0462,62.708 7.041,63.705 8.2709,63.705 C9.4997,63.705 10.497,62.708 10.497,61.478 C10.497,60.248 9.4997,59.252 8.2709,59.252 C7.041,59.252 6.0462,60.248 6.0462,61.478" id="Fill-33" fill="#51A75D"></path>
                <path d="M128.08,74.552 C128.08,76.255 126.7,77.637 125,77.637 L77.745,77.637 C76.043,77.637 74.664,76.255 74.664,74.552 L74.664,51.951 C74.664,50.248 76.043,48.868 77.745,48.868 L125,48.868 C126.7,48.868 128.08,50.248 128.08,51.951 L128.08,74.552" id="Fill-34" fill="#4A914F"></path>
                <path d="M111.64,62.996 C111.64,68.812 106.93,73.525 101.11,73.525 C95.298,73.525 90.585,68.812 90.585,62.996 C90.585,57.18 95.298,52.465 101.11,52.465 C106.93,52.465 111.64,57.18 111.64,62.996" id="Fill-35" fill="#51A75D"></path>
                <path d="M100.07,70.518 L100.07,68.812 C98.692,68.757 97.335,68.369 96.563,67.912 L97.168,65.69 C98.031,66.15 99.26,66.592 100.62,66.592 C101.7,66.592 102.5,66.224 102.5,65.471 C102.5,64.792 101.88,64.389 100.38,63.987 C98.233,63.397 96.692,62.464 96.692,60.574 C96.692,58.868 97.94,57.564 100.1,57.216 L100.1,55.509 L101.99,55.509 L101.99,57.105 C103.37,57.162 104.25,57.456 104.93,57.747 L104.34,59.913 C103.84,59.692 102.85,59.216 101.35,59.216 C100.07,59.216 99.701,59.747 99.701,60.226 C99.701,60.811 100.47,61.217 102.14,61.728 C104.52,62.446 105.51,63.436 105.51,65.214 C105.51,66.848 104.3,68.316 101.95,68.683 L101.95,70.518 L100.07,70.518" id="Fill-36" fill="#69B96D"></path>
                <path d="M83.052,54.26 C83.052,55.493 82.057,56.486 80.826,56.486 C79.598,56.486 78.601,55.493 78.601,54.26 C78.601,53.031 79.598,52.034 80.826,52.034 C82.057,52.034 83.052,53.031 83.052,54.26" id="Fill-37" fill="#51A75D"></path>
                <path d="M124.14,71.728 C124.14,72.958 123.14,73.954 121.91,73.954 C120.68,73.954 119.69,72.958 119.69,71.728 C119.69,70.499 120.68,69.501 121.91,69.501 C123.14,69.501 124.14,70.499 124.14,71.728" id="Fill-38" fill="#51A75D"></path>
                <path d="M119.69,54.26 C119.69,55.493 120.68,56.486 121.91,56.486 C123.14,56.486 124.14,55.493 124.14,54.26 C124.14,53.031 123.14,52.034 121.91,52.034 C120.68,52.034 119.69,53.031 119.69,54.26" id="Fill-39" fill="#51A75D"></path>
                <path d="M78.601,71.728 C78.601,72.958 79.597,73.954 80.826,73.954 C82.057,73.954 83.052,72.958 83.052,71.728 C83.052,70.499 82.057,69.501 80.826,69.501 C79.597,69.501 78.601,70.499 78.601,71.728" id="Fill-40" fill="#51A75D"></path>
                <path d="M127.82,69.531 C127.82,71.234 126.44,72.616 124.74,72.616 L77.486,72.616 C75.784,72.616 74.403,71.234 74.403,69.531 L74.403,46.93 C74.403,45.229 75.784,43.849 77.486,43.849 L124.74,43.849 C126.44,43.849 127.82,45.229 127.82,46.93 L127.82,69.531" id="Fill-41" fill="#51A75D"></path>
                <path d="M111.38,57.973 C111.38,63.791 106.67,68.505 100.85,68.505 C95.039,68.505 90.325,63.791 90.325,57.973 C90.325,52.159 95.039,47.444 100.85,47.444 C106.67,47.444 111.38,52.159 111.38,57.973" id="Fill-42" fill="#51A75D"></path>
                <path d="M99.806,65.494 L99.806,63.791 C98.431,63.736 97.075,63.349 96.303,62.891 L96.908,60.672 C97.77,61.131 98.999,61.571 100.36,61.571 C101.44,61.571 102.25,61.203 102.25,60.452 C102.25,59.771 101.62,59.368 100.12,58.966 C97.973,58.379 96.432,57.443 96.432,55.554 C96.432,53.847 97.68,52.543 99.845,52.195 L99.845,50.489 L101.73,50.489 L101.73,52.086 C103.11,52.141 103.99,52.435 104.67,52.726 L104.08,54.892 C103.59,54.672 102.59,54.196 101.09,54.196 C99.806,54.196 99.439,54.726 99.439,55.205 C99.439,55.792 100.21,56.196 101.88,56.709 C104.26,57.422 105.25,58.415 105.25,60.194 C105.25,61.827 104.04,63.295 101.7,63.662 L101.7,65.494 L99.806,65.494" id="Fill-43" fill="#69B96D"></path>
                <path d="M82.792,49.241 C82.792,50.472 81.796,51.467 80.566,51.467 C79.339,51.467 78.341,50.472 78.341,49.241 C78.341,48.01 79.339,47.015 80.566,47.015 C81.796,47.015 82.792,48.01 82.792,49.241" id="Fill-44" fill="#51A75D"></path>
                <path d="M123.88,66.707 C123.88,67.937 122.88,68.933 121.66,68.933 C120.43,68.933 119.43,67.937 119.43,66.707 C119.43,65.478 120.43,64.48 121.66,64.48 C122.88,64.48 123.88,65.478 123.88,66.707" id="Fill-45" fill="#51A75D"></path>
                <path d="M119.43,49.241 C119.43,50.472 120.43,51.467 121.66,51.467 C122.88,51.467 123.88,50.472 123.88,49.241 C123.88,48.01 122.88,47.015 121.66,47.015 C120.43,47.015 119.43,48.01 119.43,49.241" id="Fill-46" fill="#51A75D"></path>
                <path d="M78.341,66.707 C78.341,67.937 79.337,68.933 80.566,68.933 C81.796,68.933 82.792,67.937 82.792,66.707 C82.792,65.478 81.796,64.48 80.566,64.48 C79.337,64.48 78.341,65.478 78.341,66.707" id="Fill-47" fill="#51A75D"></path>
                <path d="M127.82,64.041 C127.82,65.743 126.44,67.122 124.74,67.122 L77.486,67.122 C75.784,67.122 74.403,65.743 74.403,64.041 L74.403,41.439 C74.403,39.735 75.784,38.356 77.486,38.356 L124.74,38.356 C126.44,38.356 127.82,39.735 127.82,41.439 L127.82,64.041" id="Fill-48" fill="#69B96D"></path>
                <path d="M100.85,63.014 C95.039,63.014 90.325,58.297 90.325,52.483 C90.325,46.667 95.039,41.953 100.85,41.953 C106.67,41.953 111.38,46.667 111.38,52.483 C111.38,58.297 106.67,63.014 100.85,63.014 Z" id="Fill-49" fill="#51A75D"></path>
                <path d="M99.806,60.004 L99.806,58.297 C98.431,58.244 97.075,57.858 96.303,57.399 L96.908,55.179 C97.77,55.641 98.999,56.078 100.36,56.078 C101.44,56.078 102.25,55.712 102.25,54.959 C102.25,54.28 101.62,53.876 100.12,53.475 C97.973,52.885 96.432,51.951 96.432,50.063 C96.432,48.354 97.68,47.053 99.845,46.704 L99.845,44.998 L101.73,44.998 L101.73,46.593 C103.11,46.647 103.99,46.942 104.67,47.236 L104.08,49.401 C103.59,49.181 102.59,48.704 101.09,48.704 C99.806,48.704 99.439,49.236 99.439,49.712 C99.439,50.3 100.21,50.704 101.88,51.216 C104.26,51.931 105.25,52.924 105.25,54.703 C105.25,56.337 104.04,57.801 101.7,58.169 L101.7,60.004 L99.806,60.004" id="Fill-50" fill="#69B96D"></path>
                <path d="M82.792,43.751 C82.792,44.98 81.796,45.975 80.566,45.975 C79.339,45.975 78.341,44.98 78.341,43.751 C78.341,42.521 79.339,41.525 80.566,41.525 C81.796,41.525 82.792,42.521 82.792,43.751" id="Fill-51" fill="#51A75D"></path>
                <path d="M123.88,61.217 C123.88,62.446 122.88,63.443 121.66,63.443 C120.43,63.443 119.43,62.446 119.43,61.217 C119.43,59.986 120.43,58.989 121.66,58.989 C122.88,58.989 123.88,59.986 123.88,61.217" id="Fill-52" fill="#51A75D"></path>
                <path d="M119.43,43.751 C119.43,44.98 120.43,45.975 121.66,45.975 C122.88,45.975 123.88,44.98 123.88,43.751 C123.88,42.521 122.88,41.525 121.66,41.525 C120.43,41.525 119.43,42.521 119.43,43.751" id="Fill-53" fill="#51A75D"></path>
                <path d="M78.341,61.217 C78.341,62.446 79.337,63.443 80.566,63.443 C81.796,63.443 82.792,62.446 82.792,61.217 C82.792,59.986 81.796,58.989 80.566,58.989 C79.337,58.989 78.341,59.986 78.341,61.217" id="Fill-54" fill="#51A75D"></path>
                <polygon id="Fill-16-Copy" fill="#EAEEEF" points="0.1982 86.123 57.948 86.123 57.948 90.473 0.1982 90.473"></polygon>
                <polygon id="Fill-17-Copy" fill="#EAEEEF" points="0.1982 95.3 57.948 95.3 57.948 99.651 0.1982 99.651"></polygon>
                <polygon id="Fill-18-Copy" fill="#EAEEEF" points="0.1982 104.48 57.948 104.48 57.948 108.83 0.1982 108.83"></polygon>
                <polygon id="Fill-19-Copy" fill="#EAEEEF" points="71.695 86.123 129.44 86.123 129.44 90.473 71.695 90.473"></polygon>
                <polygon id="Fill-20-Copy" fill="#EAEEEF" points="71.695 95.3 129.44 95.3 129.44 99.651 71.695 99.651"></polygon>
                <polygon id="Fill-21-Copy" fill="#EAEEEF" points="71.695 104.48 129.44 104.48 129.44 108.83 71.695 108.83"></polygon>
            </g>
        </g>
    </g>
</svg>