<?xml version="1.0" encoding="UTF-8"?>
<svg width="82px" height="94px" viewBox="0 0 82 94" version="1.1" xmlns="http://www.w3.org/2000/svg" xmlns:xlink="http://www.w3.org/1999/xlink">
    <!-- Generator: Sketch 63.1 (92452) - https://sketch.com -->
    <title>arrow-hero_1</title>
    <desc>Created with Sketch.</desc>
    <g id="Visual-Design-(desktop)" stroke="none" stroke-width="1" fill="none" fill-rule="evenodd">
        <g id="Home-page-(unregistered)" transform="translate(-946.000000, -3947.000000)" fill="#FFFFFF">
            <g id="feedbacks" transform="translate(0.000000, 3870.000000)">
                <g id="arrow-hero_1" transform="translate(987.000000, 121.000000) rotate(-248.000000) translate(-987.000000, -121.000000) translate(951.000000, 69.000000)">
                    <path d="M57.837851,11.1543211 L56.4804437,11.430619 C55.5570374,11.6148175 54.2827367,11.8726955 52.6575416,12.2595125 L50.0627698,13.0423563 C49.0196438,13.3310441 47.9957255,13.6847876 46.9970609,14.101498 L43.5896916,15.4829872 L39.9422367,17.3249728 C37.2596688,18.7733038 34.6803358,20.4042528 32.2225599,22.2062345 C29.4738892,24.2176509 26.9035278,26.4608387 24.5398194,28.911062 L23.6164131,29.8320548 L22.6930067,30.8451468 L20.9293007,32.8989608 C20.3106185,33.5712855 19.802745,34.3357095 19.2579353,35.0632938 L17.6235061,37.2828864 C16.6262273,38.8393642 15.6381825,40.4142619 14.6963081,42.0167893 L13.4035392,44.4942599 C12.9671573,45.3312315 12.5787033,46.1922063 12.2400473,47.0730397 C11.5290244,48.7952962 10.7071928,50.4622931 10.1808512,52.2398092 L9.2574449,54.8462188 C8.98965707,55.7211619 8.78650769,56.6145249 8.55565611,57.4894681 C8.32480453,58.3644112 8.07548482,59.2301444 7.90003763,60.1142975 L7.47527072,62.729917 L7.23518508,64.0285168 L7.17054664,64.3508643 L7.17054664,64.516643 C7.17054664,64.387704 7.17054664,64.516643 7.17054664,64.516643 L7.17054664,64.645582 L7.08744007,65.3271167 C6.98586538,66.2481094 6.85658849,67.1691022 6.8288863,67.9703659 C6.5803787,71.2168892 6.64221791,74.4796333 7.01356757,77.7144696 C7.31647047,80.6032306 7.89782629,83.4561487 8.74957143,86.2336528 C9.44293373,88.5711615 10.3710423,90.8329131 11.5197904,92.9845299 L11.8799188,93.7029043 L12.2769835,94.3660191 L13.0434108,95.6277792 L14.4746906,97.7276428 C14.982564,98.3262881 15.3980969,98.8696738 15.8320978,99.3578 C16.2660988,99.8459262 16.6262273,100.177484 16.9124832,100.509041 L17.8358895,101.485293 L17.9282302,101.586603 C18.3320399,102.038919 18.3503407,102.715629 17.9715651,103.188998 C17.5927895,103.662368 16.9271471,103.794665 16.3953757,103.502268 L15.1303091,102.765473 C13.9347253,102.048051 12.8039153,101.228354 11.7506419,100.315633 C11.1134916,99.6893574 10.3470644,99.0262426 9.61757337,98.215769 L8.51871985,96.9079592 L7.94620794,96.2080047 L7.41063228,95.4527906 C5.779949,93.1438614 4.45759879,90.6330093 3.47692139,87.9835391 C2.30161487,84.8938052 1.51683174,81.6700634 1.14070342,78.3867943 C0.747697657,74.7132499 0.747697657,71.0084253 1.14070342,67.3348809 C1.22380999,66.3309988 1.38078906,65.4928954 1.51006594,64.5719026 L1.61164064,63.8903679 L1.61164064,63.6509098 L1.61164064,63.4759212 L1.75015159,63.116734 L2.06410973,61.6984051 L2.6735579,58.8433275 C2.91364354,57.9223347 3.25530387,57.0013419 3.55079389,56.0250895 C3.84628391,55.0488372 4.12330581,54.1278444 4.47420021,53.2068516 L5.6284581,50.4438733 C6.40475474,48.6097108 7.27703446,46.8174497 8.24169796,45.0744854 C8.70482403,44.1785685 9.21653347,43.3084765 9.77455244,42.4680758 L11.3443432,39.9445555 C12.4708989,38.3236082 13.6343908,36.7395007 14.8071168,35.1922328 L16.6539295,32.9634302 C17.2818458,32.2358459 17.8635917,31.4714219 18.5469124,30.8083071 L20.5230019,28.7729131 L21.4464082,27.759821 L22.4713892,26.8388282 C23.8564987,25.6139078 25.1400335,24.3337279 26.5713133,23.2837961 C28.002593,22.2338643 29.2768938,21.0549936 30.7081735,20.1524206 C33.2970289,18.3286675 36.0090599,16.6853919 38.824915,15.2343192 L42.6108809,13.3923336 L46.1475271,11.9740047 C47.1888219,11.548939 48.2522735,11.1800096 49.3332789,10.8688134 L52.1034978,9.94782059 C53.747161,9.51495398 55.0399299,9.257076 55.9171659,9.0268278 L57.2653391,8.6952704 C57.9461667,8.52487256 58.6365832,8.93721508 58.8074276,9.61626319 C58.978272,10.2953113 58.5648489,10.9839233 57.8840213,11.1543211 L57.837851,11.1543211 Z" id="Path"></path>
                    <path d="M55.6134846,1.29940929 C55.8378974,1.5569285 56.0623103,1.80525059 56.2956996,2.05357268 L56.9599616,2.72496204 C57.4474842,3.13111744 57.9569612,3.50879803 58.4859689,3.85620712 C59.0163785,4.20781903 59.5647257,4.53017649 60.1286709,4.82190415 C60.6941913,5.1070147 61.2866412,5.35533679 61.8701146,5.58526465 C62.4580802,5.80069143 63.0574725,5.98185759 63.6654173,6.12789441 C64.285756,6.25272675 64.9119453,6.34481931 65.5415086,6.40380784 C66.1594144,6.45766462 66.7796016,6.47915254 67.3996469,6.46818764 C68.0100498,6.46818764 68.6204528,6.41300496 69.1949496,6.34862515 C70.0769336,6.27126514 70.9128792,6.76392988 71.2910512,7.58396312 C71.6692232,8.40399636 71.5098826,9.37849094 70.8915107,10.027471 L70.3888259,10.5333123 L67.8664256,13.0533216 C67.0226333,13.8810619 66.1788411,14.6996051 65.3170958,15.490557 C64.459119,16.3042079 63.5407524,17.0483467 62.5702826,17.7162587 C62.0649166,18.0492849 61.5436293,18.3562379 61.0083692,18.6359701 C60.7211208,18.7739269 60.4518254,18.9302778 60.1107179,19.0590374 C60.0478823,19.0590374 59.5956232,19.6038653 59.2938552,19.748821 C59.0139391,19.8838632 58.6980769,19.9194619 58.3962038,19.8499892 C58.1453951,19.7970674 57.9129568,19.6764045 57.7229653,19.5004989 L57.6601297,19.4361191 L57.525482,19.270571 C57.3421118,19.0031986 57.2391365,18.6866806 57.229257,18.3600567 C57.2308647,17.9770874 57.3265639,17.6006978 57.507529,17.2656001 C57.5852965,17.1543491 57.643054,17.0297663 57.6780827,16.8977155 C57.7858009,16.5666194 57.9204486,16.2539175 58.0461198,15.978004 C58.3181097,15.3708748 58.6362598,14.7865912 58.9976302,14.2305523 C59.7047435,13.1372106 60.546499,12.1418474 61.5020775,11.2690814 C62.1286734,10.6687981 62.8767162,10.0372629 63.7462059,9.37447583 L62.7587894,8.93301433 L61.7893259,8.47315861 L60.8378155,7.98571154 C60.2094595,7.65461541 59.5990566,7.28673083 58.9976302,6.91884625 C58.3962038,6.55096167 57.8127304,6.13709152 57.2023275,5.7416156 C56.5919246,5.34613967 56.0623103,4.89548106 55.550649,4.45401957 L54.7158332,3.75503886 C54.4644909,3.525111 54.204172,3.31357737 53.9438531,3.09284662 C53.423306,2.66109539 53.3429276,1.87873462 53.7643228,1.3453949 C54.1857181,0.812055176 54.9493133,0.729701394 55.4698604,1.16145257 L55.6134846,1.29940929 Z" id="Path"></path>
                </g>
            </g>
        </g>
    </g>
</svg>