<?xml version="1.0" encoding="UTF-8"?>
<svg width="38px" height="38px" viewBox="0 0 38 38" version="1.1" xmlns="http://www.w3.org/2000/svg" xmlns:xlink="http://www.w3.org/1999/xlink">
    <!-- Generator: Sketch 52.6 (67491) - http://www.bohemiancoding.com/sketch -->
    <title>Group 6</title>
    <desc>Created with Sketch.</desc>
    <g id="Page-1" stroke="none" stroke-width="1" fill="none" fill-rule="evenodd">
        <g id="About-Us" transform="translate(-823.000000, -2245.000000)">
            <g id="feedbacks" transform="translate(-4.000000, 1455.000000)">
                <g id="Oval-+-Group-3-+-Group-2-+-Group-2-Copy-2-+-Group-2-Copy-+-Button/large-Mask" transform="translate(684.000000, 31.000000)">
                    <g id="Group-3" transform="translate(143.000000, 112.000000)">
                        <g id="Group-4-Copy" transform="translate(0.000000, 647.000000)">
                            <g id="Group-6">
                                <circle id="Oval" fill="#437db3" cx="19" cy="19" r="19"></circle>
                                <g id="mail" transform="translate(8.000000, 11.000000)" fill="#FFFFFF" fill-rule="nonzero">
                                    <path d="M20.75,0.75 L1.25,0.75 C0.83516,0.75 0.5,1.08516 0.5,1.5 L0.5,16.5 C0.5,16.9148 0.83516,17.25 1.25,17.25 L20.75,17.25 C21.1648,17.25 21.5,16.9148 21.5,16.5 L21.5,1.5 C21.5,1.08516 21.1648,0.75 20.75,0.75 Z M19.8125,3.34687 L19.8125,15.5625 L2.1875,15.5625 L2.1875,3.34687 L1.54063,2.84297 L2.46172,1.65938 L3.46484,2.43984 L18.5375,2.43984 L19.5406,1.65938 L20.4617,2.84297 L19.8125,3.34687 Z M18.5375,2.4375 L11,8.2969 L3.4625,2.4375 L2.45938,1.65703 L1.53828,2.84062 L2.18516,3.34453 L10.1914,9.5695 C10.4217,9.7484 10.7049,9.8455 10.9965,9.8455 C11.2881,9.8455 11.5713,9.7484 11.8016,9.5695 L19.8125,3.34687 L20.4594,2.84297 L19.5383,1.65938 L18.5375,2.4375 Z" id="Shape"></path>
                                </g>
                            </g>
                        </g>
                    </g>
                </g>
            </g>
        </g>
    </g>
</svg>