<?xml version="1.0" encoding="UTF-8"?>
<svg width="38px" height="38px" viewBox="0 0 38 38" version="1.1" xmlns="http://www.w3.org/2000/svg" xmlns:xlink="http://www.w3.org/1999/xlink">
    <!-- Generator: Sketch 52.6 (67491) - http://www.bohemiancoding.com/sketch -->
    <title>Group 5</title>
    <desc>Created with Sketch.</desc>
    <g id="Page-1" stroke="none" stroke-width="1" fill="none" fill-rule="evenodd">
        <g id="About-Us" transform="translate(-823.000000, -2191.000000)">
            <g id="feedbacks" transform="translate(-4.000000, 1455.000000)">
                <g id="Oval-+-Group-3-+-Group-2-+-Group-2-Copy-2-+-Group-2-Copy-+-Button/large-Mask" transform="translate(684.000000, 31.000000)">
                    <g id="Group-3" transform="translate(143.000000, 112.000000)">
                        <g id="Group-4" transform="translate(0.000000, 593.000000)">
                            <g id="Group-5">
                                <circle id="Oval" fill="#437db3" cx="19" cy="19" r="19"></circle>
                                <path d="M27.1212,24.8969 C26.679,23.8496 26.0374,22.8984 25.2321,22.0961 C24.4292,21.2915 23.4781,20.65 22.4313,20.207 C22.4219,20.2023 22.4126,20.2 22.4032,20.1953 C23.8633,19.1406 24.8126,17.4227 24.8126,15.48438 C24.8126,12.27344 22.211,9.67188 19.0001,9.67188 C15.78912,9.67188 13.18756,12.27344 13.18756,15.48438 C13.18756,17.4227 14.13678,19.1406 15.59693,20.1977 C15.58756,20.2023 15.57818,20.2047 15.56881,20.2094 C14.51881,20.6523 13.57662,21.2875 12.76803,22.0984 C11.96344,22.9013 11.32194,23.8524 10.87896,24.8992 C10.44378,25.924 10.20908,27.0228 10.18756,28.1359 C10.18693,28.161 10.19132,28.1858 10.20046,28.2091 C10.20961,28.2324 10.22332,28.2537 10.24079,28.2716 C10.25826,28.2895 10.27915,28.3037 10.30221,28.3134 C10.32527,28.3231 10.35004,28.3281 10.37506,28.3281 L11.78131,28.3281 C11.88443,28.3281 11.96646,28.2461 11.96881,28.1453 C12.01568,26.3359 12.74225,24.6414 14.02662,23.357 C15.35553,22.0281 17.1204,21.2969 19.0001,21.2969 C20.8797,21.2969 22.6446,22.0281 23.9735,23.357 C25.2579,24.6414 25.9844,26.3359 26.0313,28.1453 C26.0337,28.2484 26.1157,28.3281 26.2188,28.3281 L27.6251,28.3281 C27.6501,28.3281 27.6749,28.3231 27.6979,28.3134 C27.721,28.3037 27.7419,28.2895 27.7593,28.2716 C27.7768,28.2537 27.7905,28.2324 27.7997,28.2091 C27.8088,28.1858 27.8132,28.161 27.8126,28.1359 C27.7891,27.0156 27.5571,25.9258 27.1212,24.8969 Z M19.0001,19.5156 C17.9243,19.5156 16.91178,19.0961 16.15006,18.3344 C15.38834,17.5727 14.96881,16.56016 14.96881,15.48438 C14.96881,14.40859 15.38834,13.39609 16.15006,12.63437 C16.91178,11.87266 17.9243,11.45312 19.0001,11.45312 C20.0758,11.45312 21.0883,11.87266 21.8501,12.63437 C22.6118,13.39609 23.0313,14.40859 23.0313,15.48438 C23.0313,16.56016 22.6118,17.5727 21.8501,18.3344 C21.0883,19.0961 20.0758,19.5156 19.0001,19.5156 Z" id="Shape" fill="#FFFFFF" fill-rule="nonzero"></path>
                            </g>
                        </g>
                    </g>
                </g>
            </g>
        </g>
    </g>
</svg>