<?xml version="1.0" encoding="UTF-8"?>
<svg width="38px" height="38px" viewBox="0 0 38 38" version="1.1" xmlns="http://www.w3.org/2000/svg" xmlns:xlink="http://www.w3.org/1999/xlink">
    <!-- Generator: Sketch 52.6 (67491) - http://www.bohemiancoding.com/sketch -->
    <title>Group 7</title>
    <desc>Created with Sketch.</desc>
    <g id="Page-1" stroke="none" stroke-width="1" fill="none" fill-rule="evenodd">
        <g id="About-Us" transform="translate(-826.000000, -2280.000000)">
            <g id="feedbacks" transform="translate(-4.000000, 1455.000000)">
                <g id="Oval-+-Group-3-+-Group-2-+-Group-2-Copy-2-+-Group-2-Copy-+-Button/large-Mask" transform="translate(684.000000, 31.000000)">
                    <g id="Group-3" transform="translate(143.000000, 112.000000)">
                        <g id="Group-4-Copy-2" transform="translate(3.000000, 682.000000)">
                            <g id="Group-7">
                                <circle id="Oval" fill="#437db3" cx="19" cy="19" r="19"></circle>
                                <g id="phone" transform="translate(9.000000, 9.000000)" fill="#FFFFFF" fill-rule="nonzero">
                                    <path d="M18.557,3.59453 L16.0609,1.10078 C15.7562,0.79609 15.3484,0.625 14.9172,0.625 C14.4859,0.625 14.0781,0.79375 13.7734,1.10078 L11.0852,3.78437 C10.7805,4.08906 10.6094,4.49922 10.6094,4.93047 C10.6094,5.36406 10.7781,5.76953 11.0852,6.07656 L13.1852,8.1789 C12.7068,9.2936 12.0194,10.3063 11.1602,11.1625 C10.3,12.0273 9.2945,12.7094 8.1789,13.1922 L6.07891,11.0898 C5.77422,10.7852 5.36641,10.6141 4.93516,10.6141 C4.72244,10.6133 4.51172,10.655 4.31532,10.7366 C4.11892,10.8183 3.9408,10.9384 3.79141,11.0898 L1.10078,13.7734 C0.79609,14.0781 0.625,14.4883 0.625,14.9195 C0.625,15.3531 0.79375,15.7586 1.10078,16.0656 L3.59453,18.5594 C4.11484,19.0797 4.83203,19.3773 5.56797,19.3773 C5.72031,19.3773 5.86797,19.3656 6.01797,19.3398 C9.1211,18.8289 12.2008,17.1766 14.6875,14.6922 C17.1719,12.2031 18.8219,9.1234 19.3375,6.01797 C19.4852,5.13672 19.1898,4.22969 18.557,3.59453 Z M17.6758,5.73906 C17.2188,8.5023 15.7328,11.2586 13.4945,13.4969 C11.2562,15.7352 8.5023,17.2211 5.73906,17.6781 C5.39219,17.7367 5.03594,17.6195 4.78281,17.3687 L2.33359,14.9195 L4.93047,12.3203 L7.73828,15.1328 L7.75937,15.1539 L8.2656,14.9664 C9.8006,14.402 11.1945,13.5107 12.3508,12.354 C13.507,11.1974 14.3979,9.8032 14.9617,8.268 L15.1492,7.76172 L12.318,4.93281 L14.9148,2.33359 L17.3641,4.78281 C17.6172,5.03594 17.7344,5.39219 17.6758,5.73906 Z" id="Shape"></path>
                                </g>
                            </g>
                        </g>
                    </g>
                </g>
            </g>
        </g>
    </g>
</svg>