<?xml version="1.0" encoding="UTF-8"?>
<svg width="50px" height="45px" viewBox="0 0 50 45" version="1.1" xmlns="http://www.w3.org/2000/svg" xmlns:xlink="http://www.w3.org/1999/xlink">
    <!-- Generator: Sketch 52.6 (67491) - http://www.bohemiancoding.com/sketch -->
    <title>mansion</title>
    <desc>Created with Sketch.</desc>
    <g id="Page-1" stroke="none" stroke-width="1" fill="none" fill-rule="evenodd">
        <g id="Account-Dashboard-(new)" transform="translate(-952.000000, -525.000000)" fill="#0093E0" fill-rule="nonzero">
            <g id="potential-areas-copy" transform="translate(435.000000, 416.000000)">
                <g id="area-box-copy-11" transform="translate(443.000000, 85.000000)">
                    <g id="image-placeholder">
                        <g id="mansion" transform="translate(74.000000, 24.000000)">
                            <path d="M48.3333588,39.8033143 L48.3333588,23.9700317 C48.8929748,23.9696503 49.4148254,23.6877441 49.7215271,23.2200623 C50.0350952,22.7432251 50.0862121,22.1405029 49.8565674,21.6182709 L41.8117523,4.1305542 C41.5428162,3.52706914 40.9442901,3.13758848 40.2832031,3.13644414 L15.9317017,3.13644414 L14.824295,0.921630859 C14.5420074,0.356674219 13.9648438,0 13.3335113,0 C12.7017975,0 12.1246338,0.356674219 11.8423462,0.921630859 L10.7349396,3.13644414 L4.16679385,3.13644414 C3.24630742,3.13644414 2.50015254,3.88259883 2.50015254,4.80308535 L2.50015254,19.6063995 L1.75399785,21.0975646 C1.74903867,21.1074829 1.74827578,21.1181641 1.7433166,21.1280822 C1.73835752,21.1383819 1.73149111,21.1647033 1.72424316,21.1833954 C1.69334414,21.2654113 1.67617793,21.3516235 1.67236328,21.4389801 C1.67236328,21.4500428 1.66664121,21.459198 1.66664121,21.4698791 L1.66664121,39.8033143 C0.746154785,39.8033143 1.11022302e-14,40.5494689 1.11022302e-14,41.4699555 L1.11022302e-14,43.1365967 C1.11022302e-14,44.0570831 0.746154785,44.8032379 1.66664121,44.8032379 L48.3333588,44.8032379 C49.2538452,44.8032379 50,44.0570831 50,43.1365967 L50,41.4699555 C50,40.5494689 49.2538452,39.8033143 48.3333588,39.8033143 Z M46.6667176,39.8033143 L44.1665649,39.8033143 L44.1665649,29.8030854 C44.1665649,27.50206 42.3011779,25.6366729 40.0001525,25.6366729 C37.6987457,25.6366729 35.8333588,27.50206 35.8333588,29.8030854 L35.8333588,39.8033143 L25,39.8033143 L25,23.9700317 L46.6667176,23.9700317 L46.6667176,39.8033143 Z M42.4999237,39.8033143 L37.5,39.8033143 L37.5,29.8030854 C37.5,28.4225464 38.6192322,27.3033143 40.0001525,27.3033143 C41.3806915,27.3033143 42.4999237,28.4225464 42.4999237,29.8030854 L42.4999237,39.8033143 Z M40.2935028,4.81834414 L48.3333588,22.3033905 L25,22.3033905 L25,21.4698791 C25,21.459198 24.9942779,21.4500428 24.9942779,21.4397431 C24.9908447,21.352005 24.9732971,21.2654113 24.942398,21.1833954 C24.9351502,21.1647033 24.930954,21.1463928 24.9233246,21.1280822 C24.9156952,21.1097717 24.9176025,21.1074829 24.9126435,21.0975646 L16.7648315,4.80308535 L40.2935028,4.81834414 Z M13.3335113,1.66664121 L22.8183746,20.6363678 L3.8482666,20.6363678 L13.3335113,1.66664121 Z M4.16679385,4.80308535 L9.90180967,4.80308535 L4.16679385,16.2731171 L4.16679385,4.80308535 Z M3.33328242,22.3033905 L23.3333588,22.3033905 L23.3333588,39.8033143 L3.33328242,39.8033143 L3.33328242,22.3033905 Z M1.66664121,43.1365967 L1.66664121,41.4699555 L48.3333588,41.4699555 L48.3333588,43.1365967 L1.66664121,43.1365967 Z" id="Shape"></path>
                            <path d="M20.0000763,27.3033143 L6.66656494,27.3033143 C5.74607852,27.3033143 4.99992373,28.0494689 4.99992373,28.9699555 L4.99992373,36.4700317 C4.99992373,37.3905182 5.74607852,38.1366729 6.66656494,38.1366729 L20.0000763,38.1366729 C20.9205627,38.1366729 21.6667176,37.3905182 21.6667176,36.4700317 L21.6667176,28.9699555 C21.6667176,28.0494689 20.9205627,27.3033143 20.0000763,27.3033143 Z M15.0001525,28.9699555 L15.0001525,36.4700317 L11.6664887,36.4700317 L11.6664887,28.9699555 L15.0001525,28.9699555 Z M6.66656494,28.9699555 L9.99984746,28.9699555 L9.99984746,36.4700317 L6.66656494,36.4700317 L6.66656494,28.9699555 Z M16.6667938,36.4700317 L16.6667938,28.9699555 L20.0000763,28.9699555 L20.0000763,36.4700317 L16.6667938,36.4700317 Z" id="Shape"></path>
                            <path d="M28.3332824,36.4700317 L32.5000763,36.4700317 C33.4205627,36.4700317 34.1667176,35.723877 34.1667176,34.8033905 L34.1667176,28.9699555 C34.1667176,28.0494689 33.4205627,27.3033143 32.5000763,27.3033143 L28.3332824,27.3033143 C27.412796,27.3033143 26.6666412,28.0494689 26.6666412,28.9699555 L26.6666412,34.8033905 C26.6666412,35.723877 27.412796,36.4700317 28.3332824,36.4700317 Z M28.3332824,28.9699555 L32.5000763,28.9699555 L32.5000763,34.8033905 L28.3332824,34.8033905 L28.3332824,28.9699555 Z" id="Shape"></path>
                            <path d="M20.8332062,23.9700317 L5.83343506,23.9700317 C5.37300107,23.9700317 4.99992373,24.3431092 4.99992373,24.8031616 C4.99992373,25.2635956 5.37300107,25.6366729 5.83343506,25.6366729 L20.8332062,25.6366729 C21.2936401,25.6366729 21.6667176,25.2635956 21.6667176,24.8031616 C21.6667176,24.3431092 21.2936401,23.9700317 20.8332062,23.9700317 Z" id="Path"></path>
                            <path d="M10.8333588,18.9697266 L15.8332824,18.9697266 C16.2937164,18.9697266 16.6667938,18.5966492 16.6667938,18.1365967 L16.6667938,12.3031616 C16.6667938,10.4621887 15.1741027,8.9698791 13.3335113,8.9698791 C11.4925385,8.9698791 9.99984746,10.4621887 9.99984746,12.3031616 L9.99984746,18.1365967 C9.99984746,18.5966492 10.3729248,18.9697266 10.8333588,18.9697266 Z M11.6664887,17.3030854 L11.6664887,14.8033143 L15.0001525,14.8033143 L15.0001525,17.3030854 L11.6664887,17.3030854 Z M13.3335113,10.6365204 C14.2539979,10.6365204 15.0001525,11.3826752 15.0001525,12.3031616 L15.0001525,13.1366729 L11.6664887,13.1366729 L11.6664887,12.3031616 C11.6664887,11.3826752 12.4130249,10.6365204 13.3335113,10.6365204 Z" id="Shape"></path>
                            <path d="M27.5001525,19.8032379 L39.1666412,19.8032379 C39.6270752,19.8032379 40.0001525,19.4301605 40.0001525,18.9697266 L40.0001525,10.6365204 C40.0001525,9.25598145 38.880539,8.13636777 37.5,8.13636777 L29.1667938,8.13636777 C27.7858734,8.13636777 26.6666412,9.25598145 26.6666412,10.6365204 L26.6666412,18.9697266 C26.6666412,19.4301605 27.0397187,19.8032379 27.5001525,19.8032379 Z M28.3332824,15.6364441 L32.5000763,15.6364441 L32.5000763,18.1365967 L28.3332824,18.1365967 L28.3332824,15.6364441 Z M34.1667176,18.1365967 L34.1667176,15.6364441 L38.3335113,15.6364441 L38.3335113,18.1365967 L34.1667176,18.1365967 Z M38.3335113,10.6365204 L38.3335113,13.9698028 L34.1667176,13.9698028 L34.1667176,9.80339053 L37.5,9.80339053 C37.9600525,9.80339053 38.3335113,10.1764679 38.3335113,10.6365204 Z M29.1667938,9.80339053 L32.5000763,9.80339053 L32.5000763,13.9698028 L28.3332824,13.9698028 L28.3332824,10.6365204 C28.3332824,10.1764679 28.7063599,9.80339053 29.1667938,9.80339053 Z" id="Shape"></path>
                        </g>
                    </g>
                </g>
            </g>
        </g>
    </g>
</svg>