<?xml version="1.0" encoding="UTF-8"?>
<svg width="44px" height="50px" viewBox="0 0 44 50" version="1.1" xmlns="http://www.w3.org/2000/svg" xmlns:xlink="http://www.w3.org/1999/xlink">
    <!-- Generator: Sketch 52.6 (67491) - http://www.bohemiancoding.com/sketch -->
    <title>video</title>
    <desc>Created with Sketch.</desc>
    <g id="Page-1" stroke="none" stroke-width="1" fill="none" fill-rule="evenodd">
        <g id="Account-Dashboard-(new)" transform="translate(-741.000000, -521.000000)" fill="#0093E0" fill-rule="nonzero">
            <g id="potential-areas-copy" transform="translate(435.000000, 416.000000)">
                <g id="area-box-copy-10" transform="translate(230.000000, 85.000000)">
                    <g id="image-placeholder">
                        <g id="video" transform="translate(76.000000, 20.000000)">
                            <path d="M43.026352,20.1831817 L9.70878604,20.1831817 L41.7106629,10.9127045 C41.9593811,10.8406066 42.1691895,10.6723785 42.2943115,10.4457855 C42.4194336,10.218811 42.4491883,9.95178223 42.3770904,9.70306396 L40.7024384,3.92189023 C40.0333404,1.612854 37.8833771,0 35.4740143,0 C34.9662781,0 34.4604492,0.0720977539 33.9698791,0.214004492 L3.92341611,8.91799922 C2.53372188,9.3204498 1.38206484,10.2443695 0.679779102,11.5188599 C-0.0221251953,12.7933502 -0.186920117,14.2608643 0.215530371,15.650177 L1.8516541,21.2982178 L1.8516541,44.5652008 C1.8516541,47.562027 4.28962705,50 7.28607178,50 L19.0208436,50 C19.5602417,50 19.9974061,49.5628357 19.9974061,49.0234375 C19.9974061,48.4840393 19.5602417,48.046875 19.0208436,48.046875 L7.28645322,48.046875 C5.36651611,48.046875 3.8047791,46.4851379 3.8047791,44.5652008 L3.8047791,31.2755585 L8.80775449,31.2755585 L8.81004336,31.2755585 L8.81195068,31.2755585 L16.4596558,31.2755585 L16.4619445,31.2755585 L16.4642334,31.2755585 L24.1119385,31.2755585 L24.1142273,31.2755585 L24.1165161,31.2755585 L31.7642212,31.2755585 L31.76651,31.2755585 L31.7684174,31.2755585 L42.0497895,31.2755585 L42.0497895,44.5652008 C42.0497895,46.4851379 40.4880523,48.046875 38.5681152,48.046875 L26.8333436,48.046875 C26.2943268,48.046875 25.8567811,48.4840393 25.8567811,49.0234375 C25.8567811,49.5628357 26.2943268,50 26.8333436,50 L38.5681152,50 C41.5649414,50 44.0029145,47.562027 44.0029145,44.5652008 L44.0029145,21.1597442 C44.0029145,20.6203461 43.5657501,20.1831817 43.026352,20.1831817 Z M25.806427,29.3224335 L29.9556732,22.1363067 L35.3523254,22.1363067 L31.2034607,29.3224335 L25.806427,29.3224335 Z M18.1541443,29.3224335 L22.3033905,22.1363067 L27.7000428,22.1363067 L23.5511779,29.3224335 L18.1541443,29.3224335 Z M10.5022431,29.3224335 L14.6511078,22.1363067 L20.0481415,22.1363067 L15.8988953,29.3224335 L10.5022431,29.3224335 Z M14.1330719,16.6801453 L7.18498232,10.0067139 L12.3908996,8.49876406 C12.4275207,8.55216982 12.4702453,8.60252383 12.5190734,8.64944453 L19.4671631,15.322876 L14.2612457,16.8308258 C14.2246246,16.77742 14.1815186,16.7266846 14.1330719,16.6801453 Z M27.2190094,4.39109805 L34.167099,11.0645294 L28.9611816,12.5724793 C28.9245605,12.5190734 28.8818359,12.468338 28.8330078,12.4217987 L21.8849182,5.74836729 L27.0908355,4.24041748 C27.1274566,4.29382324 27.1701813,4.34417725 27.2190094,4.39109805 Z M19.8688507,6.52046201 L26.8169403,13.1935119 L21.6110229,14.7018433 C21.5744019,14.6484375 21.5316772,14.5977021 21.4828491,14.5511627 L14.5347596,7.87773135 L19.7406769,6.36978145 C19.7776795,6.42280576 19.8204041,6.47354121 19.8688507,6.52046201 Z M34.5134735,2.09007266 C34.8270416,1.99928281 35.1501465,1.953125 35.4740143,1.953125 C37.0193481,1.953125 38.3975982,2.98614502 38.8263702,4.46548457 L40.2294159,9.30824277 L36.3113403,10.4431152 C36.2743378,10.3897095 36.2316132,10.3393555 36.1827851,10.2924347 L29.235077,3.61938477 L34.5134735,2.09007266 Z M2.3906708,12.46109 C2.84080508,11.6436005 3.57818604,11.0515595 4.46701055,10.7940674 L5.04074102,10.6277466 C5.07774355,10.6811523 5.12046816,10.7318878 5.16891484,10.7784271 L12.1170044,17.4518585 L3.49464414,19.9497223 L2.09159854,15.1069641 C1.83410645,14.2185211 1.94053652,13.2789611 2.3906708,12.46109 Z M3.8047791,22.1363067 L12.3958588,22.1363067 L8.24699404,29.3224335 L3.8047791,29.3224335 L3.8047791,22.1363067 Z M33.4587098,29.3224335 L37.6075744,22.1363067 L42.0497895,22.1363067 L42.0497895,29.3224335 L33.4587098,29.3224335 Z" id="Shape"></path>
                            <path d="M29.6798706,39.5618438 C29.6798706,39.212799 29.4937134,38.8904571 29.1915894,38.7161255 L20.6119537,33.7627411 C20.3098297,33.5884094 19.9375152,33.5884094 19.6353912,33.7627411 C19.3332672,33.9370728 19.14711,34.2594146 19.14711,34.6084595 L19.14711,44.5152283 C19.14711,44.8638916 19.3332672,45.1862335 19.6353912,45.3605652 C19.7864532,45.4479218 19.9550629,45.4917908 20.1236725,45.4917908 C20.2922821,45.4917908 20.4608917,45.4479218 20.6119537,45.3605652 L29.1915894,40.4075623 C29.4937134,40.2332306 29.6798706,39.9108887 29.6798706,39.5618438 Z M21.100235,42.8237915 L21.100235,36.2998963 L26.7501831,39.5618438 L21.100235,42.8237915 Z" id="Shape"></path>
                            <path d="M22.9270936,48.046875 C22.3892212,48.046875 21.9505311,48.4855652 21.9505311,49.0234375 C21.9505311,49.5613098 22.3892212,50 22.9270936,50 C23.4653473,50 23.9036561,49.5613098 23.9036561,49.0234375 C23.9036561,48.4855652 23.4653473,48.046875 22.9270936,48.046875 Z" id="Path"></path>
                        </g>
                    </g>
                </g>
            </g>
        </g>
    </g>
</svg>