<?xml version="1.0" encoding="UTF-8"?>
<svg width="50px" height="50px" viewBox="0 0 50 50" version="1.1" xmlns="http://www.w3.org/2000/svg" xmlns:xlink="http://www.w3.org/1999/xlink">
    <!-- Generator: Sketch 52.6 (67491) - http://www.bohemiancoding.com/sketch -->
    <title>inspection (1)</title>
    <desc>Created with Sketch.</desc>
    <g id="Page-1" stroke="none" stroke-width="1" fill="none" fill-rule="evenodd">
        <g id="Account-Dashboard-(new)" transform="translate(-524.000000, -522.000000)" fill="#0093E0" fill-rule="nonzero">
            <g id="potential-areas-copy" transform="translate(435.000000, 416.000000)">
                <g id="area-box-copy-7" transform="translate(16.000000, 85.000000)">
                    <g id="image-placeholder">
                        <g id="inspection-(1)" transform="translate(73.000000, 21.000000)">
                            <path d="M32.509033,0.043026515 C29.1099402,0.0418636121 25.7856593,1.03728728 22.9466863,2.90641998 L19.0913576,0.68338473 C18.709546,0.467477052 18.2579617,0.410495999 17.834674,0.524845606 C17.4082854,0.637257207 17.0450797,0.917123256 16.8287845,1.30126059 L15.5810162,3.46421388 C14.6542023,3.34637556 13.7161473,3.34637556 12.7893335,3.46421388 L11.5466044,1.30901311 C11.3299214,0.921387068 10.9647778,0.638032508 10.5356757,0.524458005 C10.1088995,0.409333096 9.65421406,0.467864653 9.27085193,0.687648641 L4.93796812,3.18822414 C4.5557688,3.40955863 4.27706566,3.77431471 4.16426655,4.20147865 C4.05107975,4.6282549 4.11271221,5.08294021 4.33520961,5.46475184 L5.58220255,7.62654232 C5.01394283,8.3653575 4.54607818,9.17627118 4.19101272,10.0379639 L1.69160003,10.0379639 C0.772151068,10.0391268 0.0267461718,10.784144 0.0259709694,11.7035929 L0.0259709694,16.7012555 C0.0267461718,17.6207044 0.772151068,18.3657217 1.69160003,18.3668846 L4.19101272,18.3668846 C4.54646578,19.2285773 5.01394283,20.0394909 5.58220255,20.7783061 L4.33753542,22.9362203 C4.11348752,23.3184196 4.05069205,23.7742678 4.16387895,24.2025946 C4.27706566,24.6309214 4.5565441,24.9964527 4.94029383,25.2181747 L9.27899205,27.7214637 C9.66041607,27.9373714 10.1120005,27.9943525 10.5356757,27.8800028 C10.9620644,27.7679789 11.3248823,27.4877252 11.5415653,27.1035878 L12.7893335,24.9406346 C13.7161473,25.0592481 14.6542023,25.0592481 15.5810162,24.9406346 L16.4682922,26.4829985 L15.4538749,27.4978035 C14.7018804,28.2412702 14.508455,29.3820537 14.9736062,30.3317374 L12.3947302,32.9102259 C11.4434958,32.4756971 10.3240318,32.6629205 9.56583542,33.3831296 L0.73183796,42.2175147 C0.263198105,42.6861545 2.82521963e-15,43.3218612 2.82521963e-15,43.9843142 C2.82521963e-15,44.6471547 0.263198105,45.2828614 0.73183796,45.7515013 L4.26543692,49.2851002 C5.24186694,50.2595921 6.82299347,50.2595921 7.79942349,49.2851002 L16.6338085,40.4511028 C17.3780505,39.7022093 17.5703131,38.5664651 17.1144648,37.6144555 L19.6855883,35.0429444 C20.3108292,35.3476185 21.0356898,35.3735893 21.6810872,35.1142675 L21.6810872,35.8577342 C21.6822501,36.7771833 22.427655,37.5225881 23.3471039,37.523751 L25.8465166,37.523751 C26.2015821,38.3854437 26.6694466,39.1959698 27.2377064,39.934785 L25.9930392,42.0926991 C25.7689914,42.4748984 25.7061959,42.9307466 25.8193827,43.3590733 C25.9325696,43.7877878 26.212048,44.1533191 26.5957977,44.3750412 L30.9344959,46.8779425 C31.31592,47.0942379 31.7675043,47.1512189 32.1911796,47.0364816 C32.6175683,46.9244577 32.9803862,46.6445917 33.1970691,46.2600667 L34.4448373,44.097501 C35.3716512,44.2153393 36.3097062,44.2153393 37.2365201,44.097501 L38.4792492,46.2523141 C38.6959321,46.6403278 39.0606882,46.9232948 39.4901779,47.0368692 C39.9165665,47.1519942 40.3712519,47.0934626 40.754614,46.8736786 L45.0874979,44.3734907 C45.4696972,44.1517686 45.7480126,43.7874002 45.8611994,43.3602362 C45.9743862,42.9330724 45.9127538,42.478387 45.6902564,42.0969629 L44.443651,39.934785 C45.0115231,39.1959698 45.4793878,38.3854437 45.8344533,37.523751 L48.3338659,37.523751 C49.2537025,37.5225881 49.9987198,36.7771833 49.9998827,35.8577342 L49.9998827,30.8604594 C49.9987198,29.9410104 49.2537025,29.1956056 48.3338659,29.1944427 L45.8329027,29.1944427 C45.8015051,29.1173051 45.7573156,29.0374542 45.722817,28.9591537 C50.2107513,23.7897728 51.2647064,16.4756571 48.4195313,10.2496077 C45.5743562,4.02355828 39.3545088,0.0333358889 32.509033,0.043026515 Z M48.3338659,17.5338762 C48.3280515,22.9761457 45.5239648,28.0327275 40.911215,30.9201538 C40.8926089,30.9337207 40.8693514,30.9410857 40.8522958,30.9558154 C37.7377206,32.9377473 34.0145725,33.7327683 30.3623599,33.1962939 C30.2371568,33.1385377 30.0991618,33.1129543 29.9615546,33.1218697 C29.9510887,33.1230326 29.9429486,33.1292346 29.9328703,33.1307851 C21.6454256,31.7582013 15.8767749,24.1467765 16.7954486,15.7969239 C17.7141223,7.44707144 24.9995538,1.27180101 33.3870059,1.73385124 C41.7748458,2.19551388 48.3381299,9.13363236 48.3338659,17.5338762 Z M40.8379536,33.3590968 C40.8410546,35.8057924 39.0699912,37.8943215 36.6554687,38.2904753 C34.2409461,38.6866291 31.8950333,37.2741198 31.1162925,34.954178 C31.57718,34.9910025 32.0388426,35.0247259 32.509033,35.0247259 C35.4057623,35.0282146 38.2575271,34.3072301 40.8046178,32.9276691 C40.8170218,33.0714784 40.8379536,33.2152876 40.8379536,33.3590968 Z M15.0181832,17.5338762 C15.0181832,18.0656992 15.0515191,18.5889943 15.0976465,19.1088008 C13.2351034,19.4561137 11.3365112,18.7192366 10.1953401,17.2067199 C9.05455665,15.694203 8.86772085,13.6665312 9.71274561,11.9706673 C10.5581581,10.275191 12.2904588,9.20379265 14.1851749,9.20495555 C15.1003599,9.20573075 15.9969389,9.46272684 16.7733539,9.94687174 C15.6213293,12.3102278 15.0208966,14.9046088 15.0181832,17.5338762 Z M12.5024903,23.2114348 C12.1559526,23.1463136 11.8059262,23.3083413 11.6307192,23.6145658 L10.1038603,26.2740682 L5.77795367,23.7723297 L7.31062708,21.1155408 C7.48699695,20.8097038 7.45133536,20.4259541 7.22186074,20.1577169 C6.48847228,19.3057148 5.92176296,18.3230829 5.55196777,17.2617627 C5.43606756,16.9260785 5.12015231,16.7012555 4.76508686,16.7012555 L1.69160003,16.7012555 L1.69160003,11.7035929 L4.76508686,11.7035929 C5.11976471,11.7035929 5.43529236,11.4787698 5.55158007,11.1434733 C5.92176296,10.0821532 6.48847228,9.09952127 7.22224834,8.24751919 C7.45172296,7.97928197 7.48738455,7.59553224 7.31062708,7.28969532 L5.77291456,4.6294178 L10.0984335,2.13310611 L11.6311069,4.78989493 C11.8059262,5.09689475 12.1559526,5.25853488 12.5028779,5.19302601 C13.614977,4.99068527 14.7549851,4.99068527 15.8670843,5.19302601 C16.2136219,5.25775958 16.5632606,5.09650715 16.7392428,4.79067023 L18.2664894,2.13078031 L21.472932,3.97975656 C19.9282423,5.24613085 18.609926,6.76640012 17.5749646,8.4750557 C16.5512442,7.86028085 15.3794507,7.53661308 14.1851749,7.53932639 C11.6605664,7.52924816 9.34760193,8.94640896 8.20991949,11.2000668 C7.07262474,13.4541121 7.30636317,16.1570285 8.81422851,18.1815993 C10.3217061,20.2065577 12.8439888,21.20547 15.329447,20.7620258 C15.4864355,21.5919332 15.7042813,22.4094365 15.9810463,23.2075586 C15.9430589,23.2063957 15.9050716,23.2075586 15.8670843,23.2114348 C14.7549851,23.4137756 13.6153646,23.4137756 12.5032655,23.2114348 L12.5024903,23.2114348 Z M18.3971194,33.9754222 L16.044617,36.3283123 L14.8662338,35.1507043 L13.6882383,33.9727089 L16.044617,31.6171055 L16.0961712,31.6686597 L18.3971194,33.9754222 Z M6.62142793,48.1071047 C6.29582206,48.4323229 5.76865065,48.4323229 5.44304478,48.1071047 L1.90944591,44.5731182 C1.7532326,44.4172925 1.66562906,44.205261 1.66562906,43.9847018 C1.66562906,43.763755 1.7532326,43.5517235 1.90944591,43.3958978 L3.08744137,42.2179023 L7.79942349,46.9294968 L6.62142793,48.1071047 Z M15.455813,39.2731073 L8.97703144,45.7518889 L4.26543692,41.0399068 L10.7438309,34.5615128 C11.0733131,34.2471481 11.591569,34.2471481 11.9214388,34.5615128 L15.4554254,38.0954994 C15.7798684,38.4211053 15.7798684,38.9475014 15.455813,39.2731073 Z M20.1739971,33.3947584 L20.1666322,33.3835173 L17.2737792,30.4906642 L16.6318704,29.8468173 C16.3089779,29.5231496 16.3089779,28.9994668 16.6318704,28.675799 L18.0060047,27.3012771 C19.2603626,29.156843 20.8569943,30.756188 22.7098467,32.0140345 L21.3423021,33.3866183 C21.0213477,33.7102861 20.4992154,33.7137747 20.1736095,33.3947584 L20.1739971,33.3947584 Z M48.3338659,30.8604594 L48.3338659,35.8577342 L45.2607667,35.8577342 C44.9060889,35.8581219 44.5901736,36.0825574 44.4738859,36.4178539 C44.1040906,37.4795616 43.537769,38.461806 42.8043805,39.3138081 C42.5745182,39.5820452 42.5392443,39.965795 42.7156142,40.271632 L44.252939,42.9322971 L39.92742,45.4286088 L38.3947467,42.7714323 C38.2187645,42.4659829 37.8695134,42.3043429 37.5225881,42.3683013 C36.410489,42.5710296 35.2708685,42.5710296 34.1587694,42.3683013 C33.8118441,42.3035677 33.4622054,42.4652077 33.2866107,42.7714323 L31.7593642,45.4309346 L27.4334576,42.9291961 L28.966131,40.2720197 C29.1425008,39.9665702 29.1068392,39.5824329 28.8773645,39.3141957 C28.1435885,38.4625812 27.5772669,37.4799493 27.2074717,36.4182415 C27.0911838,36.082945 26.7752686,35.8577342 26.4205908,35.8577342 L23.3471039,35.8577342 L23.3471039,33.7339312 L24.1715845,32.9063496 C25.781783,33.7785083 27.5198982,34.3905697 29.3211964,34.7196642 C29.7801457,37.0748801 31.4721333,39.0006062 33.748661,39.7588027 C36.0251887,40.5173869 38.5339044,39.9909907 40.3138832,38.3815674 C42.0934743,36.7721441 42.8687264,34.3289371 42.3427179,31.9876759 C43.0923866,31.4705828 43.8005794,30.8957333 44.4610942,30.2689421 C44.4661333,30.2836719 44.4731106,30.2999521 44.4785373,30.3142943 C44.5983138,30.6426136 44.9111281,30.8608471 45.2607667,30.8604594 L48.3338659,30.8604594 Z" id="Shape"></path>
                            <path d="M18.5238731,15.5701627 C18.5180587,15.589544 18.5230978,15.6085377 18.518834,15.627919 C17.9323558,19.9910376 19.4126996,24.3785768 22.5230109,27.4943148 C22.7005437,27.67146 22.8908681,27.826898 23.0749904,27.992802 C23.0800296,27.9993916 23.0885573,28.0032679 23.0935964,28.0094699 C26.9307066,31.4857002 32.3601846,32.5881087 37.2493118,30.8841046 C42.138439,29.1797129 45.706149,24.9410222 46.5511738,19.8328862 C47.3958109,14.7247503 45.3832565,9.56312201 41.3031048,6.37528547 C41.2662804,6.34272489 41.2263549,6.31326531 41.1841037,6.28768194 C37.1934936,3.18783654 31.8508439,2.45716148 27.1741358,4.37125881 C22.4978153,6.28535623 19.2006682,10.5523437 18.5285246,15.5604721 L18.5238731,15.5701627 Z M31.1755994,29.8898438 C33.1133419,26.9314819 36.9399861,25.8616341 40.1313114,27.3857795 C37.5799567,29.3429035 34.3719637,30.2398701 31.1755994,29.8898438 Z M41.467846,26.2070088 C39.4316464,25.0278504 37.005495,24.7193001 34.7390455,25.3515181 C32.4722085,25.9833486 30.5557853,27.5024551 29.4235297,29.5654008 C27.7474347,29.1393998 26.1790997,28.3672488 24.8196953,27.2985637 C25.2061584,26.656655 25.6430129,26.046144 26.1263826,25.4736203 C26.358183,25.2061584 26.3946198,24.8208581 26.2174747,24.5146336 L23.8506301,20.4054098 C23.7897728,20.3019138 23.7727173,20.1786486 23.8029521,20.0623608 C23.8335746,19.9464606 23.9091616,19.8476161 24.0130454,19.787534 L30.6968812,15.9263911 C30.8011526,15.8655337 30.9255806,15.8492534 31.0426436,15.8810387 C31.1573809,15.9120488 31.2546751,15.9884112 31.3124314,16.092295 L33.6777254,20.1988052 C33.8548706,20.5019288 34.2021835,20.6631812 34.5483335,20.602324 C36.3224979,20.2778809 38.1408516,20.2778809 39.915016,20.602324 C40.261166,20.6647317 40.6092543,20.5030917 40.7852364,20.1988052 L43.153244,16.0880311 C43.2106126,15.9856978 43.3067439,15.910886 43.4199307,15.8806511 C43.5354432,15.8492534 43.6583207,15.8651461 43.7622044,15.9244528 L44.9812884,16.6248931 C45.23247,20.1739971 43.9540793,23.6614686 41.4682336,26.2070088 L41.467846,26.2070088 Z M44.6525815,14.5142694 L44.5890108,14.4778326 C44.1029277,14.1999046 43.5261402,14.1262557 42.9857895,14.2727783 C42.4442759,14.4169752 41.9833885,14.7732036 41.7070112,15.2608371 L39.628948,18.868085 C38.038906,18.6335713 36.4232806,18.6335713 34.8332387,18.868085 L32.7586641,15.2654887 C32.4822868,14.7755294 32.0202366,14.4177505 31.4767848,14.2727783 C30.9344959,14.125868 30.3561579,14.2006799 29.868912,14.4809336 L23.178099,18.3463403 C22.6920159,18.6273693 22.3377257,19.0905823 22.1935288,19.6336465 C22.049332,20.1763229 22.1268572,20.7542734 22.4094365,21.2395811 L24.4859492,24.8445033 C24.1545289,25.2662405 23.8448158,25.7046454 23.5579725,26.158168 C21.1647693,23.6820128 19.9042094,20.3251713 20.0763154,16.8857654 L21.450062,17.2830822 C21.6229433,17.3272715 21.8008636,17.3501415 21.9795593,17.3501415 C22.9424223,17.3478157 23.7816327,16.6942782 24.0200227,15.7612623 L25.0658377,11.7369288 C25.8627969,11.6369213 26.6512283,11.4791575 27.4253174,11.265188 C28.1966933,11.0512184 28.9517887,10.7822059 29.6847896,10.4604762 L32.644702,13.3839518 C33.4780981,14.202618 34.8157954,14.1971912 35.6422143,13.3711602 L40.8046178,8.13743339 C40.9941669,8.30527544 41.1875923,8.46614027 41.3693889,8.64793696 C42.9830761,10.2635623 44.1192081,12.2939474 44.6525815,14.5142694 Z M23.7010065,8.64793696 C27.9214788,4.43676768 34.5277894,3.79020735 39.4847511,7.10363482 L34.4642187,12.1927771 C34.3808791,12.2811558 34.2649789,12.3315471 34.1436519,12.3334852 C34.022325,12.3350358 33.9052619,12.2877454 33.819209,12.2024677 L30.4460871,8.87082186 C30.1956808,8.6239041 29.8173578,8.56072103 29.5002796,8.71228283 C28.6901412,9.10223458 27.8470546,9.41892513 26.9810981,9.65964087 C26.1135909,9.89919371 25.2259274,10.0604461 24.3293483,10.1410724 C23.979322,10.1728577 23.6866643,10.4209384 23.5982856,10.761274 L22.4059479,15.3476653 C22.3776511,15.462015 22.3047775,15.5604721 22.2032195,15.6209417 C22.1090263,15.678698 21.9962271,15.6984669 21.8876918,15.6763722 L20.2596625,15.2054066 C20.713185,12.7203361 21.9136628,10.4325671 23.7010065,8.64793696 Z" id="Shape"></path>
                        </g>
                    </g>
                </g>
            </g>
        </g>
    </g>
</svg>