<?xml version="1.0" encoding="UTF-8"?>
<svg width="42px" height="50px" viewBox="0 0 42 50" version="1.1" xmlns="http://www.w3.org/2000/svg" xmlns:xlink="http://www.w3.org/1999/xlink">
    <!-- Generator: Sketch 52.6 (67491) - http://www.bohemiancoding.com/sketch -->
    <title>idea</title>
    <desc>Created with Sketch.</desc>
    <g id="Page-1" stroke="none" stroke-width="1" fill="none" fill-rule="evenodd">
        <g id="Account-Dashboard-(new)" transform="translate(-1170.000000, -524.000000)" fill="#0093E0" fill-rule="nonzero">
            <g id="potential-areas-copy" transform="translate(435.000000, 416.000000)">
                <g id="area-box-copy-12" transform="translate(657.000000, 85.000000)">
                    <g id="image-placeholder">
                        <g id="idea" transform="translate(78.000000, 23.000000)">
                            <path d="M29.0549631,34.9775512 L29.0549631,33.6496693 C29.0513162,31.2167726 30.0250421,28.8847738 31.7573262,27.1763972 C34.8166817,24.2203709 36.5380251,20.1443367 36.5238427,15.8904143 C36.5327574,8.70923558 31.6876297,2.4292499 24.7394482,0.615112863 C17.7912668,-1.19902427 10.4950078,1.91098288 6.9919444,8.1800279 C3.48888091,14.4486676 4.6644029,22.2927743 9.8511249,27.2594658 C11.5501815,28.9479869 12.4910853,31.2540521 12.4574527,33.6496693 L12.4574527,34.9775512 C10.8390333,34.9734991 9.45482687,36.1405115 9.18495529,37.736239 C8.91508361,39.3319664 9.83815809,40.8891987 11.3678359,41.4180011 C10.6810004,42.4354901 10.6113038,43.7487843 11.1867058,44.8331334 C11.762513,45.9170773 12.8898145,46.594998 14.1172037,46.5958085 L15.0301478,46.5958085 C15.4272562,48.5262416 17.1255025,49.9124741 19.0964568,49.9153106 L22.4159589,49.9153106 C24.3869133,49.9124741 26.0855647,48.5262416 26.4822678,46.5958085 L27.395212,46.5958085 C28.6226011,46.594998 29.7494975,45.9166721 30.3253048,44.8327282 C30.9007066,43.7483791 30.8310102,42.435085 30.1437695,41.4180011 C31.6734472,40.8891987 32.5965217,39.3323716 32.3270552,37.7366442 C32.0571836,36.1409168 30.6733824,34.9739044 29.0549631,34.9775512 Z M10.9986871,26.0628728 C7.93487427,23.1356166 6.35292407,18.9838077 6.6933027,14.759871 C7.28248185,8.0653527 12.4712299,2.69344855 19.1414355,1.87208247 C25.1349358,1.18038444 30.9047588,4.3791332 33.4932573,9.82883817 C36.0821609,15.2785432 34.9163641,21.7716707 30.5935555,25.9806146 C28.5419638,28.0042467 27.3891338,30.7677969 27.395212,33.6496693 L27.395212,34.9775512 L14.1172037,34.9775512 L14.1172037,33.6496693 C14.1492156,30.8026452 13.0239399,28.064218 10.9986871,26.0628728 Z M22.4159589,48.2555595 L19.0964568,48.2555595 C18.0453352,48.2511022 17.1101044,47.5869586 16.7595954,46.5958085 L24.7528203,46.5958085 C24.4027166,47.5869586 23.4674857,48.2511022 22.4159589,48.2555595 Z M27.395212,44.9360575 L14.1172037,44.9360575 C13.2006127,44.9360575 12.4574527,44.1928974 12.4574527,43.2763064 C12.4574527,42.3593102 13.2006127,41.6165554 14.1172037,41.6165554 L27.395212,41.6165554 C28.311803,41.6165554 29.0549631,42.3593102 29.0549631,43.2763064 C29.0549631,44.1928974 28.311803,44.9360575 27.395212,44.9360575 Z M29.0549631,39.9568044 L12.4574527,39.9568044 C11.5408616,39.9568044 10.7977017,39.2136443 10.7977017,38.2970533 C10.7977017,37.3800571 11.5408616,36.6373023 12.4574527,36.6373023 L29.0549631,36.6373023 C29.971554,36.6373023 30.7147141,37.3800571 30.7147141,38.2970533 C30.7147141,39.2136443 29.971554,39.9568044 29.0549631,39.9568044 Z" id="Shape"></path>
                            <polygon id="Path" points="38.1835938 15.0605388 41.5030959 15.0605388 41.5030959 16.7202898 38.1835938 16.7202898"></polygon>
                            <polygon id="Path" points="35.4342259 6.45706369 38.3088045 4.79731266 39.13868 6.23500716 36.2636962 7.8943529"></polygon>
                            <polygon id="Path" points="2.37373568 6.23622282 3.2036112 4.79893351 6.07818983 6.45868454 5.24831432 7.89597386"></polygon>
                            <polygon id="Path" points="0.00931989627 15.0605388 3.32882199 15.0605388 3.32882199 16.7202898 0.00931989627 16.7202898"></polygon>
                            <polygon id="Path" points="2.37495135 25.5442006 5.24993517 23.8844496 6.0794055 25.3221441 3.20442168 26.9814898"></polygon>
                            <polygon id="Path" points="35.4342259 25.3229545 36.2641015 23.8856651 39.13868 25.5454162 38.3088045 26.9827055"></polygon>
                            <path d="M17.3536371,23.7300635 L17.7851887,22.8661502 L18.3139912,24.4513421 C18.4262351,24.788479 18.7410853,25.0170189 19.0964568,25.019045 L22.4159589,25.019045 C22.7729512,25.0186398 23.0898276,24.7900998 23.2028818,24.4513421 L23.7312791,22.8661502 L24.1628307,23.7300635 C24.3034394,24.0112811 24.5911405,24.1891695 24.9055855,24.1891695 L27.8575596,24.1891695 C28.401355,24.1887643 28.9107074,23.9221343 29.2211002,23.4751848 C29.531088,23.0282353 29.6024054,22.4576959 29.4119554,21.9483435 L27.7465313,17.5084284 C27.4207405,16.6477567 26.6479999,16.0354804 25.735461,15.9151323 L25.735461,11.0643315 C25.7391079,10.2336456 25.4899021,9.42159948 25.0210711,8.73597967 C22.5346862,5.10203257 21.1962688,5.10203257 20.7562079,5.10203257 C20.3165521,5.10203257 18.9777295,5.10203257 16.4925603,8.73516919 C16.0233241,9.420789 15.7737131,10.2332405 15.7769548,11.0643315 L15.7769548,15.9151323 C14.8652262,16.0350752 14.092891,16.6461359 13.7662895,17.5059971 L12.1008656,21.9483435 C11.9104156,22.4576959 11.981733,23.0282353 12.2917207,23.4751848 C12.6017084,23.9221343 13.1110607,24.1887643 13.6552613,24.1891695 L16.6068303,24.1891695 C16.9228962,24.1907904 17.2126232,24.012902 17.3536371,23.7300635 Z M19.6949559,23.359294 L19.4177905,22.5294185 L22.0950305,22.5294185 L21.817865,23.359294 L19.6949559,23.359294 Z M26.1921357,18.0886929 L27.8575596,22.5294185 L25.4185846,22.5294185 L25.3464568,22.3847575 C25.5855323,22.2384757 25.7322193,21.9795448 25.735461,21.6995429 L25.735461,17.623914 C25.9449559,17.7094139 26.1102827,17.8775772 26.1921357,18.0886929 Z M17.4367058,11.0643315 C17.4342745,10.5683512 17.5821772,10.0829065 17.8617739,9.67283133 C19.4368355,7.37000778 20.4441941,6.76178361 20.7562079,6.76178361 C21.0682216,6.76178361 22.0759855,7.37000778 23.6518575,9.6736417 C23.9306438,10.0837169 24.0785465,10.5687564 24.07571,11.0643315 L24.07575,20.8696674 L21.5860834,20.8696674 L21.5860834,15.8904143 L19.9263324,15.8904143 L19.9263324,20.8696674 L17.4366763,20.8696674 L17.4367058,11.0643315 Z M13.6552613,22.5294185 L15.3206853,18.0878826 C15.4029435,17.877172 15.567865,17.7094139 15.7769548,17.623914 L15.7769548,21.6995429 C15.7801965,21.9795448 15.9272886,22.2384757 16.1663641,22.3847575 L16.0942363,22.5294185 L13.6552613,22.5294185 Z" id="Shape"></path>
                            <path d="M20.7562079,13.4007878 C22.1314996,13.4007878 23.2458344,12.2860477 23.2458344,10.9111612 C23.2458344,9.5358694 22.1314996,8.42153465 20.7562079,8.42153465 C19.3813214,8.42153465 18.2665813,9.5358694 18.2665813,10.9111612 C18.2665813,12.2860477 19.3813214,13.4007878 20.7562079,13.4007878 Z M20.7562079,10.0812857 C21.2145033,10.0812857 21.5860834,10.4528657 21.5860834,10.9111612 C21.5860834,11.3694566 21.2145033,11.7410367 20.7562079,11.7410367 C20.2979123,11.7410367 19.9263324,11.3694566 19.9263324,10.9111612 C19.9263324,10.4528657 20.2979123,10.0812857 20.7562079,10.0812857 Z" id="Shape"></path>
                            <polygon id="Path" points="19.9263324 28.3385471 21.5860834 28.3385471 21.5860834 33.3178002 19.9263324 33.3178002"></polygon>
                            <polygon id="Path" points="23.2458344 26.6787961 24.9055855 26.6787961 24.9055855 31.6580492 23.2458344 31.6580492"></polygon>
                            <polygon id="Path" points="16.6068303 26.6787961 18.2665813 26.6787961 18.2665813 31.6580492 16.6068303 31.6580492"></polygon>
                        </g>
                    </g>
                </g>
            </g>
        </g>
    </g>
</svg>