<svg xmlns="http://www.w3.org/2000/svg" width="27.613" height="32" viewBox="0 0 27.613 32">
  <g id="Group_974" data-name="Group 974" transform="translate(-667 -1328)">
    <g id="_x34__x2C_business_x2C_globe_x2C_world_x2C_economic" transform="translate(639.517 1303.021)">
      <g id="Group_695" data-name="Group 695" transform="translate(27.483 24.979)">
        <path id="Path_377" data-name="Path 377" d="M155.832,365.574c1.288,2.484,2.966,3.9,4.748,4.017v-7.509a28.419,28.419,0,0,0-5.879.68A16.734,16.734,0,0,0,155.832,365.574Z" transform="translate(-147.016 -341.715)" fill="#b2bbbf"/>
        <path id="Path_378" data-name="Path 378" d="M139.068,266.072a28.818,28.818,0,0,1,6.015-.707v-5.693h-6.875A24.818,24.818,0,0,0,139.068,266.072Z" transform="translate(-131.518 -245.492)" fill="#b2bbbf"/>
        <path id="Path_379" data-name="Path 379" d="M155.833,29a16.739,16.739,0,0,0-1.13,2.812,28.425,28.425,0,0,0,5.879.68V24.979C158.8,25.1,157.122,26.512,155.833,29Z" transform="translate(-147.017 -24.979)" fill="#b2bbbf"/>
        <path id="Path_380" data-name="Path 380" d="M138.208,152.15h6.875v-5.693a28.815,28.815,0,0,1-6.015-.707A24.815,24.815,0,0,0,138.208,152.15Z" transform="translate(-131.518 -138.453)" fill="#b2bbbf"/>
        <path id="Path_381" data-name="Path 381" d="M81.331,31.822a8.871,8.871,0,0,1,3.076-3.6,13.8,13.8,0,0,0-8.54,5.168,31.87,31.87,0,0,0,4.291,1.356A17.25,17.25,0,0,1,81.331,31.822Z" transform="translate(-72.944 -28.028)" fill="#b2bbbf"/>
        <path id="Path_382" data-name="Path 382" d="M34.561,121.836a32.7,32.7,0,0,1-4.454-1.422,13.954,13.954,0,0,0-2.624,7.93h6.206A25.324,25.324,0,0,1,34.561,121.836Z" transform="translate(-27.483 -114.648)" fill="#b2bbbf"/>
        <path id="Path_383" data-name="Path 383" d="M264.748,29c-1.288-2.484-2.967-3.9-4.748-4.017v7.509a28.134,28.134,0,0,0,5.881-.671A16.743,16.743,0,0,0,264.748,29Z" transform="translate(-245.952 -24.979)" fill="#b2bbbf"/>
        <path id="Path_384" data-name="Path 384" d="M81.332,378.048a17.229,17.229,0,0,1-1.173-2.927,31.9,31.9,0,0,0-4.291,1.356,13.8,13.8,0,0,0,8.54,5.169A8.871,8.871,0,0,1,81.332,378.048Z" transform="translate(-72.945 -353.966)" fill="#b2bbbf"/>
        <path id="Path_385" data-name="Path 385" d="M33.689,259.672H27.483a13.954,13.954,0,0,0,2.624,7.93,32.718,32.718,0,0,1,4.454-1.421A25.324,25.324,0,0,1,33.689,259.672Z" transform="translate(-27.483 -245.492)" fill="#b2bbbf"/>
        <path id="Path_386" data-name="Path 386" d="M264.748,365.568a16.742,16.742,0,0,0,1.133-2.821,28.151,28.151,0,0,0-5.881-.671v7.509C261.782,369.467,263.46,368.051,264.748,365.568Z" transform="translate(-245.952 -341.708)" fill="#b2bbbf"/>
        <path id="Path_387" data-name="Path 387" d="M297.857,31.822a17.241,17.241,0,0,1,1.176,2.935,31.118,31.118,0,0,0,4.289-1.364,13.8,13.8,0,0,0-8.541-5.169A8.871,8.871,0,0,1,297.857,31.822Z" transform="translate(-278.631 -28.028)" fill="#b2bbbf"/>
        <path id="Path_388" data-name="Path 388" d="M368.27,128.348h6.207a13.954,13.954,0,0,0-2.624-7.93,31.949,31.949,0,0,1-4.452,1.43A25.327,25.327,0,0,1,368.27,128.348Z" transform="translate(-346.864 -114.652)" fill="#b2bbbf"/>
        <path id="Path_389" data-name="Path 389" d="M367.4,266.172a31.919,31.919,0,0,1,4.452,1.43,13.955,13.955,0,0,0,2.624-7.93H368.27A25.329,25.329,0,0,1,367.4,266.172Z" transform="translate(-346.864 -245.492)" fill="#b2bbbf"/>
        <path id="Path_390" data-name="Path 390" d="M266.018,145.9a28.514,28.514,0,0,1-6.018.7v5.693h6.875A24.821,24.821,0,0,0,266.018,145.9Z" transform="translate(-245.952 -138.59)" fill="#b2bbbf"/>
        <path id="Path_391" data-name="Path 391" d="M266.875,259.672H260v5.692a28.519,28.519,0,0,1,6.018.7A24.821,24.821,0,0,0,266.875,259.672Z" transform="translate(-245.952 -245.492)" fill="#b2bbbf"/>
        <path id="Path_392" data-name="Path 392" d="M297.857,377.913a8.871,8.871,0,0,1-3.076,3.6,13.8,13.8,0,0,0,8.541-5.169,31.121,31.121,0,0,0-4.289-1.364A17.24,17.24,0,0,1,297.857,377.913Z" transform="translate(-278.631 -353.832)" fill="#b2bbbf"/>
      </g>
    </g>
    <g id="Group_696" data-name="Group 696" transform="translate(589 21.222)">
      <g id="Rectangle_889" data-name="Rectangle 889" transform="translate(85 1314.778)" fill="#b2bbbf" stroke="#fff" stroke-width="1">
        <rect width="14" height="23" rx="1" stroke="none"/>
        <rect x="-0.5" y="-0.5" width="15" height="24" rx="1.5" fill="none"/>
      </g>
      <circle id="Ellipse_28" data-name="Ellipse 28" cx="1.167" cy="1.167" r="1.167" transform="translate(90.833 1332.889)" fill="#fff"/>
    </g>
  </g>
</svg>
