<svg xmlns="http://www.w3.org/2000/svg" width="31.678" height="30.248" viewBox="0 0 31.678 30.248">
  <g id="Group_976" data-name="Group 976" transform="translate(-519 -1131)">
    <g id="Icon_material-airplanemode-active" data-name="Icon material-airplanemode-active" transform="translate(516 1128)">
      <path id="Path_398" data-name="Path 398" d="M15.27,13.5" fill="#b2bbbf"/>
      <path id="Path_399" data-name="Path 399" d="M31.5,24V21l-12-7.5V5.25a2.25,2.25,0,0,0-4.5,0V13.5L3,21v3l12-3.75V28.5l-3,2.25V33l5.25-1.5L22.5,33V30.75l-3-2.25V20.25Z" fill="#b2bbbf"/>
    </g>
    <g id="Path_400" data-name="Path 400" transform="translate(-205.863 635.527)" fill="#b2bbbf">
      <path d="M 748.11669921875 524.9708251953125 C 747.9979248046875 524.9708251953125 747.819580078125 524.9586181640625 747.6448364257812 524.9002075195312 L 747.5669555664062 524.8742065429688 L 747.49658203125 524.8319702148438 L 747.461669921875 524.81103515625 L 747.4365234375 524.81103515625 L 747.2691650390625 524.72021484375 C 745.7542114257812 523.8978881835938 744.5089721679688 522.91015625 743.5678100585938 521.7842407226562 C 742.2389526367188 520.3087768554688 741.5650634765625 518.7341918945312 741.1736450195312 517.6771240234375 L 741.171630859375 517.6717529296875 L 741.1697387695312 517.6663208007812 C 740.8865966796875 516.8641357421875 740.7131958007812 516.1848754882812 740.6245727539062 515.530517578125 C 740.4427490234375 514.5048217773438 740.4341430664062 513.760986328125 740.4453125 513.4078979492188 L 740.4454345703125 513.4037475585938 L 740.4454345703125 512.9869384765625 C 740.4454345703125 512.4398803710938 740.8513793945312 511.8523559570312 741.5176391601562 511.7766723632812 L 741.8101196289062 511.67919921875 L 741.8319091796875 511.6719665527344 L 741.85400390625 511.6660766601562 C 742.28857421875 511.5502014160156 742.6461181640625 511.3502807617188 742.8104248046875 511.1312866210938 L 742.8173828125 511.1220092773438 L 742.8246459960938 511.1129150390625 C 743.1674194335938 510.6844482421875 743.17138671875 510.1387634277344 743.17138671875 510.13330078125 L 743.17138671875 509.7073364257812 C 743.17138671875 509.0707397460938 743.6176147460938 508.5600891113281 744.2596435546875 508.4574890136719 L 744.5849609375 508.3923645019531 C 744.8036499023438 508.3038024902344 745.1860961914062 508.2037963867188 745.8880615234375 508.1147766113281 C 746.3992309570312 508.0133666992188 747.3517456054688 507.8499755859375 748.1806640625 507.8499755859375 C 748.9627075195312 507.8499755859375 749.861572265625 508.0005493164062 750.4754028320312 508.1154479980469 C 750.8412475585938 508.1682434082031 751.1746215820312 508.2355346679688 751.3963012695312 508.2802734375 C 751.4644775390625 508.2940368652344 751.5462646484375 508.310546875 751.5902099609375 508.3184204101562 L 751.8563842773438 508.3184204101562 L 751.9641723632812 508.4263916015625 L 752.11083984375 508.458984375 C 752.7479248046875 508.5650024414062 753.1898803710938 509.0737915039062 753.1898803710938 509.7073364257812 L 753.1898803710938 510.13330078125 L 753.1898803710938 510.7188415527344 L 753.1810913085938 510.7210388183594 C 753.2290649414062 510.841552734375 753.3019409179688 510.979248046875 753.4088745117188 511.1128845214844 L 753.412109375 511.1169128417969 L 753.415283203125 511.1209716796875 C 753.5468139648438 511.2901306152344 753.7753295898438 511.5049743652344 754.3795166015625 511.6660766601562 L 754.3906860351562 511.6690368652344 L 754.4017333984375 511.67236328125 L 754.7921142578125 511.7894592285156 C 755.3638305664062 511.9116516113281 755.7880859375 512.416748046875 755.7880859375 512.9869384765625 L 755.7880859375 513.40380859375 L 755.7882080078125 513.407958984375 C 755.7993774414062 513.7618408203125 755.7906494140625 514.5082397460938 755.6077270507812 515.53759765625 C 755.5171508789062 516.1217041015625 755.3436279296875 516.8637084960938 755.11865234375 517.6283569335938 L 755.1109619140625 517.654541015625 L 755.1013793945312 517.6801147460938 C 754.7567138671875 518.598876953125 754.1804809570312 519.9721069335938 753.1596069335938 521.2844848632812 L 753.1544189453125 521.2911987304688 L 753.1490478515625 521.2977905273438 C 752.0181274414062 522.6857299804688 750.609130859375 523.8377685546875 748.9611206054688 524.721923828125 L 748.95166015625 524.7269897460938 L 748.9420166015625 524.7318115234375 L 748.6864624023438 524.859619140625 L 748.6389770507812 524.8834228515625 L 748.5885009765625 524.9002685546875 C 748.4137573242188 524.9586181640625 748.2354736328125 524.9708251953125 748.11669921875 524.9708251953125 Z" stroke="none"/>
      <path d="M 748.1806640625 508.5999755859375 C 747.4991455078125 508.5999755859375 746.6473388671875 508.7276611328125 746.0084228515625 508.8555297851562 C 745.326904296875 508.940673828125 744.8583984375 509.0684204101562 744.815673828125 509.111083984375 L 744.3898315429688 509.1962890625 C 744.0917358398438 509.2388305664062 743.92138671875 509.4517822265625 743.92138671875 509.7073364257812 L 743.92138671875 510.13330078125 C 743.92138671875 510.1759033203125 743.92138671875 510.9425659179688 743.4103393554688 511.5814208984375 C 743.1546630859375 511.9221801757812 742.6861572265625 512.2203979492188 742.0472412109375 512.3907470703125 L 741.6638793945312 512.5184936523438 C 741.3657836914062 512.5184936523438 741.1954345703125 512.7740478515625 741.1954345703125 512.9869384765625 L 741.1954345703125 513.412841796875 C 741.1954345703125 513.4554443359375 741.15283203125 514.22216796875 741.3657836914062 515.414794921875 C 741.450927734375 516.0535888671875 741.6213989257812 516.692626953125 741.876953125 517.4166870117188 C 742.3027954101562 518.5665893554688 742.9417724609375 519.97216796875 744.1343383789062 521.2925415039062 C 744.9862060546875 522.3147583007812 746.1361083984375 523.2518310546875 747.626953125 524.06103515625 L 747.66943359375 524.06103515625 L 747.8824462890625 524.1888427734375 C 747.9462890625 524.210205078125 748.031494140625 524.2208251953125 748.11669921875 524.2208251953125 C 748.201904296875 524.2208251953125 748.287109375 524.210205078125 748.3510131835938 524.1888427734375 L 748.6065673828125 524.06103515625 C 750.3528442382812 523.1241455078125 751.6305541992188 521.9740600585938 752.567626953125 520.8240356445312 C 753.462158203125 519.6740112304688 754.0157470703125 518.4387817382812 754.399169921875 517.4166870117188 C 754.6121826171875 516.692626953125 754.7825317382812 515.9683837890625 754.8677978515625 515.414794921875 C 755.08056640625 514.22216796875 755.0380859375 513.4554443359375 755.0380859375 513.412841796875 L 755.0380859375 512.9869384765625 C 755.0380859375 512.7740478515625 754.8677978515625 512.56103515625 754.6121826171875 512.5184936523438 L 754.186279296875 512.3907470703125 C 753.54736328125 512.2203979492188 753.1213989257812 511.9647827148438 752.8232421875 511.5814208984375 C 752.3121337890625 510.9425659179688 752.26953125 510.1759033203125 752.4398803710938 510.13330078125 L 752.4398803710938 509.7073364257812 C 752.4398803710938 509.4517822265625 752.26953125 509.2388305664062 751.9713745117188 509.1962890625 L 751.5880126953125 509.111083984375 L 751.54541015625 509.0684204101562 C 751.4602661132812 509.0684204101562 750.9491577148438 508.940673828125 750.3528442382812 508.8555297851562 C 749.67138671875 508.7276611328125 748.862060546875 508.5999755859375 748.1806640625 508.5999755859375 M 748.1806640625 507.0999755859375 C 749.0182495117188 507.0999755859375 749.9552001953125 507.25537109375 750.5980834960938 507.3753662109375 C 750.9783325195312 507.4307861328125 751.3178100585938 507.4993286132812 751.544677734375 507.5451049804688 C 751.58251953125 507.552734375 751.6254272460938 507.5614013671875 751.6610717773438 507.5684204101562 L 752.1673583984375 507.5684204101562 L 752.3378295898438 507.7391357421875 C 753.2750244140625 507.9432983398438 753.9398803710938 508.7479858398438 753.9398803710938 509.7073364257812 L 753.9398803710938 510.13330078125 L 753.9398803710938 510.5667724609375 C 753.9556274414062 510.59228515625 753.9737548828125 510.618408203125 753.9945068359375 510.6443481445312 L 754.0009765625 510.6524047851562 L 754.0072631835938 510.6605224609375 C 754.0421752929688 510.7054443359375 754.1349487304688 510.8246459960938 754.5726928710938 510.94140625 L 754.5950317382812 510.9473266601562 L 754.6171875 510.9539794921875 L 754.9797973632812 511.062744140625 C 755.889892578125 511.27001953125 756.5380859375 512.0607299804688 756.5380859375 512.9869384765625 L 756.5380859375 513.3924560546875 C 756.5497436523438 513.7776489257812 756.5396728515625 514.5762329101562 756.3475952148438 515.66064453125 C 756.2517700195312 516.2752075195312 756.0711059570312 517.0482177734375 755.8381958007812 517.8400268554688 L 755.82275390625 517.8923950195312 L 755.8035888671875 517.9435424804688 C 755.4417114257812 518.908203125 754.8353271484375 520.351806640625 753.7516479492188 521.7449951171875 L 753.7412109375 521.7584228515625 L 753.73046875 521.7715454101562 C 752.5366821289062 523.2366333007812 751.0513305664062 524.45166015625 749.3157348632812 525.3828125 L 749.2967529296875 525.3929443359375 L 749.2775268554688 525.402587890625 L 749.02197265625 525.5303955078125 L 748.9268188476562 525.5780029296875 L 748.825927734375 525.6116943359375 C 748.6089477539062 525.68408203125 748.3703002929688 525.7208251953125 748.11669921875 525.7208251953125 C 747.863037109375 525.7208251953125 747.6243286132812 525.68408203125 747.4072875976562 525.611572265625 L 747.255859375 525.56103515625 L 747.24609375 525.56103515625 L 746.911376953125 525.37939453125 C 745.3175659179688 524.5142822265625 744.002197265625 523.47021484375 743.001220703125 522.2757568359375 C 741.5923461914062 520.707763671875 740.88232421875 519.0501098632812 740.4703369140625 517.9376220703125 L 740.46630859375 517.9268188476562 L 740.4624633789062 517.9158935546875 C 740.1640625 517.0703735351562 739.9796752929688 516.3480834960938 739.8834838867188 515.646484375 C 739.6936645507812 514.5693359375 739.6837768554688 513.77587890625 739.6954345703125 513.3922729492188 L 739.6954345703125 512.9869384765625 C 739.6954345703125 512.0114135742188 740.4088134765625 511.1994018554688 741.3411865234375 511.044921875 L 741.5730590820312 510.9676513671875 L 741.6165161132812 510.9531860351562 L 741.6608276367188 510.94140625 C 742.0106811523438 510.8480834960938 742.1776123046875 510.7201538085938 742.21240234375 510.6787719726562 L 742.2263793945312 510.66015625 L 742.239013671875 510.6444091796875 C 742.3795166015625 510.46875 742.4180297851562 510.21435546875 742.42138671875 510.1270141601562 L 742.42138671875 509.7073364257812 C 742.42138671875 508.713623046875 743.1347045898438 507.8858032226562 744.1251220703125 507.7195434570312 L 744.3714599609375 507.6702270507812 C 744.6616821289062 507.564697265625 745.0947875976562 507.460693359375 745.767822265625 507.3740234375 C 746.3125 507.266845703125 747.3020629882812 507.0999755859375 748.1806640625 507.0999755859375 Z" stroke="none" fill="#fff"/>
    </g>
  </g>
</svg>
