<svg xmlns="http://www.w3.org/2000/svg" width="17" height="13.807" viewBox="0 0 17 13.807">
  <path id="Icon_awesome-twitter" data-name="Icon awesome-twitter" d="M15.253,6.822c.011.151.011.3.011.453A9.845,9.845,0,0,1,5.35,17.188,9.846,9.846,0,0,1,0,15.624a7.208,7.208,0,0,0,.841.043,6.978,6.978,0,0,0,4.326-1.489,3.49,3.49,0,0,1-3.258-2.416,4.394,4.394,0,0,0,.658.054,3.685,3.685,0,0,0,.917-.119A3.485,3.485,0,0,1,.69,8.278V8.235a3.509,3.509,0,0,0,1.575.442,3.489,3.489,0,0,1-1.079-4.66A9.9,9.9,0,0,0,8.371,7.663a3.933,3.933,0,0,1-.086-.8,3.487,3.487,0,0,1,6.03-2.384,6.86,6.86,0,0,0,2.211-.841,3.475,3.475,0,0,1-1.532,1.92A6.985,6.985,0,0,0,17,5.02a7.49,7.49,0,0,1-1.747,1.8Z" transform="translate(0 -3.381)" fill="#122c3a"/>
</svg>
