<?xml version="1.0" encoding="UTF-8"?>
<svg width="20px" height="20px" viewBox="0 0 20 20" version="1.1" xmlns="http://www.w3.org/2000/svg" xmlns:xlink="http://www.w3.org/1999/xlink">
    <!-- Generator: Sketch 52.6 (67491) - http://www.bohemiancoding.com/sketch -->
    <title>bank</title>
    <desc>Created with Sketch.</desc>
    <g id="Page-1" stroke="none" stroke-width="1" fill="none" fill-rule="evenodd">
        <g id="User-Profile" transform="translate(-159.000000, -291.000000)" fill="#0093E0" fill-rule="nonzero">
            <g id="filter" transform="translate(135.000000, 105.000000)">
                <g id="Group-5" transform="translate(24.000000, 184.000000)">
                    <g id="bank" transform="translate(0.000000, 2.000000)">
                        <path d="M18.9533,8.8274 C19.6775,8.8274 19.9798,7.89697 19.3916,7.46807 L10.4408,0.95713 C10.3129,0.86348 10.1586,0.81299 10.0001,0.81299 C9.8417,0.81299 9.6873,0.86348 9.5595,0.95713 L0.60874,7.46807 C0.02046,7.89463 0.3228,8.8274 1.04936,8.8274 L2.50015,8.8274 L2.50015,17.5931 L0.81265,17.5931 C0.70952,17.5931 0.62515,17.6774 0.62515,17.7806 L0.62515,18.9993 C0.62515,19.1024 0.70952,19.1868 0.81265,19.1868 L19.1876,19.1868 C19.2908,19.1868 19.3751,19.1024 19.3751,18.9993 L19.3751,17.7806 C19.3751,17.6774 19.2908,17.5931 19.1876,17.5931 L17.5001,17.5931 L17.5001,8.8274 L18.9533,8.8274 Z M10.0001,2.60947 L16.354,7.23135 L3.64624,7.23135 L10.0001,2.60947 Z M4.18764,8.8274 L6.92983,8.8274 L6.92983,17.5931 L4.18764,17.5931 L4.18764,8.8274 Z M8.6173,8.8274 L11.3595,8.8274 L11.3595,17.5931 L8.6173,17.5931 L8.6173,8.8274 Z M15.8126,17.5931 L13.047,17.5931 L13.047,8.8274 L15.8126,8.8274 L15.8126,17.5931 Z" id="Shape"></path>
                    </g>
                </g>
            </g>
        </g>
    </g>
</svg>