<?xml version="1.0" encoding="UTF-8"?>
<svg width="22px" height="22px" viewBox="0 0 22 22" version="1.1" xmlns="http://www.w3.org/2000/svg" xmlns:xlink="http://www.w3.org/1999/xlink">
    <!-- Generator: Sketch 52.6 (67491) - http://www.bohemiancoding.com/sketch -->
    <title>logout</title>
    <desc>Created with Sketch.</desc>
    <g id="Page-1" stroke="none" stroke-width="1" fill="none" fill-rule="evenodd">
        <g id="User-Profile" transform="translate(-158.000000, -514.000000)" fill="#0093E0" fill-rule="nonzero">
            <g id="filter" transform="translate(135.000000, 105.000000)">
                <g id="Group" transform="translate(23.000000, 408.000000)">
                    <g id="logout" transform="translate(0.000000, 1.000000)">
                        <path d="M19.3443,16.1548 L17.6966,16.1548 C17.5841,16.1548 17.4786,16.204 17.4083,16.2908 C17.2443,16.49 17.0685,16.6822 16.8833,16.865 C16.1261,17.623 15.229,18.2271 14.2419,18.6439 C13.2192,19.0758 12.1201,19.2974 11.0099,19.2954 C9.8872,19.2954 8.79974,19.0751 7.77787,18.6439 C6.79074,18.2271 5.89374,17.623 5.13646,16.865 C4.37782,16.1095 3.7729,15.2141 3.35521,14.2283 C2.92162,13.2064 2.70365,12.1212 2.70365,10.9986 C2.70365,9.8759 2.92396,8.79076 3.35521,7.76888 C3.7724,6.78217 4.3724,5.89388 5.13646,5.13216 C5.90052,4.37045 6.7888,3.77045 7.77787,3.35326 C8.79974,2.92201 9.8872,2.7017 11.0099,2.7017 C12.1326,2.7017 13.2201,2.91966 14.2419,3.35326 C15.231,3.77045 16.1193,4.37045 16.8833,5.13216 C17.0685,5.31732 17.2419,5.50951 17.4083,5.70638 C17.4786,5.7931 17.5865,5.84232 17.6966,5.84232 L19.3443,5.84232 C19.4919,5.84232 19.5833,5.67826 19.5013,5.55404 C17.7036,2.76029 14.5583,0.91107 10.9841,0.92045 C5.36849,0.93451 0.86615,5.4931 0.9224,11.1017 C0.97865,16.6212 5.47396,21.0767 11.0099,21.0767 C14.5747,21.0767 17.706,19.2298 19.5013,16.4431 C19.581,16.3189 19.4919,16.1548 19.3443,16.1548 Z M21.4279,10.8509 L18.1021,8.22591 C17.9779,8.12748 17.7974,8.21654 17.7974,8.37357 L17.7974,10.1548 L10.438,10.1548 C10.3349,10.1548 10.2505,10.2392 10.2505,10.3423 L10.2505,11.6548 C10.2505,11.7579 10.3349,11.8423 10.438,11.8423 L17.7974,11.8423 L17.7974,13.6236 C17.7974,13.7806 17.9802,13.8697 18.1021,13.7712 L21.4279,11.1462 C21.4503,11.1287 21.4684,11.1063 21.4809,11.0807 C21.4933,11.0551 21.4998,11.027 21.4998,10.9986 C21.4998,10.9701 21.4933,10.942 21.4809,10.9164 C21.4684,10.8909 21.4503,10.8685 21.4279,10.8509 Z" id="Shape"></path>
                    </g>
                </g>
            </g>
        </g>
    </g>
</svg>