<?xml version="1.0" encoding="UTF-8"?>
<svg width="20px" height="18px" viewBox="0 0 20 18" version="1.1" xmlns="http://www.w3.org/2000/svg" xmlns:xlink="http://www.w3.org/1999/xlink">
    <!-- Generator: Sketch 52.6 (67491) - http://www.bohemiancoding.com/sketch -->
    <title>menu-unfold</title>
    <desc>Created with Sketch.</desc>
    <g id="Page-1" stroke="none" stroke-width="1" fill="none" fill-rule="evenodd">
        <g id="User-Profile" transform="translate(-159.000000, -404.000000)" fill="#0093E0" fill-rule="nonzero">
            <g id="filter" transform="translate(135.000000, 105.000000)">
                <g id="Group-3" transform="translate(24.000000, 296.000000)">
                    <g id="menu-unfold" transform="translate(0.000000, 3.000000)">
                        <path d="M7.5625,7.3594 L18.8125,7.3594 C18.9156,7.3594 19,7.275 19,7.1719 L19,5.85938 C19,5.75625 18.9156,5.67188 18.8125,5.67188 L7.5625,5.67188 C7.45937,5.67188 7.375,5.75625 7.375,5.85938 L7.375,7.1719 C7.375,7.275 7.45937,7.3594 7.5625,7.3594 Z M7.375,12.1406 C7.375,12.2437 7.45937,12.3281 7.5625,12.3281 L18.8125,12.3281 C18.9156,12.3281 19,12.2437 19,12.1406 L19,10.8281 C19,10.725 18.9156,10.6406 18.8125,10.6406 L7.5625,10.6406 C7.45937,10.6406 7.375,10.725 7.375,10.8281 L7.375,12.1406 Z M19.1875,0.75 L0.8125,0.75 C0.70937,0.75 0.625,0.83437 0.625,0.9375 L0.625,2.25 C0.625,2.35312 0.70937,2.4375 0.8125,2.4375 L19.1875,2.4375 C19.2906,2.4375 19.375,2.35312 19.375,2.25 L19.375,0.9375 C19.375,0.83437 19.2906,0.75 19.1875,0.75 Z M19.1875,15.5625 L0.8125,15.5625 C0.70937,15.5625 0.625,15.6469 0.625,15.75 L0.625,17.0625 C0.625,17.1656 0.70937,17.25 0.8125,17.25 L19.1875,17.25 C19.2906,17.25 19.375,17.1656 19.375,17.0625 L19.375,15.75 C19.375,15.6469 19.2906,15.5625 19.1875,15.5625 Z M1.3375,12.0492 L5.00078,9.1641 C5.02545,9.1447 5.04539,9.1199 5.0591,9.0917 C5.07281,9.0635 5.07993,9.0325 5.07993,9.0012 C5.07993,8.9698 5.07281,8.9388 5.0591,8.9106 C5.04539,8.8824 5.02545,8.8577 5.00078,8.8383 L1.3375,5.95078 C1.20156,5.84297 1,5.93906 1,6.1125 L1,11.8852 C0.99999,11.9243 1.01099,11.9627 1.03175,11.9958 C1.05251,12.029 1.08219,12.0557 1.1174,12.0728 C1.1526,12.0899 1.19192,12.0968 1.23084,12.0926 C1.26976,12.0885 1.30672,12.0734 1.3375,12.0492 Z" id="Shape"></path>
                    </g>
                </g>
            </g>
        </g>
    </g>
</svg>