<?xml version="1.0" encoding="UTF-8"?>
<svg width="18px" height="22px" viewBox="0 0 18 22" version="1.1" xmlns="http://www.w3.org/2000/svg" xmlns:xlink="http://www.w3.org/1999/xlink">
    <!-- Generator: Sketch 52.6 (67491) - http://www.bohemiancoding.com/sketch -->
    <title>file-search</title>
    <desc>Created with Sketch.</desc>
    <g id="Page-1" stroke="none" stroke-width="1" fill="none" fill-rule="evenodd">
        <g id="User-Profile" transform="translate(-160.000000, -346.000000)" fill="#0093E0" fill-rule="nonzero">
            <g id="filter" transform="translate(135.000000, 105.000000)">
                <g id="Group-4" transform="translate(25.000000, 240.000000)">
                    <g id="file-search" transform="translate(0.000000, 1.000000)">
                        <path d="M13.125,6.3125 L13.125,5.1875 C13.125,5.08437 13.0406,5 12.9375,5 L3.9375,5 C3.83437,5 3.75,5.08437 3.75,5.1875 L3.75,6.3125 C3.75,6.41563 3.83437,6.5 3.9375,6.5 L12.9375,6.5 C13.0406,6.5 13.125,6.41563 13.125,6.3125 Z M3.9375,8.375 C3.83437,8.375 3.75,8.45937 3.75,8.5625 L3.75,9.6875 C3.75,9.7906 3.83437,9.875 3.9375,9.875 L8.25,9.875 C8.3531,9.875 8.4375,9.7906 8.4375,9.6875 L8.4375,8.5625 C8.4375,8.45937 8.3531,8.375 8.25,8.375 L3.9375,8.375 Z M7.3125,18.9688 L1.875,18.9688 L1.875,2.46875 L15,2.46875 L15,10.5312 C15,10.6344 15.0844,10.7188 15.1875,10.7188 L16.5,10.7188 C16.6031,10.7188 16.6875,10.6344 16.6875,10.5312 L16.6875,1.53125 C16.6875,1.11641 16.3523,0.78125 15.9375,0.78125 L0.9375,0.78125 C0.52266,0.78125 0.1875,1.11641 0.1875,1.53125 L0.1875,19.9062 C0.1875,20.3211 0.52266,20.6562 0.9375,20.6562 L7.3125,20.6562 C7.4156,20.6562 7.5,20.5719 7.5,20.4688 L7.5,19.1562 C7.5,19.0531 7.4156,18.9688 7.3125,18.9688 Z M17.7586,20.1758 L15.5719,17.9891 C16.0945,17.2977 16.4062,16.4352 16.4062,15.5 C16.4062,13.2219 14.5594,11.375 12.2812,11.375 C10.0031,11.375 8.1562,13.2219 8.1562,15.5 C8.1562,17.7781 10.0031,19.625 12.2812,19.625 C13.1203,19.625 13.8984,19.3742 14.55,18.9453 L16.7695,21.1648 C16.807,21.2023 16.8539,21.2188 16.9008,21.2188 C16.9477,21.2188 16.9969,21.2 17.032,21.1648 L17.7586,20.4383 C17.7759,20.4211 17.7896,20.4006 17.799,20.3781 C17.8083,20.3556 17.8132,20.3314 17.8132,20.307 C17.8132,20.2826 17.8083,20.2585 17.799,20.236 C17.7896,20.2134 17.7759,20.193 17.7586,20.1758 Z M12.2812,18.125 C10.8305,18.125 9.6562,16.9508 9.6562,15.5 C9.6562,14.0492 10.8305,12.875 12.2812,12.875 C13.732,12.875 14.9062,14.0492 14.9062,15.5 C14.9062,16.9508 13.732,18.125 12.2812,18.125 Z" id="Shape"></path>
                    </g>
                </g>
            </g>
        </g>
    </g>
</svg>