<?xml version="1.0" encoding="UTF-8"?>
<svg width="20px" height="22px" viewBox="0 0 20 22" version="1.1" xmlns="http://www.w3.org/2000/svg" xmlns:xlink="http://www.w3.org/1999/xlink">
    <!-- Generator: Sketch 52.6 (67491) - http://www.bohemiancoding.com/sketch -->
    <title>Shape</title>
    <desc>Created with Sketch.</desc>
    <g id="Page-1" stroke="none" stroke-width="1" fill="none" fill-rule="evenodd">
        <g id="User-Profile" transform="translate(-159.000000, -234.000000)" fill="#FFFFFF" fill-rule="nonzero">
            <g id="filter" transform="translate(135.000000, 105.000000)">
                <g id="Group-6" transform="translate(24.000000, 128.000000)">
                    <g id="setting" transform="translate(0.000000, 1.000000)">
                        <path d="M19.6748,13.6652 L18.1397,12.3527 C18.2123,11.9074 18.2498,11.4527 18.2498,10.998 C18.2498,10.5433 18.2123,10.0886 18.1397,9.6433 L19.6748,8.33081 C19.7906,8.23169 19.8735,8.09966 19.9124,7.95229 C19.9513,7.80492 19.9445,7.64919 19.8928,7.50581 L19.8717,7.44487 C19.4491,6.26368 18.8162,5.16871 18.0037,4.21284 L17.9615,4.16362 C17.863,4.04773 17.7316,3.96442 17.5847,3.92467 C17.4379,3.88492 17.2824,3.89061 17.1389,3.94097 L15.2334,4.61831 C14.5303,4.04175 13.7451,3.58706 12.8967,3.26831 L12.5287,1.27612 C12.501,1.12622 12.4282,0.98832 12.3202,0.88073 C12.2122,0.77314 12.074,0.70096 11.924,0.67378 L11.8607,0.66206 C10.6397,0.44175 9.3553,0.44175 8.1342,0.66206 L8.0709,0.67378 C7.9209,0.70096 7.78271,0.77314 7.6747,0.88073 C7.56669,0.98832 7.49398,1.12622 7.46622,1.27612 L7.0959,3.27769 C6.25424,3.5965 5.47043,4.05095 4.77559,4.623 L2.85606,3.94097 C2.71254,3.89021 2.55698,3.88432 2.41003,3.92409 C2.26309,3.96386 2.13173,4.04741 2.0334,4.16362 L1.99122,4.21284 C1.17968,5.16938 0.54694,6.26418 0.12325,7.44487 L0.10215,7.50581 C-0.00332,7.79878 0.0834,8.1269 0.32012,8.33081 L1.87403,9.6574 C1.80137,10.098 1.76622,10.548 1.76622,10.9957 C1.76622,11.4457 1.80137,11.8957 1.87403,12.3339 L0.32012,13.6605 C0.20433,13.7596 0.12146,13.8916 0.08252,14.039 C0.04359,14.1864 0.05043,14.3421 0.10215,14.4855 L0.12325,14.5464 C0.54747,15.7277 1.17559,16.8175 1.99122,17.7785 L2.0334,17.8277 C2.13197,17.9436 2.26333,18.0269 2.41019,18.0666 C2.55704,18.1064 2.7125,18.1007 2.85606,18.0503 L4.77559,17.3683 C5.47403,17.9425 6.2545,18.3972 7.0959,18.7136 L7.46622,20.7152 C7.49398,20.8651 7.56669,21.003 7.6747,21.1106 C7.78271,21.2182 7.9209,21.2903 8.0709,21.3175 L8.1342,21.3292 C9.3665,21.5507 10.6284,21.5507 11.8607,21.3292 L11.924,21.3175 C12.074,21.2903 12.2122,21.2182 12.3202,21.1106 C12.4282,21.003 12.501,20.8651 12.5287,20.7152 L12.8967,18.723 C13.7448,18.4051 14.5344,17.9489 15.2334,17.373 L17.1389,18.0503 C17.2824,18.1011 17.438,18.107 17.5849,18.0672 C17.7318,18.0274 17.8632,17.9439 17.9615,17.8277 L18.0037,17.7785 C18.8193,16.8152 19.4475,15.7277 19.8717,14.5464 L19.8928,14.4855 C19.9982,14.1972 19.9115,13.8691 19.6748,13.6652 Z M16.4756,9.9199 C16.5342,10.2738 16.5647,10.6371 16.5647,11.0003 C16.5647,11.3636 16.5342,11.7269 16.4756,12.0808 L16.3209,13.0207 L18.0717,14.5183 C17.8063,15.1298 17.4712,15.7086 17.0732,16.2433 L14.8982,15.4722 L14.1623,16.0769 C13.6022,16.5363 12.9787,16.8972 12.3037,17.1503 L11.4107,17.4855 L10.9912,19.7589 C10.3293,19.8339 9.661,19.8339 8.999,19.7589 L8.5795,17.4808 L7.69356,17.141 C7.02559,16.8878 6.4045,16.5269 5.84903,16.0699 L5.11309,15.4628 L2.92403,16.241 C2.52559,15.7042 2.19278,15.1253 1.92559,14.516 L3.69512,13.0042 L3.54278,12.0667 C3.48653,11.7175 3.45606,11.3566 3.45606,11.0003 C3.45606,10.6417 3.48418,10.2832 3.54278,9.9339 L3.69512,8.99644 L1.92559,7.48472 C2.19043,6.873 2.52559,6.29644 2.92403,5.75972 L5.11309,6.53784 L5.84903,5.93081 C6.4045,5.47378 7.02559,5.11284 7.69356,4.85972 L8.5818,4.52456 L9.0014,2.24644 C9.66,2.17144 10.3326,2.17144 10.9936,2.24644 L11.4131,4.51987 L12.3061,4.85503 C12.9787,5.10815 13.6045,5.46909 14.1647,5.92847 L14.9006,6.53315 L17.0756,5.76206 C17.474,6.29878 17.8068,6.87769 18.074,7.48706 L16.3232,8.98472 L16.4756,9.9199 Z M9.9998,6.64097 C7.72168,6.64097 5.87481,8.48784 5.87481,10.766 C5.87481,13.0441 7.72168,14.891 9.9998,14.891 C12.2779,14.891 14.1248,13.0441 14.1248,10.766 C14.1248,8.48784 12.2779,6.64097 9.9998,6.64097 Z M11.8561,12.6222 C11.6126,12.8664 11.3233,13.06 11.0047,13.1919 C10.6861,13.3239 10.3446,13.3915 9.9998,13.391 C9.299,13.391 8.6404,13.1167 8.1436,12.6222 C7.8994,12.3788 7.70578,12.0894 7.57385,11.7708 C7.44192,11.4523 7.37427,11.1108 7.37481,10.766 C7.37481,10.0652 7.64903,9.4066 8.1436,8.90972 C8.6404,8.41284 9.299,8.14097 9.9998,8.14097 C10.7006,8.14097 11.3592,8.41284 11.8561,8.90972 C12.1002,9.1532 12.2938,9.4425 12.4258,9.7611 C12.5577,10.0797 12.6253,10.4212 12.6248,10.766 C12.6248,11.4667 12.3506,12.1253 11.8561,12.6222 Z" id="Shape"></path>
                    </g>
                </g>
            </g>
        </g>
    </g>
</svg>