<?xml version="1.0" encoding="UTF-8"?>
<svg width="18px" height="20px" viewBox="0 0 18 20" version="1.1" xmlns="http://www.w3.org/2000/svg" xmlns:xlink="http://www.w3.org/1999/xlink">
    <!-- Generator: Sketch 52.6 (67491) - http://www.bohemiancoding.com/sketch -->
    <title>Shape</title>
    <desc>Created with Sketch.</desc>
    <g id="Page-1" stroke="none" stroke-width="1" fill="none" fill-rule="evenodd">
        <g id="User-Profile" transform="translate(-160.000000, -179.000000)" fill="#FFFFFF" fill-rule="nonzero">
            <g id="filter" transform="translate(135.000000, 105.000000)">
                <g id="Group-7" transform="translate(25.000000, 72.000000)">
                    <g id="user" transform="translate(0.000000, 2.000000)">
                        <path d="M17.1212,15.8969 C16.679,14.8496 16.0374,13.8984 15.2321,13.0961 C14.4292,12.2915 13.4781,11.65 12.4313,11.207 C12.4219,11.2023 12.4126,11.2 12.4032,11.1953 C13.8633,10.1406 14.8126,8.4227 14.8126,6.48438 C14.8126,3.27344 12.211,0.67188 9.0001,0.67188 C5.78912,0.67188 3.18756,3.27344 3.18756,6.48438 C3.18756,8.4227 4.13678,10.1406 5.59693,11.1977 C5.58756,11.2023 5.57818,11.2047 5.56881,11.2094 C4.51881,11.6523 3.57662,12.2875 2.76803,13.0984 C1.96344,13.9013 1.32194,14.8524 0.87896,15.8992 C0.44378,16.924 0.20908,18.0228 0.18756,19.1359 C0.18693,19.161 0.19132,19.1858 0.20046,19.2091 C0.20961,19.2324 0.22332,19.2537 0.24079,19.2716 C0.25826,19.2895 0.27915,19.3037 0.30221,19.3134 C0.32527,19.3231 0.35004,19.3281 0.37506,19.3281 L1.78131,19.3281 C1.88443,19.3281 1.96646,19.2461 1.96881,19.1453 C2.01568,17.3359 2.74225,15.6414 4.02662,14.357 C5.35553,13.0281 7.1204,12.2969 9.0001,12.2969 C10.8797,12.2969 12.6446,13.0281 13.9735,14.357 C15.2579,15.6414 15.9844,17.3359 16.0313,19.1453 C16.0337,19.2484 16.1157,19.3281 16.2188,19.3281 L17.6251,19.3281 C17.6501,19.3281 17.6749,19.3231 17.6979,19.3134 C17.721,19.3037 17.7419,19.2895 17.7593,19.2716 C17.7768,19.2537 17.7905,19.2324 17.7997,19.2091 C17.8088,19.1858 17.8132,19.161 17.8126,19.1359 C17.7891,18.0156 17.5571,16.9258 17.1212,15.8969 Z M9.0001,10.5156 C7.9243,10.5156 6.91178,10.0961 6.15006,9.3344 C5.38834,8.5727 4.96881,7.56016 4.96881,6.48438 C4.96881,5.40859 5.38834,4.39609 6.15006,3.63437 C6.91178,2.87266 7.9243,2.45312 9.0001,2.45312 C10.0758,2.45312 11.0883,2.87266 11.8501,3.63437 C12.6118,4.39609 13.0313,5.40859 13.0313,6.48438 C13.0313,7.56016 12.6118,8.5727 11.8501,9.3344 C11.0883,10.0961 10.0758,10.5156 9.0001,10.5156 Z" id="Shape"></path>
                    </g>
                </g>
            </g>
        </g>
    </g>
</svg>