<?xml version="1.0" encoding="UTF-8"?>
<svg width="23px" height="17px" viewBox="0 0 23 17" version="1.1" xmlns="http://www.w3.org/2000/svg" xmlns:xlink="http://www.w3.org/1999/xlink">
    <!-- Generator: Sketch 52.6 (67491) - http://www.bohemiancoding.com/sketch -->
    <title>HR</title>
    <desc>Created with Sketch.</desc>
    <defs>
        <rect id="path-1" x="0" y="0" width="23" height="16.4285714" rx="2"></rect>
        <linearGradient x1="50%" y1="0%" x2="50%" y2="100%" id="linearGradient-3">
            <stop stop-color="#FF212E" offset="0%"></stop>
            <stop stop-color="#FD0D1B" offset="100%"></stop>
        </linearGradient>
    </defs>
    <g id="Visual-Design-(desktop)" stroke="none" stroke-width="1" fill="none" fill-rule="evenodd">
        <g id="Community-forum" transform="translate(-477.000000, -715.000000)">
            <g id="main-content" transform="translate(435.000000, 105.000000)">
                <g id="thread-copy-3" transform="translate(0.000000, 538.000000)">
                    <g id="HR" transform="translate(42.000000, 72.000000)">
                        <mask id="mask-2" fill="white">
                            <use xlink:href="#path-1"></use>
                        </mask>
                        <rect stroke="#F5F5F5" stroke-width="0.5" x="0.25" y="0.25" width="22.5" height="15.9285714" rx="2"></rect>
                        <rect id="Rectangle-2" fill="#FF202D" mask="url(#mask-2)" x="0" y="0" width="23" height="5.47619048"></rect>
                        <path d="M8.76190476,4.38095238 L9.30952381,3.83333333 L9.85714286,4.38095238 L9.85714286,5.47619048 L8.76190476,5.47619048 L8.76190476,4.38095238 Z M10.952381,4.38095238 L11.5,3.83333333 L12.047619,4.38095238 L12.047619,5.47619048 L10.952381,5.47619048 L10.952381,4.38095238 Z M13.1428571,4.38095238 L13.6904762,3.83333333 L14.2380952,4.38095238 L14.2380952,5.47619048 L13.1428571,5.47619048 L13.1428571,4.38095238 Z" id="Rectangle-675" fill="#1895DB" opacity="0.5" mask="url(#mask-2)"></path>
                        <path d="M9.85714286,4.38095238 L10.4047619,3.83333333 L10.952381,4.38095238 L10.952381,5.47619048 L9.85714286,5.47619048 L9.85714286,4.38095238 Z M12.047619,4.38095238 L12.5952381,3.83333333 L13.1428571,4.38095238 L13.1428571,5.47619048 L12.047619,5.47619048 L12.047619,4.38095238 Z" id="Rectangle-675" fill="#191F94" opacity="0.5" mask="url(#mask-2)"></path>
                        <rect id="Rectangle-2" fill="#2027AC" mask="url(#mask-2)" x="0" y="10.952381" width="23" height="5.47619048"></rect>
                        <path d="M10.952381,5.47619048 L12.047619,5.47619048 L12.047619,6.57142857 L10.952381,6.57142857 L10.952381,5.47619048 Z M13.1428571,5.47619048 L13.6904762,5.47619048 L14.2380952,6.57142857 L13.1428571,6.57142857 L13.1428571,5.47619048 Z M9.30952381,5.47619048 L9.85714286,5.47619048 L9.85714286,6.57142857 L8.76190476,6.57142857 L9.30952381,5.47619048 Z M9.85714286,6.57142857 L10.952381,6.57142857 L10.952381,7.66666667 L9.85714286,7.66666667 L9.85714286,6.57142857 Z M12.047619,6.57142857 L13.1428571,6.57142857 L13.1428571,7.66666667 L12.047619,7.66666667 L12.047619,6.57142857 Z M10.952381,7.66666667 L12.047619,7.66666667 L12.047619,8.76190476 L10.952381,8.76190476 L10.952381,7.66666667 Z M13.1428571,7.66666667 L14.2380952,7.66666667 L14.2380952,8.76190476 L13.1428571,8.76190476 L13.1428571,7.66666667 Z M12.047619,8.76190476 L13.1428571,8.76190476 L13.1428571,9.85714286 L12.047619,9.85714286 L12.047619,8.76190476 Z M8.76190476,7.66666667 L9.85714286,7.66666667 L9.85714286,8.76190476 L8.76190476,8.76190476 L8.76190476,7.66666667 Z M9.85714286,8.76190476 L10.952381,8.76190476 L10.952381,9.85714286 L9.85714286,9.85714286 L9.85714286,8.76190476 Z M8.76190476,9.85714286 L9.85714286,9.85714286 L9.85714286,10.952381 L8.76190476,10.952381 L8.76190476,9.85714286 Z M10.952381,9.85714286 L12.047619,9.85714286 L12.047619,10.952381 L10.952381,10.952381 L10.952381,9.85714286 Z M13.1428571,9.85714286 L14.2380952,9.85714286 L14.2380952,10.952381 L13.1428571,10.952381 L13.1428571,9.85714286 Z M12.047619,10.952381 L13.1428571,10.952381 L13.1428571,12.047619 L12.047619,12.047619 L12.047619,10.952381 Z M9.85714286,10.952381 L10.952381,10.952381 L10.952381,12.047619 L9.85714286,12.047619 L9.85714286,10.952381 Z" id="Rectangle-657" fill="url(#linearGradient-3)" mask="url(#mask-2)"></path>
                    </g>
                </g>
            </g>
        </g>
    </g>
</svg>