<?xml version="1.0" encoding="UTF-8"?>
<svg width="23px" height="17px" viewBox="0 0 23 17" version="1.1" xmlns="http://www.w3.org/2000/svg" xmlns:xlink="http://www.w3.org/1999/xlink">
    <!-- Generator: Sketch 52.6 (67491) - http://www.bohemiancoding.com/sketch -->
    <title>US</title>
    <desc>Created with Sketch.</desc>
    <defs>
        <rect id="path-1" x="0" y="0" width="23" height="16.4285714" rx="2"></rect>
        <linearGradient x1="50%" y1="0%" x2="50%" y2="100%" id="linearGradient-3">
            <stop stop-color="#FFFFFF" offset="0%"></stop>
            <stop stop-color="#F0F0F0" offset="100%"></stop>
        </linearGradient>
        <path d="M1.64285714,2.19047619 C1.34041549,2.19047619 1.0952381,1.94529879 1.0952381,1.64285714 C1.0952381,1.34041549 1.34041549,1.0952381 1.64285714,1.0952381 C1.94529879,1.0952381 2.19047619,1.34041549 2.19047619,1.64285714 C2.19047619,1.94529879 1.94529879,2.19047619 1.64285714,2.19047619 Z M3.83333333,2.19047619 C3.53089168,2.19047619 3.28571429,1.94529879 3.28571429,1.64285714 C3.28571429,1.34041549 3.53089168,1.0952381 3.83333333,1.0952381 C4.13577498,1.0952381 4.38095238,1.34041549 4.38095238,1.64285714 C4.38095238,1.94529879 4.13577498,2.19047619 3.83333333,2.19047619 Z M6.02380952,2.19047619 C5.72136788,2.19047619 5.47619048,1.94529879 5.47619048,1.64285714 C5.47619048,1.34041549 5.72136788,1.0952381 6.02380952,1.0952381 C6.32625117,1.0952381 6.57142857,1.34041549 6.57142857,1.64285714 C6.57142857,1.94529879 6.32625117,2.19047619 6.02380952,2.19047619 Z M8.21428571,2.19047619 C7.91184407,2.19047619 7.66666667,1.94529879 7.66666667,1.64285714 C7.66666667,1.34041549 7.91184407,1.0952381 8.21428571,1.0952381 C8.51672736,1.0952381 8.76190476,1.34041549 8.76190476,1.64285714 C8.76190476,1.94529879 8.51672736,2.19047619 8.21428571,2.19047619 Z M2.73809524,3.28571429 C2.43565359,3.28571429 2.19047619,3.04053689 2.19047619,2.73809524 C2.19047619,2.43565359 2.43565359,2.19047619 2.73809524,2.19047619 C3.04053689,2.19047619 3.28571429,2.43565359 3.28571429,2.73809524 C3.28571429,3.04053689 3.04053689,3.28571429 2.73809524,3.28571429 Z M4.92857143,3.28571429 C4.62612978,3.28571429 4.38095238,3.04053689 4.38095238,2.73809524 C4.38095238,2.43565359 4.62612978,2.19047619 4.92857143,2.19047619 C5.23101308,2.19047619 5.47619048,2.43565359 5.47619048,2.73809524 C5.47619048,3.04053689 5.23101308,3.28571429 4.92857143,3.28571429 Z M7.11904762,3.28571429 C6.81660597,3.28571429 6.57142857,3.04053689 6.57142857,2.73809524 C6.57142857,2.43565359 6.81660597,2.19047619 7.11904762,2.19047619 C7.42148927,2.19047619 7.66666667,2.43565359 7.66666667,2.73809524 C7.66666667,3.04053689 7.42148927,3.28571429 7.11904762,3.28571429 Z M8.21428571,4.38095238 C7.91184407,4.38095238 7.66666667,4.13577498 7.66666667,3.83333333 C7.66666667,3.53089168 7.91184407,3.28571429 8.21428571,3.28571429 C8.51672736,3.28571429 8.76190476,3.53089168 8.76190476,3.83333333 C8.76190476,4.13577498 8.51672736,4.38095238 8.21428571,4.38095238 Z M6.02380952,4.38095238 C5.72136788,4.38095238 5.47619048,4.13577498 5.47619048,3.83333333 C5.47619048,3.53089168 5.72136788,3.28571429 6.02380952,3.28571429 C6.32625117,3.28571429 6.57142857,3.53089168 6.57142857,3.83333333 C6.57142857,4.13577498 6.32625117,4.38095238 6.02380952,4.38095238 Z M3.83333333,4.38095238 C3.53089168,4.38095238 3.28571429,4.13577498 3.28571429,3.83333333 C3.28571429,3.53089168 3.53089168,3.28571429 3.83333333,3.28571429 C4.13577498,3.28571429 4.38095238,3.53089168 4.38095238,3.83333333 C4.38095238,4.13577498 4.13577498,4.38095238 3.83333333,4.38095238 Z M1.64285714,4.38095238 C1.34041549,4.38095238 1.0952381,4.13577498 1.0952381,3.83333333 C1.0952381,3.53089168 1.34041549,3.28571429 1.64285714,3.28571429 C1.94529879,3.28571429 2.19047619,3.53089168 2.19047619,3.83333333 C2.19047619,4.13577498 1.94529879,4.38095238 1.64285714,4.38095238 Z M2.73809524,5.47619048 C2.43565359,5.47619048 2.19047619,5.23101308 2.19047619,4.92857143 C2.19047619,4.62612978 2.43565359,4.38095238 2.73809524,4.38095238 C3.04053689,4.38095238 3.28571429,4.62612978 3.28571429,4.92857143 C3.28571429,5.23101308 3.04053689,5.47619048 2.73809524,5.47619048 Z M4.92857143,5.47619048 C4.62612978,5.47619048 4.38095238,5.23101308 4.38095238,4.92857143 C4.38095238,4.62612978 4.62612978,4.38095238 4.92857143,4.38095238 C5.23101308,4.38095238 5.47619048,4.62612978 5.47619048,4.92857143 C5.47619048,5.23101308 5.23101308,5.47619048 4.92857143,5.47619048 Z M7.11904762,5.47619048 C6.81660597,5.47619048 6.57142857,5.23101308 6.57142857,4.92857143 C6.57142857,4.62612978 6.81660597,4.38095238 7.11904762,4.38095238 C7.42148927,4.38095238 7.66666667,4.62612978 7.66666667,4.92857143 C7.66666667,5.23101308 7.42148927,5.47619048 7.11904762,5.47619048 Z M8.21428571,6.57142857 C7.91184407,6.57142857 7.66666667,6.32625117 7.66666667,6.02380952 C7.66666667,5.72136788 7.91184407,5.47619048 8.21428571,5.47619048 C8.51672736,5.47619048 8.76190476,5.72136788 8.76190476,6.02380952 C8.76190476,6.32625117 8.51672736,6.57142857 8.21428571,6.57142857 Z M6.02380952,6.57142857 C5.72136788,6.57142857 5.47619048,6.32625117 5.47619048,6.02380952 C5.47619048,5.72136788 5.72136788,5.47619048 6.02380952,5.47619048 C6.32625117,5.47619048 6.57142857,5.72136788 6.57142857,6.02380952 C6.57142857,6.32625117 6.32625117,6.57142857 6.02380952,6.57142857 Z M3.83333333,6.57142857 C3.53089168,6.57142857 3.28571429,6.32625117 3.28571429,6.02380952 C3.28571429,5.72136788 3.53089168,5.47619048 3.83333333,5.47619048 C4.13577498,5.47619048 4.38095238,5.72136788 4.38095238,6.02380952 C4.38095238,6.32625117 4.13577498,6.57142857 3.83333333,6.57142857 Z M1.64285714,6.57142857 C1.34041549,6.57142857 1.0952381,6.32625117 1.0952381,6.02380952 C1.0952381,5.72136788 1.34041549,5.47619048 1.64285714,5.47619048 C1.94529879,5.47619048 2.19047619,5.72136788 2.19047619,6.02380952 C2.19047619,6.32625117 1.94529879,6.57142857 1.64285714,6.57142857 Z" id="path-4"></path>
        <filter x="-6.5%" y="-9.1%" width="113.0%" height="134.8%" filterUnits="objectBoundingBox" id="filter-5">
            <feOffset dx="0" dy="1" in="SourceAlpha" result="shadowOffsetOuter1"></feOffset>
            <feColorMatrix values="0 0 0 0 0   0 0 0 0 0   0 0 0 0 0  0 0 0 0.06 0" type="matrix" in="shadowOffsetOuter1"></feColorMatrix>
        </filter>
    </defs>
    <g id="Visual-Design-(desktop)" stroke="none" stroke-width="1" fill="none" fill-rule="evenodd">
        <g id="Community-forum" transform="translate(-477.000000, -415.000000)">
            <g id="main-content" transform="translate(435.000000, 105.000000)">
                <g id="thread-copy" transform="translate(0.000000, 238.000000)">
                    <g id="US" transform="translate(42.000000, 72.000000)">
                        <mask id="mask-2" fill="white">
                            <use xlink:href="#path-1"></use>
                        </mask>
                        <use id="Mask" fill="#FFFFFF" xlink:href="#path-1"></use>
                        <path d="M0,0 L23,0 L23,1.0952381 L0,1.0952381 L0,0 Z M0,2.19047619 L23,2.19047619 L23,3.28571429 L0,3.28571429 L0,2.19047619 Z M0,4.38095238 L23,4.38095238 L23,5.47619048 L0,5.47619048 L0,4.38095238 Z M0,6.57142857 L23,6.57142857 L23,7.66666667 L0,7.66666667 L0,6.57142857 Z M0,8.76190476 L23,8.76190476 L23,9.85714286 L0,9.85714286 L0,8.76190476 Z M0,10.952381 L23,10.952381 L23,12.047619 L0,12.047619 L0,10.952381 Z M0,13.1428571 L23,13.1428571 L23,14.2380952 L0,14.2380952 L0,13.1428571 Z M0,15.3333333 L23,15.3333333 L23,16.4285714 L0,16.4285714 L0,15.3333333 Z" id="Rectangle-511" fill="#D02F44" mask="url(#mask-2)"></path>
                        <rect id="Rectangle-511" fill="#46467F" mask="url(#mask-2)" x="0" y="0" width="9.85714286" height="7.66666667"></rect>
                        <g id="Oval-43" mask="url(#mask-2)">
                            <use fill="black" fill-opacity="1" filter="url(#filter-5)" xlink:href="#path-4"></use>
                            <use fill="url(#linearGradient-3)" fill-rule="evenodd" xlink:href="#path-4"></use>
                        </g>
                    </g>
                </g>
            </g>
        </g>
    </g>
</svg>