<?xml version="1.0" encoding="UTF-8"?>
<svg width="24px" height="24px" viewBox="0 0 24 24" version="1.1" xmlns="http://www.w3.org/2000/svg" xmlns:xlink="http://www.w3.org/1999/xlink">
    <!-- Generator: Sketch 52.6 (67491) - http://www.bohemiancoding.com/sketch -->
    <title>bathroom-tub-towel</title>
    <desc>Created with Sketch.</desc>
    <g id="Page-1" stroke="none" stroke-width="1" fill="none" fill-rule="evenodd" stroke-linecap="round" stroke-linejoin="round">
        <g id="Partner-Property" transform="translate(-1102.000000, -484.000000)" stroke="#0093E0" stroke-width="1.5">
            <g id="Group" transform="translate(847.000000, 142.000000)">
                <g id="bathroom-tub-towel" transform="translate(255.000000, 342.000000)">
                    <path d="M12.75,14.25 L23.25,14.25 L22.586,18.236 C22.1039443,21.1295218 19.6004018,23.2502791 16.667,23.25 L7.333,23.25 C4.39959822,23.2502791 1.89605568,21.1295218 1.414,18.236 L0.75,14.25 L5.25,14.25" id="Path"></path>
                    <path d="M12,20.25 L6,20.25 C5.58578644,20.25 5.25,19.9142136 5.25,19.5 L5.25,14.25 C5.25,13.4215729 5.92157288,12.75 6.75,12.75 L11.25,12.75 C12.0784271,12.75 12.75,13.4215729 12.75,14.25 L12.75,19.5 C12.75,19.9142136 12.4142136,20.25 12,20.25 Z" id="Path"></path>
                    <path d="M15.75,3.75 C15.75,2.09314575 17.0931458,0.75 18.75,0.75 C20.4068542,0.75 21.75,2.09314575 21.75,3.75 L21.75,14.25" id="Path"></path>
                    <path d="M12.75,6.75 C12.75,5.09314575 14.0931458,3.75 15.75,3.75 C17.4068542,3.75 18.75,5.09314575 18.75,6.75 L12.75,6.75 Z" id="Path"></path>
                </g>
            </g>
        </g>
    </g>
</svg>