<?xml version="1.0" encoding="UTF-8"?>
<svg width="24px" height="20px" viewBox="0 0 24 20" version="1.1" xmlns="http://www.w3.org/2000/svg" xmlns:xlink="http://www.w3.org/1999/xlink">
    <!-- Generator: Sketch 52.6 (67491) - http://www.bohemiancoding.com/sketch -->
    <title>hotel-single-bed-1</title>
    <desc>Created with Sketch.</desc>
    <g id="Page-1" stroke="none" stroke-width="1" fill="none" fill-rule="evenodd" stroke-linecap="round" stroke-linejoin="round">
        <g id="Partner-Property" transform="translate(-963.000000, -487.000000)" stroke="#0093E0" stroke-width="1.5">
            <g id="Group" transform="translate(847.000000, 142.000000)">
                <g id="hotel-single-bed-1" transform="translate(116.000000, 346.000000)">
                    <path d="M2.75,8.25 L21.25,8.25 C22.3545695,8.25 23.25,9.1454305 23.25,10.25 L23.25,15 L0.75,15 L0.75,10.25 C0.75,9.1454305 1.6454305,8.25 2.75,8.25 Z" id="Path"></path>
                    <path d="M0.75,15 L0.75,18" id="Path"></path>
                    <path d="M23.25,15 L23.25,18" id="Path"></path>
                    <path d="M21,8.25 L21,1.5 C21,0.671572875 20.3284271,0 19.5,0 L4.5,0 C3.67157288,0 3,0.671572875 3,1.5 L3,8.25" id="Path"></path>
                    <path d="M8.5,4.5 L15.5,4.5 C16.0522847,4.5 16.5,4.94771525 16.5,5.5 L16.5,8.25 L7.5,8.25 L7.5,5.5 C7.5,4.94771525 7.94771525,4.5 8.5,4.5 Z" id="Path"></path>
                </g>
            </g>
        </g>
    </g>
</svg>