<?xml version="1.0" encoding="UTF-8"?>
<svg width="14px" height="24px" viewBox="0 0 14 24" version="1.1" xmlns="http://www.w3.org/2000/svg" xmlns:xlink="http://www.w3.org/1999/xlink">
    <!-- Generator: Sketch 52.6 (67491) - http://www.bohemiancoding.com/sketch -->
    <title>user-logout</title>
    <desc>Created with Sketch.</desc>
    <g id="Page-1" stroke="none" stroke-width="1" fill="none" fill-rule="evenodd" stroke-linejoin="round">
        <g id="Partner-Property" transform="translate(-1038.000000, -484.000000)" stroke="#0093E0" stroke-width="1.5">
            <g id="Group" transform="translate(847.000000, 142.000000)">
                <g id="user-logout" transform="translate(191.000000, 342.000000)">
                    <circle id="Oval" cx="6.75" cy="3.754" r="3"></circle>
                    <path d="M6.75,7.5 C3.4362915,7.5 0.75,10.1862915 0.75,13.5 L0.75,15.75 C0.75,16.5784271 1.42157288,17.25 2.25,17.25 L3.75,17.25 L3.75,21.75 C3.75,22.5784271 4.42157288,23.25 5.25,23.25 L8.25,23.25 C9.07842712,23.25 9.75,22.5784271 9.75,21.75 L9.75,17.25 L11.25,17.25 C12.0784271,17.25 12.75,16.5784271 12.75,15.75 L12.75,13.5 C12.75,10.1862915 10.0637085,7.5 6.75,7.5 Z" id="Path"></path>
                </g>
            </g>
        </g>
    </g>
</svg>